<?xml version="1.0" standalone="no"?>
<!DOCTYPE svg PUBLIC "-//W3C//DTD SVG 1.1//EN" "http://www.w3.org/Graphics/SVG/1.1/DTD/svg11.dtd" >
<svg xmlns="http://www.w3.org/2000/svg" xmlns:xlink="http://www.w3.org/1999/xlink" version="1.1">
<metadata>
Created by FontForge 20170731 at Tue Aug  7 03:24:29 2012
 By Aleksey,,,
Copyright (c) 2004 - 2007 Linotype GmbH, www.linotype.com. All rights reserved.
</metadata>
<defs>
<font id="AvenirNextCondensed-BoldItalic" horiz-adv-x="666" >
  <font-face 
    font-family="Avenir Next Condensed"
    font-weight="700"
    font-style="italic"
    font-stretch="condensed"
    units-per-em="1000"
    panose-1="2 11 8 6 2 2 2 9 2 4"
    ascent="800"
    descent="-200"
    x-height="520"
    cap-height="708"
    bbox="-162 -250 952 965"
    underline-thickness="50"
    underline-position="-200"
    slope="-12"
    unicode-range="U+000D-FB02"
  />
<missing-glyph horiz-adv-x="512" 
d="M222 117v67h56v-67h-56zM225 234l-2 17q0 56 13 81q7 13 18 27.5t28 31.5q16 15 26 26.5t15 21t7 18t2 17.5q0 36 -22.5 60.5t-53.5 24.5t-53.5 -22t-28.5 -73l-50 8q7 72 44 104.5t91 32.5t89 -35.5t35 -95.5q0 -32 -12.5 -58.5t-50.5 -61.5q-37 -33 -43 -52
q-6 -20 -6 -72h-46zM462 50v617h-412v-617h412zM512 718v-718h-512v718h512z" />
    <glyph glyph-name=".notdef" horiz-adv-x="512" 
d="M222 117v67h56v-67h-56zM225 234l-2 17q0 56 13 81q7 13 18 27.5t28 31.5q16 15 26 26.5t15 21t7 18t2 17.5q0 36 -22.5 60.5t-53.5 24.5t-53.5 -22t-28.5 -73l-50 8q7 72 44 104.5t91 32.5t89 -35.5t35 -95.5q0 -32 -12.5 -58.5t-50.5 -61.5q-37 -33 -43 -52
q-6 -20 -6 -72h-46zM462 50v617h-412v-617h412zM512 718v-718h-512v718h512z" />
    <glyph glyph-name=".null" horiz-adv-x="200" 
 />
    <glyph glyph-name=".null" horiz-adv-x="200" 
 />
    <glyph glyph-name="nonmarkingreturn" unicode="&#xd;" horiz-adv-x="0" 
 />
    <glyph glyph-name="space" unicode=" " horiz-adv-x="194" 
 />
    <glyph glyph-name="exclam" unicode="!" horiz-adv-x="322" 
d="M239 239h-149l81 469h150zM221 90q0 -42 -26 -70t-65 -28q-37 0 -56 23t-19 52q0 19 6.5 37t18.5 31.5t28.5 22t36.5 8.5q38 0 57 -22t19 -54z" />
    <glyph glyph-name="quotedbl" unicode="&#x22;" horiz-adv-x="386" 
d="M358 440h-102l47 268h102zM206 440h-102l47 268h102z" />
    <glyph glyph-name="numbersign" unicode="#" horiz-adv-x="428" 
d="M431 404h-70l-27 -100h57l-18 -104h-68l-55 -200h-87l55 200h-47l-56 -200h-86l54 200h-60l19 104h70l28 100h-61l19 104h70l55 200h88l-55 -200h47l56 200h87l-56 -200h60zM226 404l-26 -100h47l28 100h-49z" />
    <glyph glyph-name="dollar" unicode="$" horiz-adv-x="519" 
d="M200 0q-56 3 -102 23t-72 49l86 110q20 -22 48 -36t58 -14q16 0 31 5.5t27 16t19 26t7 34.5q0 28 -16.5 49.5t-54.5 42.5q-22 13 -42.5 28.5t-36.5 36t-25.5 47.5t-9.5 62q0 45 15 85t42.5 70t65.5 49t85 24l14 78h63l-14 -79q45 -6 80.5 -23t56.5 -41l-86 -106
q-17 19 -40.5 30t-49.5 11q-13 0 -27.5 -5t-27 -15.5t-20.5 -26.5t-8 -38q0 -28 17 -46t52 -38q19 -11 40 -26.5t38 -37t28.5 -50t11.5 -64.5q0 -51 -15.5 -90.5t-41.5 -68t-60 -46t-72 -23.5l-15 -83h-63l14 80v0z" />
    <glyph glyph-name="percent" unicode="%" horiz-adv-x="712" 
d="M687 224q0 -45 -12.5 -87.5t-35.5 -75t-56 -52.5t-73 -20q-60 0 -91 39t-31 101q0 46 12.5 88.5t35.5 75.5t55.5 53t72.5 20q61 0 92 -39.5t31 -102.5zM588 217q0 26 -8.5 41.5t-26.5 15.5q-16 0 -28 -13.5t-20.5 -34t-12.5 -44t-4 -43.5q0 -26 8.5 -41.5t25.5 -15.5
q16 0 28.5 13.5t20.5 34t12.5 44t4.5 43.5zM362 579q0 -45 -12.5 -87.5t-35.5 -75t-56 -52.5t-73 -20q-60 0 -91 39t-31 101q0 46 12.5 88.5t35.5 75.5t55.5 53t72.5 20q61 0 92 -39.5t31 -102.5zM263 572q0 26 -8.5 41.5t-26.5 15.5q-16 0 -28 -13.5t-20.5 -34t-12.5 -44
t-4 -43.5q0 -26 8.5 -41.5t25.5 -15.5q16 0 28.5 13.5t20.5 34t12.5 44t4.5 43.5zM193 -22l-65 28l431 732l64 -30z" />
    <glyph glyph-name="ampersand" unicode="&#x26;" horiz-adv-x="598" 
d="M466 175l98 -175h-162l-37 69q-29 -37 -70 -60.5t-94 -23.5q-45 0 -77 14t-53 38t-31 56.5t-10 68.5q0 80 41.5 138t110.5 93q-15 27 -25 58t-10 61q0 51 15.5 91.5t43 68t64 42t78.5 14.5q78 0 117 -42t39 -106q0 -38 -12.5 -69.5t-33.5 -57.5t-49.5 -46.5t-60.5 -37.5
l50 -98l70 115h141zM383 566q0 24 -11.5 38.5t-31.5 14.5q-15 0 -27.5 -8t-20.5 -21.5t-12.5 -30.5t-4.5 -34q0 -40 24 -80q36 20 60 49t24 72zM238 304q-29 -14 -51 -48t-22 -75q0 -31 15 -52t48 -21q28 0 48.5 17t33.5 39z" />
    <glyph glyph-name="quotesingle" unicode="'" horiz-adv-x="234" 
d="M206 440h-102l47 268h102z" />
    <glyph glyph-name="parenleft" unicode="(" horiz-adv-x="274" 
d="M313 710q-44 -62 -80 -133t-61.5 -146.5t-39.5 -154t-14 -155.5q0 -71 12.5 -136t35.5 -119l-95 -40q-28 61 -44 139t-16 159q0 168 56 330t158 296l88 -40v0z" />
    <glyph glyph-name="parenright" unicode=")" horiz-adv-x="274" 
d="M282 453q0 -168 -56 -330t-158 -296l-88 39q44 62 80 133.5t61.5 147t39.5 154t14 155.5q0 71 -12.5 136t-35.5 119l94 40q29 -62 45 -139.5t16 -158.5z" />
    <glyph glyph-name="asterisk" unicode="*" horiz-adv-x="465" 
d="M381 483l74 -105l-88 -64l-75 108l-72 -104l-88 63l75 103l-119 40l35 99l116 -41v126h109v-127l118 39l32 -99z" />
    <glyph glyph-name="plus" unicode="+" 
d="M399 240v-209h-130v209h-213v126h212v209h130v-209h213v-126h-212z" />
    <glyph glyph-name="comma" unicode="," horiz-adv-x="262" 
d="M77 -119h-111l107 282h133z" />
    <glyph glyph-name="hyphen" unicode="-" horiz-adv-x="241" 
d="M212 219h-187l20 113h187z" />
    <glyph glyph-name="period" unicode="." horiz-adv-x="262" 
d="M187 90q0 -42 -26.5 -70.5t-65.5 -28.5q-37 0 -56 23.5t-19 52.5q0 19 6.5 37t18.5 32t28.5 22.5t36.5 8.5q38 0 57.5 -22.5t19.5 -54.5z" />
    <glyph glyph-name="slash" unicode="/" horiz-adv-x="283" 
d="M40 -38l-81 18l331 778l79 -19z" />
    <glyph glyph-name="zero" unicode="0" horiz-adv-x="519" 
d="M525 479q0 -44 -6 -98t-19.5 -108.5t-36 -106t-55.5 -91.5t-77 -64t-101 -24q-53 0 -89.5 20.5t-58.5 54t-31.5 76.5t-9.5 88q0 44 5.5 98t19 109t35 107t54 92t76.5 64.5t102 24.5q53 0 90 -20.5t59.5 -54.5t32.5 -77.5t10 -89.5zM372 480q0 21 -2.5 40t-8.5 34
t-16 23.5t-25 8.5q-24 0 -42.5 -20.5t-32.5 -53.5t-24 -74t-16 -81t-9 -75t-3 -57q0 -21 2.5 -39.5t8.5 -32.5t15.5 -22.5t24.5 -8.5q23 0 41.5 20.5t33 53t24.5 73t16.5 80.5t9.5 74.5t3 56.5z" />
    <glyph glyph-name="one" unicode="1" horiz-adv-x="519" 
d="M336 0h-152l94 536l-124 -78l-49 116l222 134h132z" />
    <glyph glyph-name="two" unicode="2" horiz-adv-x="519" 
d="M520 541q0 -35 -8.5 -65t-26.5 -59t-45 -59.5t-64 -66.5l-161 -157h238l-23 -134h-420l24 138l252 248q46 46 63.5 77.5t17.5 62.5q0 11 -3 22t-9.5 20t-17 14.5t-26.5 5.5q-32 0 -53 -24.5t-29 -62.5l-144 21q26 97 89.5 148t154.5 51q42 0 77.5 -12t60.5 -35.5t39 -57
t14 -75.5z" />
    <glyph glyph-name="three" unicode="3" horiz-adv-x="519" 
d="M513 554q0 -31 -9 -60.5t-25.5 -54t-40 -42.5t-53.5 -25v-3q42 -13 64.5 -52.5t22.5 -86.5q0 -56 -19 -101t-52 -76.5t-77.5 -48.5t-95.5 -17q-47 0 -84 12.5t-63.5 35t-43.5 53t-24 65.5l136 39q8 -29 26.5 -50.5t53.5 -21.5q42 0 68.5 27.5t26.5 79.5q0 36 -24 57
t-62 21h-35l20 118h39q44 0 73.5 27t29.5 77q0 23 -15.5 43t-47.5 20q-30 0 -49 -18t-32 -44l-123 40q16 41 40.5 70t54 47.5t63.5 27t69 8.5q38 0 72 -10t60 -31t41 -52.5t15 -73.5z" />
    <glyph glyph-name="four" unicode="4" horiz-adv-x="519" 
d="M378 0h-138l25 145h-258l23 133l279 430h193l-77 -436h75l-22 -127h-75zM339 556l-173 -284h125l50 284h-2z" />
    <glyph glyph-name="five" unicode="5" horiz-adv-x="519" 
d="M494 575h-214l-29 -132q15 5 31.5 8t28.5 3q41 0 72.5 -14.5t52.5 -40t32 -59.5t11 -72q0 -67 -20.5 -119.5t-55.5 -88.5t-82 -54.5t-100 -18.5q-82 0 -136.5 43.5t-67.5 121.5l136 45q7 -32 25.5 -54t51.5 -22q24 0 42 10t30 27.5t18 40t6 48.5q0 46 -25.5 69.5
t-65.5 23.5q-15 0 -33.5 -2.5t-38 -6.5t-39 -9.5t-35.5 -11.5l84 398h346z" />
    <glyph glyph-name="six" unicode="6" horiz-adv-x="519" 
d="M310 460q11 4 19 5.5t22 1.5q33 0 60 -14t46 -38.5t29 -57.5t10 -72q0 -54 -16 -107t-48 -95.5t-81 -69t-116 -26.5q-49 0 -87 15t-64 42.5t-39.5 65.5t-13.5 85q0 60 24 124.5t75 134.5l178 254h180l-179 -246zM279 362q-21 0 -38.5 -12.5t-31 -34.5t-21 -50.5
t-7.5 -59.5q0 -38 16.5 -62.5t47.5 -24.5q24 0 42.5 13.5t31.5 35.5t19.5 51t6.5 60q0 35 -15.5 59.5t-50.5 24.5z" />
    <glyph glyph-name="seven" unicode="7" horiz-adv-x="519" 
d="M522 592l-314 -592h-165l312 573h-249l24 135h412z" />
    <glyph glyph-name="eight" unicode="8" horiz-adv-x="519" 
d="M526 554q0 -66 -33.5 -112.5t-89.5 -66.5v-2q34 -15 58 -52t24 -90t-17 -97.5t-48.5 -77t-78 -51t-104.5 -18.5q-47 0 -86 12.5t-67 36t-43.5 57.5t-15.5 77q0 38 11.5 71.5t31.5 60t45.5 45t54.5 26.5v2q-34 17 -53 49.5t-19 74.5q0 43 15 83.5t44.5 71t73.5 49
t103 18.5q50 0 86.5 -12.5t60.5 -35t35.5 -53t11.5 -66.5zM379 543q0 30 -14.5 48.5t-43.5 18.5q-20 0 -35 -9.5t-26 -25t-16.5 -36t-5.5 -42.5q0 -28 14 -49.5t43 -21.5q19 0 35 10.5t26.5 27.5t16.5 37.5t6 41.5zM332 236q0 35 -16.5 56.5t-45.5 21.5q-20 0 -37 -11
t-29.5 -29t-20 -41t-7.5 -48q0 -35 16 -57.5t49 -22.5q22 0 39 11.5t28.5 30t17.5 42t6 47.5z" />
    <glyph glyph-name="nine" unicode="9" horiz-adv-x="519" 
d="M218 247q-34 0 -61 14t-45.5 39t-28.5 58t-10 71q0 52 15 104t46.5 94t80 68t115.5 26q101 0 153 -55.5t52 -148.5q0 -124 -99 -263l-179 -254h-180l185 253l-1 2q-12 -5 -20.5 -6.5t-22.5 -1.5zM287 353q21 0 38.5 11.5t31 31.5t21 48t7.5 60q-1 38 -16.5 62.5
t-47.5 24.5q-24 0 -42 -13t-30 -34.5t-18.5 -49t-6.5 -57.5q0 -35 15 -59.5t48 -24.5z" />
    <glyph glyph-name="colon" unicode=":" horiz-adv-x="291" 
d="M262 445q0 -41 -25.5 -68t-63.5 -27q-36 0 -55 22.5t-19 51.5q0 18 6.5 35.5t18.5 31t28 22t36 8.5q36 0 55 -22t19 -54zM201 94q0 -42 -25.5 -69.5t-63.5 -27.5q-36 0 -54.5 23t-18.5 52q0 18 6.5 35.5t18 31t27.5 22t36 8.5q36 0 55 -22t19 -53z" />
    <glyph glyph-name="semicolon" unicode=";" horiz-adv-x="291" 
d="M262 445q0 -41 -25.5 -68t-63.5 -27q-36 0 -55 22.5t-19 51.5q0 18 6.5 35.5t18.5 31t28 22t36 8.5q36 0 55 -22t19 -54zM87 -119h-111l108 282h132z" />
    <glyph glyph-name="less" unicode="&#x3c;" 
d="M79 251v103l508 214v-136l-306 -131l306 -127v-137z" />
    <glyph glyph-name="equal" unicode="=" 
d="M68 335v123h530v-123h-530zM68 150v123h530v-123h-530z" />
    <glyph glyph-name="greater" unicode="&#x3e;" 
d="M79 37v137l306 127l-306 131v136l508 -214v-103z" />
    <glyph glyph-name="question" unicode="?" horiz-adv-x="418" 
d="M464 566q0 -38 -9.5 -67t-26.5 -53t-40.5 -45.5t-50.5 -42.5q-29 -23 -42 -44t-18 -47l-5 -29h-122l7 42q8 51 31.5 87.5t61.5 69.5l21 18q24 20 39 41t15 50q0 26 -14 42t-39 16q-18 0 -31.5 -7.5t-23.5 -19.5t-16.5 -26t-9.5 -26l-115 32q9 32 27 63t45 55t63 39t82 15
q40 0 72 -12.5t54 -34t33.5 -51.5t11.5 -65zM275 90q0 -42 -26 -70t-65 -28q-37 0 -56 23t-19 52q0 19 6.5 37t18.5 31.5t28.5 22t36.5 8.5q38 0 57 -22t19 -54z" />
    <glyph glyph-name="at" unicode="@" horiz-adv-x="634" 
d="M643 474q0 -56 -13.5 -112t-40 -101t-64 -73t-85.5 -28q-31 0 -48.5 16.5t-18.5 49.5h-2q-7 -11 -16.5 -22.5t-21.5 -21.5t-26.5 -16t-31.5 -6q-46 0 -68 34.5t-22 85.5q0 46 14 95.5t38.5 90.5t58.5 67.5t73 26.5q35 0 49.5 -18.5t15.5 -41.5h2l13 34h81l-47 -135
q-12 -34 -22.5 -69t-10.5 -55q0 -10 4 -17t16 -7q21 0 38.5 23t30.5 57t20 71.5t7 66.5q0 86 -42.5 133.5t-123.5 47.5q-59 0 -108.5 -33.5t-85.5 -86.5t-56 -120t-20 -134q0 -48 12 -87.5t36 -68t59 -44t81 -15.5q51 0 95.5 18.5t79.5 48.5l33 -68q-42 -35 -95 -56.5
t-125 -21.5q-69 0 -118.5 22.5t-81.5 61.5t-47 92t-15 115q0 84 26 165.5t73 145.5t113 103t146 39q61 0 106 -18t75 -51t45 -79.5t15 -103.5zM400 428q0 20 -7 31.5t-24 11.5t-33.5 -17.5t-29 -43t-20.5 -56t-8 -55.5q0 -21 7.5 -35t24.5 -14q19 0 35.5 20t28.5 48.5t19 59
t7 50.5z" />
    <glyph glyph-name="A" unicode="A" horiz-adv-x="541" 
d="M342 0l-3 133h-165l-53 -133h-160l307 708h193l37 -708h-156zM335 555h-4l-117 -304h127z" />
    <glyph glyph-name="B" unicode="B" horiz-adv-x="538" 
d="M531 546q0 -36 -9.5 -65t-26 -51t-38 -37t-46.5 -23l1 -2q18 -5 34 -16t29 -28t20.5 -39.5t7.5 -50.5q0 -62 -21.5 -106t-56.5 -72.5t-78.5 -42t-88.5 -13.5h-234l123 708h206q31 0 62.5 -8.5t57 -27.5t42 -50t16.5 -76zM390 515q0 32 -20 48.5t-49 16.5h-53l-28 -160h57
q16 0 33 5.5t30 17t21.5 29.5t8.5 43zM356 234q0 40 -23.5 56.5t-51.5 16.5h-61l-31 -178h62q46 0 75.5 26.5t29.5 78.5z" />
    <glyph glyph-name="C" unicode="C" horiz-adv-x="503" 
d="M464 529q-14 23 -34 36t-52 13q-40 0 -72 -29t-54 -73t-33.5 -97.5t-11.5 -102.5q0 -64 23 -104.5t74 -40.5q34 0 57 15.5t39 32.5l71 -114q-35 -36 -82.5 -59.5t-111.5 -23.5q-56 0 -99.5 20t-72.5 56t-44 86.5t-15 111.5q0 90 24.5 175t69.5 150.5t107.5 105
t137.5 39.5q72 0 115.5 -24t68.5 -59z" />
    <glyph glyph-name="D" unicode="D" horiz-adv-x="583" 
d="M580 432q0 -75 -18 -152t-59 -139t-108 -101.5t-166 -39.5h-205l123 708h187q66 0 113 -20t76.5 -56.5t43 -87.5t13.5 -112zM423 419q0 33 -5.5 61.5t-18 49t-32 32.5t-47.5 12h-43l-76 -440h45q44 0 77 26t55.5 67t33.5 91.5t11 100.5z" />
    <glyph glyph-name="E" unicode="E" horiz-adv-x="440" 
d="M455 573h-185l-26 -147h173l-22 -126h-172l-28 -162h202l-24 -138h-349l123 708h331z" />
    <glyph glyph-name="F" unicode="F" horiz-adv-x="427" 
d="M460 569h-186l-26 -151h173l-23 -133h-172l-50 -285h-152l123 708h337z" />
    <glyph glyph-name="G" unicode="G" horiz-adv-x="553" 
d="M466 529q-14 24 -36 37t-55 13q-43 0 -76.5 -30t-56 -75.5t-34 -99.5t-11.5 -102q0 -30 6.5 -56t19.5 -46t33 -31.5t48 -11.5q39 0 68 17l25 139h-94l24 134h229l-65 -375q-38 -26 -87.5 -43t-112.5 -17q-62 0 -108 21t-76.5 57.5t-45.5 87t-15 109.5q0 89 24.5 173.5
t69 150t107 105.5t138.5 40q71 0 116.5 -23.5t67.5 -60.5z" />
    <glyph glyph-name="H" unicode="H" horiz-adv-x="605" 
d="M501 0h-153l52 299h-171l-52 -299h-153l123 708h152l-47 -272h171l47 272h154z" />
    <glyph glyph-name="I" unicode="I" horiz-adv-x="283" 
d="M179 0h-155l123 708h155z" />
    <glyph glyph-name="J" unicode="J" horiz-adv-x="439" 
d="M378 219q-9 -52 -23.5 -95.5t-40 -75t-64 -49t-94.5 -17.5q-39 0 -70 11t-54 30t-38 44t-22 54l130 57q5 -20 18 -35.5t37 -15.5q35 0 49 28t22 78l82 475h153z" />
    <glyph glyph-name="K" unicode="K" horiz-adv-x="561" 
d="M382 370l131 -370h-173l-103 332h-3l-58 -332h-152l123 708h152l-51 -297h3l200 297h177z" />
    <glyph glyph-name="L" unicode="L" horiz-adv-x="419" 
d="M369 0h-345l123 708h154l-98 -566h191z" />
    <glyph glyph-name="M" unicode="M" horiz-adv-x="765" 
d="M660 0h-151l91 492h-3l-208 -492h-110l-32 492h-3l-81 -492h-139l124 708h193l34 -463h4l193 463h212z" />
    <glyph glyph-name="N" unicode="N" horiz-adv-x="599" 
d="M495 0h-165l-93 441h-3l-72 -441h-138l123 708h169l89 -447h4l74 447h135z" />
    <glyph glyph-name="O" unicode="O" horiz-adv-x="607" 
d="M604 454q0 -87 -23 -171.5t-65.5 -151.5t-104 -108t-138.5 -41q-54 0 -96.5 19.5t-71.5 55t-44 85t-15 110.5q0 87 22.5 172t65 152t104 108.5t139.5 41.5q57 0 99.5 -19.5t71 -55.5t42.5 -86t14 -111zM445 432q0 28 -4 55t-13.5 47t-25.5 32.5t-40 12.5q-38 0 -67.5 -31
t-49.5 -78t-30 -102t-10 -102q0 -28 4.5 -53t14 -43.5t26 -29t40.5 -10.5q36 0 65 29t49 74t30.5 98t10.5 101z" />
    <glyph glyph-name="P" unicode="P" horiz-adv-x="515" 
d="M540 524q0 -63 -18.5 -112t-51.5 -82t-78.5 -50t-99.5 -17h-72l-46 -263h-150l123 708h202q36 0 70.5 -10t61.5 -32.5t43 -57.5t16 -84zM394 502q0 36 -18.5 56t-50.5 20h-51l-32 -191h53q45 0 72 31t27 84z" />
    <glyph glyph-name="Q" unicode="Q" horiz-adv-x="614" 
d="M604 455q0 -42 -8.5 -89.5t-25 -91.5t-40 -80.5t-53.5 -57.5v-3l115 4l-24 -137h-296q-110 0 -168 65t-58 187q0 87 22.5 172t65 152t104 108.5t139.5 41.5q57 0 99.5 -19.5t71 -55t42.5 -85.5t14 -111zM445 436q0 28 -3.5 54t-13 45.5t-25.5 31t-40 11.5
q-38 0 -67.5 -31.5t-50 -78.5t-31 -102t-10.5 -102q0 -57 20.5 -90.5t62.5 -33.5q37 0 66.5 29t49.5 73t31 96t11 98z" />
    <glyph glyph-name="R" unicode="R" horiz-adv-x="536" 
d="M549 526q0 -81 -36.5 -136t-97.5 -76l79 -314h-162l-59 285h-52l-49 -285h-148l123 708h208q94 0 144 -45.5t50 -136.5zM396 506q0 41 -22 57t-50 16h-52l-32 -185h50q44 0 75 28t31 84z" />
    <glyph glyph-name="S" unicode="S" horiz-adv-x="462" 
d="M415 546q-17 20 -42 31.5t-52 11.5q-14 0 -29.5 -5.5t-28 -16.5t-21 -27.5t-8.5 -39.5q0 -29 17.5 -48t52.5 -39q20 -12 42.5 -28.5t41 -39t30.5 -52t12 -68.5q0 -61 -20.5 -106.5t-55 -76t-78.5 -45.5t-91 -15q-65 0 -119 22t-84 54l91 115q20 -23 49.5 -37.5
t61.5 -14.5q16 0 32 6t28.5 17t20 27t7.5 36q0 29 -17.5 51.5t-57.5 45.5q-23 13 -44.5 29t-38 38t-26.5 50t-10 65q0 51 18 95t50 76t77 50.5t99 18.5q61 0 109 -19t75 -50z" />
    <glyph glyph-name="T" unicode="T" horiz-adv-x="409" 
d="M469 577h-130l-101 -577h-152l101 577h-130l23 131h412z" />
    <glyph glyph-name="U" unicode="U" horiz-adv-x="576" 
d="M531 262q-11 -59 -29 -110t-49 -89t-77 -59.5t-113 -21.5q-54 0 -94 15t-66.5 42t-39.5 63.5t-13 80.5q0 18 1.5 38t5.5 41l78 446h155l-76 -434q-3 -17 -5 -33.5t-2 -30.5q0 -35 14.5 -58t51.5 -23q26 0 44 11.5t30 31t20 46t13 56.5l75 434h154z" />
    <glyph glyph-name="V" unicode="V" horiz-adv-x="540" 
d="M324 0h-195l-48 708h165l14 -525h3l192 525h167z" />
    <glyph glyph-name="W" unicode="W" horiz-adv-x="793" 
d="M609 0h-164l-3 484h-3l-171 -484h-168l-6 708h154l-12 -502h5l167 502h149l-4 -502h3l162 502h150z" />
    <glyph glyph-name="X" unicode="X" horiz-adv-x="534" 
d="M379 372l110 -372h-163l-57 242l-143 -242h-164l238 371l-101 337h158l51 -222l128 222h162z" />
    <glyph glyph-name="Y" unicode="Y" horiz-adv-x="493" 
d="M321 256l-45 -256h-155l45 256l-96 452h162l37 -294h3l140 294h167z" />
    <glyph glyph-name="Z" unicode="Z" horiz-adv-x="452" 
d="M480 586l-297 -447h222l-24 -139h-401l21 125l297 448h-199l24 135h378z" />
    <glyph glyph-name="bracketleft" unicode="[" horiz-adv-x="273" 
d="M297 636h-79l-122 -696h79l-17 -96h-193l155 888h194z" />
    <glyph glyph-name="backslash" unicode="\" horiz-adv-x="283" 
d="M150 -38l-56 777l87 19l56 -778z" />
    <glyph glyph-name="bracketright" unicode="]" horiz-adv-x="273" 
d="M175 -156h-193l16 96h79l123 696h-80l17 96h193z" />
    <glyph glyph-name="asciicircum" unicode="^" horiz-adv-x="690" 
d="M468 343l-124 213l-123 -213h-148l213 365h118l212 -365h-148z" />
    <glyph glyph-name="underscore" unicode="_" horiz-adv-x="500" 
d="M0 -164v89h500v-89h-500z" />
    <glyph glyph-name="grave" unicode="`" horiz-adv-x="265" 
d="M176 589l-128 144h126l103 -144h-101z" />
    <glyph glyph-name="a" unicode="a" horiz-adv-x="448" 
d="M419 381q0 -40 -9 -88l-33 -191q-2 -11 -4 -26t-4 -29.5t-3.5 -27.5t-1.5 -19h-122q1 12 3.5 32t5.5 33h-3q-17 -35 -46 -56.5t-76 -21.5q-21 0 -41.5 8t-37 24t-26.5 40.5t-10 57.5q0 57 20 96.5t53.5 64t78 35.5t93.5 11h25q5 23 5 34q0 54 -51 54q-28 0 -53.5 -12.5
t-44.5 -29.5l-56 93q35 33 82 53t95 20q85 0 123 -41.5t38 -113.5zM242 229q-20 0 -39 -4.5t-33.5 -15t-23 -26.5t-8.5 -38q0 -24 11.5 -36t28.5 -12q18 0 32.5 9.5t25 25t17.5 34.5t11 38l5 25h-27z" />
    <glyph glyph-name="b" unicode="b" horiz-adv-x="518" 
d="M498 351q0 -62 -14.5 -127t-42.5 -118t-69.5 -87.5t-94.5 -34.5q-48 0 -73 24t-32 59h-2l-11 -67h-139l131 756h144l-52 -294h4q14 31 44 52.5t69 21.5q35 0 61 -13.5t43 -38.5t25.5 -59t8.5 -74zM352 325q0 38 -12 62t-41 24q-25 0 -44 -22t-32 -54t-19.5 -69t-6.5 -68
q0 -39 12 -63.5t41 -24.5q25 0 44 22t32 54.5t19.5 70t6.5 68.5z" />
    <glyph glyph-name="c" unicode="c" horiz-adv-x="352" 
d="M326 382q-8 9 -19 15t-30 6q-24 0 -43.5 -19t-33 -47.5t-20.5 -63.5t-7 -66q0 -42 14.5 -65.5t46.5 -23.5q16 0 28.5 5.5t24.5 13.5l38 -115q-21 -17 -52 -27.5t-68 -10.5q-46 0 -79 16t-54.5 44t-31.5 65.5t-10 80.5q0 63 17 124.5t49.5 111t78.5 80t105 30.5
q48 0 76 -12t45 -28z" />
    <glyph glyph-name="d" unicode="d" horiz-adv-x="515" 
d="M415 0h-139l11 67h-1q-18 -35 -46 -59t-75 -24q-34 0 -59.5 14t-42 38.5t-25 59t-8.5 75.5q0 61 14.5 125.5t43 118t69.5 87.5t95 34q45 0 68 -20.5t29 -53.5h3l52 294h143zM331 321q0 40 -12.5 65t-40.5 25q-26 0 -45 -22t-32 -54.5t-19.5 -70t-6.5 -68.5
q0 -38 12.5 -62t41.5 -24q24 0 43 21.5t32 53.5t20 69t7 67z" />
    <glyph glyph-name="e" unicode="e" horiz-adv-x="465" 
d="M448 353q0 -20 -3 -52t-12 -76h-260q-3 -20 -3 -33q0 -35 15 -57.5t45 -22.5q27 0 45.5 17.5t31.5 39.5l100 -65q-27 -50 -76 -85t-117 -35q-88 0 -136 54.5t-48 151.5q0 70 19 133t52.5 110.5t79.5 75t99 27.5q45 0 77 -14t52 -38.5t29.5 -58t9.5 -72.5zM321 355
q0 32 -11.5 50.5t-35.5 18.5q-17 0 -31 -10t-24.5 -25.5t-18 -34.5t-10.5 -37h127q2 6 3 18t1 20z" />
    <glyph glyph-name="f" unicode="f" horiz-adv-x="289" 
d="M363 654q-5 2 -12 3t-15 1q-17 0 -29.5 -7.5t-20.5 -20t-13 -28.5t-8 -33l-8 -49h78l-19 -115h-78l-71 -405h-140l70 405h-65l20 115h64l9 51q7 41 21 79t37.5 67t58.5 46t84 17q14 0 30 -2t27 -4z" />
    <glyph glyph-name="g" unicode="g" horiz-adv-x="515" 
d="M417 32q-11 -62 -30.5 -112t-51 -85.5t-76.5 -55t-106 -19.5q-52 0 -100 19.5t-78 48.5l79 109q20 -20 46 -33t58 -13q25 0 44.5 9.5t33.5 26t23.5 39t14.5 49.5l10 52h-2q-17 -30 -45.5 -52.5t-75.5 -22.5q-34 0 -59.5 13.5t-43 38.5t-26 58.5t-8.5 74.5q0 60 14.5 124
t42.5 116t69 85.5t95 33.5q45 0 71 -23t32 -56h4l11 63h139zM325 321q0 40 -12.5 65t-40.5 25q-25 0 -44 -22t-32 -54.5t-19.5 -70t-6.5 -68.5q0 -38 12 -62t41 -24q25 0 44 21.5t32 53.5t19.5 69t6.5 67z" />
    <glyph glyph-name="h" unicode="h" horiz-adv-x="526" 
d="M492 410q0 -19 -2.5 -43t-7.5 -48l-55 -319h-146l56 319q2 9 3 18.5t1 18.5q0 21 -8.5 36t-32.5 15q-30 0 -51.5 -28.5t-29.5 -73.5l-53 -305h-146l132 756h145l-54 -307h2q20 35 52.5 61t80.5 26q31 0 53 -11.5t35.5 -29.5t19.5 -40.5t6 -44.5z" />
    <glyph glyph-name="i" unicode="i" horiz-adv-x="266" 
d="M288 678q0 -20 -7 -37.5t-19 -30.5t-28.5 -20.5t-35.5 -7.5q-35 0 -54 22.5t-19 51.5q0 19 6.5 36.5t18.5 31t28 21.5t35 8q36 0 55.5 -21.5t19.5 -53.5zM165 0h-146l90 520h146z" />
    <glyph glyph-name="j" unicode="j" horiz-adv-x="266" 
d="M288 678q0 -41 -25.5 -68.5t-63.5 -27.5q-36 0 -55 22.5t-19 51.5q0 19 6.5 36.5t18.5 31t28.5 21.5t35.5 8q36 0 55 -21.5t19 -53.5zM162 -35q-8 -41 -21.5 -78.5t-37.5 -65.5t-59.5 -44.5t-86.5 -16.5q-16 0 -31 2t-28 5l22 133q15 -5 28 -5q31 0 46 22.5t22 60.5
l95 542h148z" />
    <glyph glyph-name="k" unicode="k" horiz-adv-x="486" 
d="M337 274l104 -274h-153l-82 241h-2l-41 -241h-143l130 756h144l-79 -449h2l148 213h163z" />
    <glyph glyph-name="l" unicode="l" horiz-adv-x="267" 
d="M167 0h-147l132 756h147z" />
    <glyph glyph-name="m" unicode="m" horiz-adv-x="785" 
d="M487 432q20 42 57 73t92 31q31 0 53 -11.5t36 -29.5t20 -40.5t6 -44.5q0 -19 -3 -43t-7 -48l-56 -319h-145l56 319q3 18 3 37q0 21 -8 36t-32 15q-27 0 -48 -25t-30 -63l-56 -319h-145l56 319q2 9 3 18.5t1 18.5q0 21 -8.5 36t-32.5 15q-30 0 -51.5 -28.5t-29.5 -73.5
l-53 -305h-146l69 393q2 12 5 30.5t5.5 37t5 34.5t3.5 25h137q-1 -14 -3.5 -35.5t-5.5 -40.5h2q20 39 55 65.5t83 26.5q28 0 48 -8.5t33.5 -23t20.5 -33t10 -39.5z" />
    <glyph glyph-name="n" unicode="n" horiz-adv-x="525" 
d="M491 410q0 -19 -2.5 -43t-7.5 -48l-55 -319h-146l56 319q2 9 3 18.5t1 18.5q0 21 -8.5 36t-32.5 15q-30 0 -51.5 -28.5t-29.5 -73.5l-53 -305h-146l69 393q2 12 5 30.5t5.5 37t5 34.5t3.5 25h138q-2 -14 -4.5 -35.5t-5.5 -40.5h2q20 39 55 65.5t83 26.5q31 0 53.5 -11.5
t36 -29.5t20 -40.5t6.5 -44.5z" />
    <glyph glyph-name="o" unicode="o" horiz-adv-x="488" 
d="M468 334q0 -68 -17 -131t-49 -111.5t-80 -78t-109 -29.5q-87 0 -135 55.5t-48 147.5q0 67 17.5 130t50.5 112t81 78t108 29q86 0 133.5 -55.5t47.5 -146.5zM327 322q0 40 -12.5 64.5t-40.5 24.5q-25 0 -44 -22t-31.5 -54.5t-19 -70t-6.5 -67.5q0 -39 11.5 -63t39.5 -24
q25 0 44.5 21.5t32.5 53.5t19.5 69t6.5 68z" />
    <glyph glyph-name="p" unicode="p" horiz-adv-x="518" 
d="M498 348q0 -61 -14.5 -125.5t-42 -117.5t-68.5 -87t-95 -34q-45 0 -70.5 22t-31.5 54h-2l-52 -300h-142l131 760h138l-11 -66h2q20 35 48.5 58.5t70.5 23.5q35 0 61 -14t43.5 -39t26 -59.5t8.5 -75.5zM353 325q0 38 -12.5 62t-41.5 24q-24 0 -43 -21.5t-32 -53.5t-20 -69
t-7 -68q0 -40 12.5 -64.5t40.5 -24.5q25 0 44.5 22t32.5 54.5t19.5 70t6.5 68.5z" />
    <glyph glyph-name="q" unicode="q" horiz-adv-x="521" 
d="M376 -240h-143l52 300h-2q-15 -31 -42.5 -53.5t-72.5 -22.5q-69 0 -103.5 51.5t-34.5 133.5q0 61 14.5 126t42.5 118.5t69.5 88t94.5 34.5q48 0 72.5 -23.5t30.5 -58.5h2l12 66h140zM331 322q0 40 -12 64.5t-41 24.5q-25 0 -44 -22t-32 -54.5t-19.5 -70t-6.5 -68.5
q0 -38 12 -62t41 -24q25 0 44 21.5t32 53.5t19.5 69t6.5 68z" />
    <glyph glyph-name="r" unicode="r" horiz-adv-x="330" 
d="M349 385q-6 2 -13 3t-18 1q-20 0 -37.5 -11t-31.5 -29t-24 -42t-14 -49l-45 -258h-147l69 393q2 12 5 30.5l6 37t5 34.5t3 25h137q0 -7 -1.5 -19t-3 -25t-3.5 -25.5t-3 -20.5h3q43 106 121 106q17 0 25 -3z" />
    <glyph glyph-name="s" unicode="s" horiz-adv-x="393" 
d="M327 390q-14 15 -34 24.5t-45 9.5q-23 0 -40.5 -13.5t-17.5 -39.5q0 -21 13 -32.5t45 -27.5q21 -11 40 -24t33.5 -30t23.5 -39t9 -49q0 -51 -18.5 -86.5t-47 -57.5t-63.5 -31.5t-68 -9.5q-51 0 -97 18t-75 48l81 94q18 -20 41.5 -32.5t49.5 -12.5q24 0 42 14t18 40
q0 23 -18 38.5t-50 31.5q-20 9 -37 21t-30 28t-20.5 36.5t-7.5 47.5q0 48 18.5 82.5t47.5 56t64.5 31.5t69.5 10q46 0 85.5 -14t63.5 -37z" />
    <glyph glyph-name="t" unicode="t" horiz-adv-x="305" 
d="M322 403h-84l-39 -213q-2 -8 -3 -18t-1 -16q0 -44 43 -44q8 0 18 2t17 4l-19 -111q-14 -7 -35.5 -11.5t-40.5 -4.5q-65 0 -97.5 31t-32.5 86q0 9 1 21t3 24l44 250h-69l21 117h68l22 127h141l-23 -127h88z" />
    <glyph glyph-name="u" unicode="u" horiz-adv-x="525" 
d="M443 127q-2 -13 -5 -31t-6 -37t-5.5 -35t-3.5 -24h-137q2 14 4.5 35t5.5 41h-3q-20 -40 -54.5 -66t-82.5 -26q-32 0 -54 11t-35.5 29t-20 40.5t-6.5 45.5q0 19 2.5 42.5t7.5 47.5l55 320h146l-56 -319q-2 -10 -3 -19.5t-1 -17.5q0 -21 8.5 -36t32.5 -15q30 0 51.5 28.5
t29.5 73.5l53 305h146z" />
    <glyph glyph-name="v" unicode="v" horiz-adv-x="458" 
d="M276 0h-180l-38 520h144l12 -367h3l134 367h153z" />
    <glyph glyph-name="w" unicode="w" horiz-adv-x="678" 
d="M510 0h-151l-6 321h-1l-129 -321h-146l-18 520h145l-5 -340h2l126 340h123l5 -340h2l116 340h147z" />
    <glyph glyph-name="x" unicode="x" horiz-adv-x="450" 
d="M323 265l78 -265h-147l-41 178l-100 -178h-156l179 273l-76 247h145l37 -160l88 160h156z" />
    <glyph glyph-name="y" unicode="y" horiz-adv-x="458" 
d="M255 -43q-19 -43 -39.5 -79t-47 -62.5t-60 -41t-78.5 -14.5q-23 0 -40.5 3t-29.5 7l27 130q5 -3 15 -5t22 -2q25 0 39.5 14.5t25.5 39.5l19 44l-57 529h151l13 -363h3l139 363h147z" />
    <glyph glyph-name="z" unicode="z" horiz-adv-x="388" 
d="M390 404l-229 -282h182l-21 -122h-341l21 120l225 277h-163l21 123h324z" />
    <glyph glyph-name="braceleft" unicode="{" horiz-adv-x="273" 
d="M302 637h-30q-26 0 -39 -21.5t-18 -50.5l-28 -162q-5 -30 -15 -51t-22 -34.5t-25 -20t-23 -8.5v-2q16 -3 32 -20.5t16 -56.5q0 -18 -4 -37l-27 -161q-3 -14 -3 -28q0 -20 7.5 -32.5t27.5 -12.5h29l-14 -95h-65q-51 0 -73.5 28.5t-22.5 75.5q0 14 1.5 27.5t3.5 27.5
l26 149q3 21 3 36q0 27 -11 36.5t-29 9.5l18 108q12 0 22 3.5t18.5 12.5t15 25t10.5 41l26 149q6 34 17.5 63t29.5 50.5t43 33.5t58 12h65z" />
    <glyph glyph-name="bar" unicode="|" horiz-adv-x="241" 
d="M56 -250l-1 1000h131v-1000h-130z" />
    <glyph glyph-name="braceright" unicode="}" horiz-adv-x="273" 
d="M279 234q-23 0 -40.5 -16.5t-25.5 -65.5l-26 -149q-6 -34 -17.5 -63t-29.5 -50.5t-43 -33.5t-58 -12h-64l19 95h30q26 0 39 21.5t18 50.5l28 162q5 30 15.5 51t22.5 34.5t24.5 20t22.5 8.5v2q-16 3 -32 20.5t-16 56.5q0 18 4 37l27 161q2 7 2.5 14.5t0.5 13.5
q0 20 -7.5 32.5t-27.5 12.5h-29l15 95h64q52 0 74 -28.5t22 -75.5q0 -14 -1 -27.5t-4 -27.5l-25 -149q-4 -19 -4 -36q1 -27 11.5 -36.5t28.5 -9.5z" />
    <glyph glyph-name="asciitilde" unicode="~" 
d="M593 285q-11 -19 -24.5 -37t-30 -32t-37.5 -22.5t-47 -8.5q-32 0 -56.5 9t-55.5 29q-30 19 -54.5 28.5t-52.5 9.5q-29 0 -49 -19.5t-35 -50.5l-66 104q23 45 56.5 72t80.5 27q32 0 61 -9.5t59 -27.5q34 -20 58 -30t41 -10q28 0 48.5 22t38.5 49l65 -101v-2z" />
    <glyph glyph-name="uni00A0" unicode="&#xa0;" horiz-adv-x="194" 
 />
    <glyph glyph-name="exclamdown" unicode="&#xa1;" horiz-adv-x="322" 
d="M165 -172h-150l82 469h149zM281 469q0 -19 -7 -36.5t-19 -31.5t-28.5 -22.5t-35.5 -8.5q-38 0 -57.5 22.5t-19.5 54.5q0 42 26.5 70t65.5 28q36 0 55.5 -23.5t19.5 -52.5z" />
    <glyph glyph-name="cent" unicode="&#xa2;" horiz-adv-x="519" 
d="M366 524q30 -5 49.5 -15t32.5 -22l-72 -110q-8 9 -18.5 14.5t-28.5 5.5q-23 0 -41.5 -18t-31.5 -45.5t-20 -61t-7 -63.5q0 -40 13.5 -63t44.5 -23q16 0 28 5t23 13l37 -111q-18 -14 -43 -23.5t-55 -11.5l-14 -75h-63l14 79q-64 15 -93.5 68t-29.5 125q0 56 14.5 112
t41.5 102t66 78t89 40l14 77h63l-13 -77v0z" />
    <glyph glyph-name="sterling" unicode="&#xa3;" horiz-adv-x="519" 
d="M465 569q-8 8 -23 13.5t-35 5.5q-22 0 -37.5 -9.5t-26 -25t-17 -35.5t-10.5 -41l-9 -54h116l-21 -119h-114l-28 -163h177l-25 -141h-403l25 141h79l28 163h-77l22 119h75l12 68q7 40 22.5 82t42.5 76.5t68 56.5t100 22q42 0 75.5 -12t53.5 -27z" />
    <glyph glyph-name="currency" unicode="&#xa4;" horiz-adv-x="519" 
d="M431 416q15 -29 21.5 -60t6.5 -67q0 -33 -7.5 -69.5t-21.5 -62.5l66 -81l-66 -83l-68 83q-42 -32 -103 -32q-25 0 -53 9.5t-50 24.5l-69 -85l-67 82l70 85q-14 27 -21.5 61.5t-7.5 67.5q0 74 26 126l-66 81l66 80l67 -80q23 16 49.5 26t55.5 10q28 0 56 -9.5t50 -24.5
l64 78l68 -80zM259 412q-37 0 -56 -36t-19 -87t19 -87.5t56 -36.5q38 0 57.5 36.5t19.5 87.5t-19.5 87t-57.5 36z" />
    <glyph glyph-name="yen" unicode="&#xa5;" horiz-adv-x="519" 
d="M418 425h80l-17 -101h-134l-14 -78h134l-18 -101h-133l-26 -145h-150l25 145h-131l18 101h131l14 78h-131l18 101h83l-73 283h155l46 -270l137 270h157z" />
    <glyph glyph-name="brokenbar" unicode="&#xa6;" horiz-adv-x="241" 
d="M55 313v362h131v-362h-131zM55 -175v362h131v-362h-131z" />
    <glyph glyph-name="section" unicode="&#xa7;" horiz-adv-x="511" 
d="M425 567q-13 15 -34.5 26t-49.5 11q-12 0 -25.5 -4t-24.5 -12t-18.5 -20.5t-7.5 -28.5q0 -14 3.5 -23.5t13.5 -18.5t26.5 -17.5t42.5 -20.5q63 -29 93 -68t30 -94q0 -27 -8.5 -50t-22.5 -41.5t-32 -31.5t-37 -20q18 -14 30 -39t12 -55q0 -58 -22.5 -97.5t-56.5 -64
t-74.5 -35.5t-76.5 -11q-60 0 -114.5 22t-83.5 62l91 97q20 -26 49 -42t64 -16q14 0 28 4t25 12t18 20.5t7 29.5q0 26 -19 44.5t-70 41.5q-65 27 -93.5 61t-28.5 91q0 28 9 52.5t23.5 44t33 33t36.5 21.5q-17 13 -27 36.5t-10 48.5q0 44 16 82.5t45 67.5t69.5 45.5
t90.5 16.5q63 0 104.5 -16t70.5 -48zM348 275q0 26 -17.5 42t-43.5 30l-49 25q-21 -4 -37.5 -22t-16.5 -45q0 -30 16.5 -43t42.5 -26l52 -24q19 4 36 20.5t17 42.5z" />
    <glyph glyph-name="dieresis" unicode="&#xa8;" horiz-adv-x="265" 
d="M372 676q0 -35 -21.5 -58t-53.5 -23q-31 0 -47 19.5t-16 43.5q0 16 5.5 30.5t15.5 26t24 18.5t30 7q31 0 47 -18.5t16 -45.5zM186 676q0 -35 -21.5 -58t-53.5 -23q-30 0 -46 19.5t-16 43.5q0 16 5.5 30.5t15.5 26t23.5 18.5t30.5 7q30 0 46 -18.5t16 -45.5z" />
    <glyph glyph-name="copyright" unicode="&#xa9;" horiz-adv-x="640" 
d="M320 -20q-63 0 -115.5 26t-90 75t-58 118.5t-20.5 155.5t20.5 155.5t58 118t90 75t115.5 26.5t115 -26.5t89.5 -75t58.5 -118t21 -155.5t-21 -155.5t-58.5 -118.5t-89.5 -75t-115 -26zM320 686q-54 0 -97 -25t-73 -69t-46 -104.5t-16 -132.5t16 -132.5t46 -104.5t73 -69
t97 -25t97 25t73 69t46 104.5t16 132.5t-16 132.5t-46 104.5t-73 69t-97 25zM445 189q-18 -28 -45 -45.5t-65 -17.5t-68 16.5t-51.5 47t-33 73t-11.5 94.5t11.5 95t32.5 73.5t51 47t66 16.5q37 0 66 -16t46 -43l-55 -79q-17 33 -50 33q-28 0 -44.5 -36t-16.5 -91
q0 -54 16.5 -90t44.5 -36q18 0 29 10t19 25z" />
    <glyph glyph-name="ordfeminine" unicode="&#xaa;" horiz-adv-x="318" 
d="M344 622q0 -9 -1.5 -23.5t-3.5 -21.5l-20 -120q-2 -14 -4.5 -35t-3.5 -29h-79q1 8 2.5 20.5t3.5 20.5h-2q-11 -23 -29.5 -37.5t-47.5 -14.5q-13 0 -26.5 5.5t-24.5 16t-18 26.5t-7 37q0 36 12.5 61t33.5 40t49 22t59 7h15q1 5 1 8v6q0 13 -7.5 22t-23.5 9q-18 0 -32 -7.5
t-26 -18.5l-36 61q22 20 52 32t60 12q54 0 79 -27t25 -72zM228 537q-26 0 -44 -12t-18 -41q0 -15 7.5 -22.5t18.5 -7.5q12 0 20 6t14 15.5t10 21.5t6 24l3 16h-17z" />
    <glyph glyph-name="guillemotleft" unicode="&#xab;" horiz-adv-x="410" 
d="M293 260l55 -189l-82 -33l-68 231l146 224l71 -43zM132 260l55 -189l-82 -33l-67 231l146 224l70 -43z" />
    <glyph glyph-name="logicalnot" unicode="&#xac;" 
d="M476 145v183h-425v123h555v-306h-130z" />
    <glyph glyph-name="uni00AD" unicode="&#xad;" horiz-adv-x="241" 
d="M212 219h-187l20 113h187z" />
    <glyph glyph-name="registered" unicode="&#xae;" horiz-adv-x="480" 
d="M285 518q9 0 15 9t6 23q0 11 -6.5 17t-14.5 6h-16v-55h16zM311 371l-33 93h-9v-93h-71v266h90q16 0 31.5 -4t28 -14t20 -26.5t7.5 -41.5q0 -26 -7.5 -46t-25.5 -28l44 -106h-75zM280 274q-38 0 -69 15.5t-53.5 45t-35 71t-12.5 93.5t12.5 93.5t35 70.5t53.5 45t69 16
t69 -16t53.5 -45t35 -70.5t12.5 -93.5t-12.5 -93.5t-35 -71t-53.5 -45t-69 -15.5zM280 698q-32 0 -58 -15t-44 -41.5t-27.5 -63t-9.5 -79.5t9.5 -79.5t27.5 -63t44 -41.5t58 -15t58 15t44 41.5t27.5 63t9.5 79.5t-9.5 79.5t-27.5 63t-44 41.5t-58 15z" />
    <glyph glyph-name="macron" unicode="&#xaf;" horiz-adv-x="265" 
d="M349 623h-294l13 79h295z" />
    <glyph glyph-name="degree" unicode="&#xb0;" horiz-adv-x="314" 
d="M346 599q0 -36 -10.5 -73.5t-30.5 -67.5t-48 -49.5t-64 -19.5q-27 0 -47 10.5t-34 28.5t-21 41.5t-7 50.5q0 37 10.5 74t30 67t48.5 48.5t65 18.5q27 0 47 -10t33.5 -27.5t20.5 -41t7 -50.5zM284 593q0 34 -13.5 55t-39.5 21q-20 0 -35.5 -13.5t-26 -34.5t-16.5 -46.5
t-6 -49.5q0 -35 13 -56t39 -21q18 0 33.5 13t27 34t18 46.5t6.5 51.5z" />
    <glyph glyph-name="plusminus" unicode="&#xb1;" 
d="M404 331v-132h-130v132h-213v127h213v132h130v-132h212v-127h-212zM61 31v127h555v-127h-555z" />
    <glyph glyph-name="twosuperior" unicode="&#xb2;" horiz-adv-x="323" 
d="M363 605q0 -23 -6 -42.5t-17 -37.5t-27.5 -35.5t-38.5 -38.5l-96 -90h143l-15 -92h-270l16 94l160 152q26 25 36.5 42.5t10.5 36.5q0 13 -7.5 24t-24.5 11q-18 0 -30 -14.5t-17 -37.5l-99 13q16 64 57.5 96.5t101.5 32.5q54 0 88.5 -29t34.5 -85z" />
    <glyph glyph-name="threesuperior" unicode="&#xb3;" horiz-adv-x="323" 
d="M355 614q0 -40 -21.5 -72t-56.5 -41l-1 -2q26 -8 39.5 -32.5t13.5 -53.5q0 -37 -12.5 -65.5t-34.5 -48.5t-50.5 -30.5t-59.5 -10.5q-63 0 -96 31.5t-43 77.5l94 25q5 -17 16 -30t31 -13q24 0 38.5 16.5t14.5 45.5q0 20 -14 32.5t-36 12.5h-23l13 80h26q26 0 43 16t17 45
q0 13 -9 24t-27 11t-29 -11.5t-19 -25.5l-85 26q22 55 62.5 78t85.5 23q24 0 46 -6.5t39.5 -19.5t27.5 -33.5t10 -48.5z" />
    <glyph glyph-name="acute" unicode="&#xb4;" horiz-adv-x="265" 
d="M222 590h-101l112 144h127z" />
    <glyph glyph-name="mu" unicode="&#xb5;" 
d="M306 498l-52 -248q-4 -17 -6 -38.5t2 -40.5t16.5 -32t37.5 -13t44.5 9t33.5 24t23 35t14 43l55 261h162l-105 -498h-155l12 57h-1q-21 -26 -50.5 -45t-74.5 -19q-18 0 -34 5t-25 15l-51 -239h-162l154 724h162z" />
    <glyph glyph-name="paragraph" unicode="&#xb6;" horiz-adv-x="618" 
d="M439 -129v737h-85v-737h-116v464q-49 1 -88.5 14.5t-67.5 37.5t-43 57t-15 74q0 54 19 90.5t52 58.5t77.5 31.5t95.5 9.5h287v-837h-116z" />
    <glyph glyph-name="periodcentered" unicode="&#xb7;" horiz-adv-x="262" 
d="M220 277q0 -42 -26.5 -70t-65.5 -28q-37 0 -56 23t-19 53q0 19 6.5 36.5t18.5 31.5t28.5 22.5t36.5 8.5q38 0 57.5 -22.5t19.5 -54.5z" />
    <glyph glyph-name="cedilla" unicode="&#xb8;" horiz-adv-x="265" 
d="M186 -135q0 -28 -14 -47.5t-35 -31.5t-46 -17t-48 -5q-25 0 -56 6t-53 17l34 60q14 -8 34 -11.5t37 -3.5q19 0 34.5 6.5t15.5 23.5q0 14 -9.5 20t-25.5 6q-22 0 -41 -6l-25 26l79 92h80l-55 -62q5 1 10 1.5t12 0.5q12 0 25 -4t23.5 -13t17 -23t6.5 -35z" />
    <glyph glyph-name="onesuperior" unicode="&#xb9;" horiz-adv-x="323" 
d="M250 266h-108l58 324l-74 -45l-34 79l143 84h92z" />
    <glyph glyph-name="ordmasculine" unicode="&#xba;" horiz-adv-x="318" 
d="M349 593q0 -40 -10 -77t-29.5 -66t-48.5 -46.5t-67 -17.5q-56 0 -83.5 37t-27.5 91q0 41 11 78.5t31.5 66t49.5 45.5t64 17q56 0 83 -36.5t27 -91.5zM260 590q0 22 -7 35.5t-23 13.5q-14 0 -25 -13t-18 -31.5t-10.5 -40t-3.5 -38.5q0 -22 7.5 -35.5t22.5 -13.5
q14 0 25 12.5t18 31.5t10.5 40t3.5 39z" />
    <glyph glyph-name="guillemotright" unicode="&#xbb;" horiz-adv-x="410" 
d="M236 38l-71 43l122 189l-55 190l82 33l68 -231zM75 38l-70 43l122 189l-55 190l82 33l68 -231z" />
    <glyph glyph-name="onequarter" unicode="&#xbc;" horiz-adv-x="748" 
d="M626 0h-90l16 92h-166l15 84l176 270h127l-48 -274h47l-14 -80h-47zM599 347l-107 -175h76l32 175h-1zM250 266h-108l58 324l-74 -45l-34 79l143 84h92zM224 -19l-59 22l403 734l58 -24z" />
    <glyph glyph-name="onehalf" unicode="&#xbd;" horiz-adv-x="748" 
d="M739 335q0 -23 -6 -42t-17 -37t-27.5 -35.5t-38.5 -38.5l-96 -91h143l-15 -91h-270l16 94l160 152q26 25 36.5 42.5t10.5 36.5q0 12 -7.5 23t-24.5 11q-18 0 -30 -14.5t-17 -37.5l-99 14q16 64 57.5 96.5t101.5 32.5q54 0 88.5 -29t34.5 -86zM250 266h-108l58 324
l-74 -45l-34 79l143 84h92zM224 -19l-59 22l403 734l58 -24z" />
    <glyph glyph-name="threequarters" unicode="&#xbe;" horiz-adv-x="748" 
d="M626 0h-90l16 92h-166l15 84l176 270h127l-48 -274h47l-14 -80h-47zM599 347l-107 -175h76l32 175h-1zM355 614q0 -40 -21.5 -72t-56.5 -41l-1 -2q26 -8 39.5 -32.5t13.5 -53.5q0 -37 -12.5 -65.5t-34.5 -48.5t-50.5 -30.5t-59.5 -10.5q-63 0 -96 31.5t-43 77.5l94 25
q5 -17 16 -30t31 -13q24 0 38.5 16.5t14.5 45.5q0 20 -14 32.5t-36 12.5h-23l13 80h26q26 0 43 16t17 45q0 13 -9 24t-27 11t-29 -11.5t-19 -25.5l-85 26q22 55 62.5 78t85.5 23q24 0 46 -6.5t39.5 -19.5t27.5 -33.5t10 -48.5zM224 -19l-59 22l403 734l58 -24z" />
    <glyph glyph-name="questiondown" unicode="&#xbf;" horiz-adv-x="418" 
d="M352 -20q-9 -33 -26.5 -64t-44.5 -55t-63 -39t-82 -15q-41 0 -72.5 12.5t-54 34.5t-34 51.5t-11.5 64.5q0 37 9.5 66.5t27 53.5t40.5 45.5t50 42.5q30 24 42.5 44.5t17.5 46.5l5 30h123l-7 -43q-8 -51 -32 -87t-62 -69l-21 -18q-23 -20 -38 -41t-15 -51q0 -26 13.5 -41.5
t38.5 -15.5q18 0 32 7.5t23.5 19t16 25.5t9.5 26zM319 469q0 -19 -6.5 -36.5t-18.5 -31.5t-28.5 -22.5t-35.5 -8.5q-38 0 -57.5 22.5t-19.5 54.5q0 42 26.5 70t64.5 28q37 0 56 -23.5t19 -52.5z" />
    <glyph glyph-name="Agrave" unicode="&#xc0;" horiz-adv-x="541" 
d="M342 0l-3 133h-165l-53 -133h-160l307 708h193l37 -708h-156zM335 555h-4l-117 -304h127zM347 764l-128 144h126l103 -144h-101z" />
    <glyph glyph-name="Aacute" unicode="&#xc1;" horiz-adv-x="541" 
d="M342 0l-3 133h-165l-53 -133h-160l307 708h193l37 -708h-156zM335 555h-4l-117 -304h127zM398 765h-101l112 144h127z" />
    <glyph glyph-name="Acircumflex" unicode="&#xc2;" horiz-adv-x="541" 
d="M342 0l-3 133h-165l-53 -133h-160l307 708h193l37 -708h-156zM335 555h-4l-117 -304h127zM440 764l-52 83l-78 -83h-110l140 144h116l88 -144h-104z" />
    <glyph glyph-name="Atilde" unicode="&#xc3;" horiz-adv-x="541" 
d="M342 0l-3 133h-165l-53 -133h-160l307 708h193l37 -708h-156zM335 555h-4l-117 -304h127zM536 892q-11 -56 -40 -90t-69 -34q-36 0 -69 23q-20 14 -29.5 18t-22.5 4q-14 0 -24.5 -11t-15.5 -29h-60q11 54 39.5 88t69.5 34q20 0 36 -6t33 -18q20 -13 30 -17.5t24 -4.5
q29 0 39 43h59z" />
    <glyph glyph-name="Adieresis" unicode="&#xc4;" horiz-adv-x="541" 
d="M342 0l-3 133h-165l-53 -133h-160l307 708h193l37 -708h-156zM335 555h-4l-117 -304h127zM539 851q0 -35 -21.5 -58t-53.5 -23q-31 0 -47 19.5t-16 43.5q0 16 5.5 30.5t15.5 25.5t24 18t30 7q31 0 47 -18t16 -45zM353 851q0 -35 -21.5 -58t-53.5 -23q-30 0 -46 19.5
t-16 43.5q0 32 21 56.5t54 24.5q30 0 46 -18t16 -45z" />
    <glyph glyph-name="Aring" unicode="&#xc5;" horiz-adv-x="541" 
d="M342 0l-3 133h-165l-53 -133h-160l307 708h193l37 -708h-156zM335 555h-4l-117 -304h127zM481 871q0 -25 -8.5 -47.5t-24 -39.5t-36 -27t-44.5 -10q-42 0 -64.5 25t-22.5 63q0 26 8.5 49t23 40.5t34 28t42.5 10.5q46 0 69 -27t23 -65zM436 867q0 21 -11.5 37.5
t-36.5 16.5q-30 0 -46.5 -25.5t-16.5 -56.5q0 -21 11.5 -36t35.5 -15q14 0 26 7t20.5 18t13 25t4.5 29z" />
    <glyph glyph-name="AE" unicode="&#xc6;" horiz-adv-x="711" 
d="M725 573h-178l-26 -147h165l-21 -126h-165l-28 -162h195l-24 -138h-339l23 132h-143l-67 -132h-161l369 708h424zM399 572l-158 -315h108l56 315h-6z" />
    <glyph glyph-name="Ccedilla" unicode="&#xc7;" horiz-adv-x="503" 
d="M366 -135q0 -28 -14 -47.5t-35 -31.5t-46 -17t-48 -5q-25 0 -56 6t-53 17l34 60q14 -8 34 -11.5t37 -3.5q19 0 34.5 6.5t15.5 23.5q0 14 -9.5 20t-25.5 6q-22 0 -41 -6l-25 26l66 78q-46 7 -81 29.5t-59 57.5t-36 81.5t-12 101.5q0 90 24.5 175t69.5 150.5t107.5 105
t137.5 39.5q72 0 115.5 -24t68.5 -59l-105 -114q-14 23 -34 36t-52 13q-40 0 -72 -29t-54 -73t-33.5 -97.5t-11.5 -102.5q0 -64 23 -104.5t74 -40.5q34 0 57 15.5t39 32.5l71 -114q-30 -31 -68.5 -52.5t-89.5 -28.5l-41 -46q5 1 10 1.5t12 0.5q12 0 25 -4t23.5 -13t17 -23
t6.5 -35z" />
    <glyph glyph-name="Egrave" unicode="&#xc8;" horiz-adv-x="440" 
d="M455 573h-185l-26 -147h173l-22 -126h-172l-28 -162h202l-24 -138h-349l123 708h331zM278 764l-128 144h126l103 -144h-101z" />
    <glyph glyph-name="Eacute" unicode="&#xc9;" horiz-adv-x="440" 
d="M455 573h-185l-26 -147h173l-22 -126h-172l-28 -162h202l-24 -138h-349l123 708h331zM359 765h-101l112 144h127z" />
    <glyph glyph-name="Ecircumflex" unicode="&#xca;" horiz-adv-x="440" 
d="M455 573h-185l-26 -147h173l-22 -126h-172l-28 -162h202l-24 -138h-349l123 708h331zM384 764l-52 83l-78 -83h-110l140 144h116l88 -144h-104z" />
    <glyph glyph-name="Edieresis" unicode="&#xcb;" horiz-adv-x="440" 
d="M455 573h-185l-26 -147h173l-22 -126h-172l-28 -162h202l-24 -138h-349l123 708h331zM491 851q0 -35 -21.5 -58t-53.5 -23q-31 0 -47 19.5t-16 43.5q0 16 5.5 30.5t15.5 25.5t24 18t30 7q31 0 47 -18t16 -45zM305 851q0 -35 -21.5 -58t-53.5 -23q-30 0 -46 19.5t-16 43.5
q0 32 21 56.5t54 24.5q30 0 46 -18t16 -45z" />
    <glyph glyph-name="Igrave" unicode="&#xcc;" horiz-adv-x="283" 
d="M179 0h-155l123 708h155zM194 764l-128 144h126l103 -144h-101z" />
    <glyph glyph-name="Iacute" unicode="&#xcd;" horiz-adv-x="283" 
d="M179 0h-155l123 708h155zM264 765h-101l112 144h127z" />
    <glyph glyph-name="Icircumflex" unicode="&#xce;" horiz-adv-x="283" 
d="M179 0h-155l123 708h155zM301 764l-52 83l-78 -83h-110l140 144h116l88 -144h-104z" />
    <glyph glyph-name="Idieresis" unicode="&#xcf;" horiz-adv-x="283" 
d="M179 0h-155l123 708h155zM406 851q0 -35 -21.5 -58t-53.5 -23q-31 0 -47 19.5t-16 43.5q0 16 5.5 30.5t15.5 25.5t24 18t30 7q31 0 47 -18t16 -45zM220 851q0 -35 -21.5 -58t-53.5 -23q-30 0 -46 19.5t-16 43.5q0 32 21 56.5t54 24.5q30 0 46 -18t16 -45z" />
    <glyph glyph-name="Eth" unicode="&#xd0;" horiz-adv-x="582" 
d="M580 432q0 -75 -18 -152t-59 -139t-108 -101.5t-166 -39.5h-205l54 312h-49l18 98h48l52 298h187q66 0 113 -20t76.5 -56.5t43 -87.5t13.5 -112zM423 419q0 33 -5.5 61.5t-18 49t-32 32.5t-47.5 12h-43l-28 -164h90l-18 -98h-89l-31 -178h45q44 0 77 26t55.5 67
t33.5 91.5t11 100.5z" />
    <glyph glyph-name="Ntilde" unicode="&#xd1;" horiz-adv-x="599" 
d="M495 0h-165l-93 441h-3l-72 -441h-138l123 708h169l89 -447h4l74 447h135zM566 892q-11 -56 -40 -90t-69 -34q-36 0 -69 23q-20 14 -29.5 18t-22.5 4q-14 0 -24.5 -11t-15.5 -29h-60q11 54 39.5 88t69.5 34q20 0 36 -6t33 -18q20 -13 30 -17.5t24 -4.5q29 0 39 43h59z
" />
    <glyph glyph-name="Ograve" unicode="&#xd2;" horiz-adv-x="607" 
d="M604 454q0 -87 -23 -171.5t-65.5 -151.5t-104 -108t-138.5 -41q-54 0 -96.5 19.5t-71.5 55t-44 85t-15 110.5q0 87 22.5 172t65 152t104 108.5t139.5 41.5q57 0 99.5 -19.5t71 -55.5t42.5 -86t14 -111zM445 432q0 28 -4 55t-13.5 47t-25.5 32.5t-40 12.5q-38 0 -67.5 -31
t-49.5 -78t-30 -102t-10 -102q0 -28 4.5 -53t14 -43.5t26 -29t40.5 -10.5q36 0 65 29t49 74t30.5 98t10.5 101zM347 764l-128 144h126l103 -144h-101z" />
    <glyph glyph-name="Oacute" unicode="&#xd3;" horiz-adv-x="607" 
d="M604 454q0 -87 -23 -171.5t-65.5 -151.5t-104 -108t-138.5 -41q-54 0 -96.5 19.5t-71.5 55t-44 85t-15 110.5q0 87 22.5 172t65 152t104 108.5t139.5 41.5q57 0 99.5 -19.5t71 -55.5t42.5 -86t14 -111zM445 432q0 28 -4 55t-13.5 47t-25.5 32.5t-40 12.5q-38 0 -67.5 -31
t-49.5 -78t-30 -102t-10 -102q0 -28 4.5 -53t14 -43.5t26 -29t40.5 -10.5q36 0 65 29t49 74t30.5 98t10.5 101zM430 765h-101l112 144h127z" />
    <glyph glyph-name="Ocircumflex" unicode="&#xd4;" horiz-adv-x="607" 
d="M604 454q0 -87 -23 -171.5t-65.5 -151.5t-104 -108t-138.5 -41q-54 0 -96.5 19.5t-71.5 55t-44 85t-15 110.5q0 87 22.5 172t65 152t104 108.5t139.5 41.5q57 0 99.5 -19.5t71 -55.5t42.5 -86t14 -111zM445 432q0 28 -4 55t-13.5 47t-25.5 32.5t-40 12.5q-38 0 -67.5 -31
t-49.5 -78t-30 -102t-10 -102q0 -28 4.5 -53t14 -43.5t26 -29t40.5 -10.5q36 0 65 29t49 74t30.5 98t10.5 101zM458 764l-52 83l-78 -83h-110l140 144h116l88 -144h-104z" />
    <glyph glyph-name="Otilde" unicode="&#xd5;" horiz-adv-x="607" 
d="M604 454q0 -87 -23 -171.5t-65.5 -151.5t-104 -108t-138.5 -41q-54 0 -96.5 19.5t-71.5 55t-44 85t-15 110.5q0 87 22.5 172t65 152t104 108.5t139.5 41.5q57 0 99.5 -19.5t71 -55.5t42.5 -86t14 -111zM445 432q0 28 -4 55t-13.5 47t-25.5 32.5t-40 12.5q-38 0 -67.5 -31
t-49.5 -78t-30 -102t-10 -102q0 -28 4.5 -53t14 -43.5t26 -29t40.5 -10.5q36 0 65 29t49 74t30.5 98t10.5 101zM571 892q-11 -56 -40 -90t-69 -34q-36 0 -69 23q-20 14 -29.5 18t-22.5 4q-14 0 -24.5 -11t-15.5 -29h-60q11 54 39.5 88t69.5 34q20 0 36 -6t33 -18
q20 -13 30 -17.5t24 -4.5q29 0 39 43h59z" />
    <glyph glyph-name="Odieresis" unicode="&#xd6;" horiz-adv-x="607" 
d="M604 454q0 -87 -23 -171.5t-65.5 -151.5t-104 -108t-138.5 -41q-54 0 -96.5 19.5t-71.5 55t-44 85t-15 110.5q0 87 22.5 172t65 152t104 108.5t139.5 41.5q57 0 99.5 -19.5t71 -55.5t42.5 -86t14 -111zM445 432q0 28 -4 55t-13.5 47t-25.5 32.5t-40 12.5q-38 0 -67.5 -31
t-49.5 -78t-30 -102t-10 -102q0 -28 4.5 -53t14 -43.5t26 -29t40.5 -10.5q36 0 65 29t49 74t30.5 98t10.5 101zM570 851q0 -35 -21.5 -58t-53.5 -23q-31 0 -47 19.5t-16 43.5q0 16 5.5 30.5t15.5 25.5t24 18t30 7q31 0 47 -18t16 -45zM384 851q0 -35 -21.5 -58t-53.5 -23
q-30 0 -46 19.5t-16 43.5q0 32 21 56.5t54 24.5q30 0 46 -18t16 -45z" />
    <glyph glyph-name="multiply" unicode="&#xd7;" 
d="M510 37l-177 173l-176 -173l-93 89l177 175l-178 174l94 91l177 -173l174 172l91 -87l-174 -173l179 -175z" />
    <glyph glyph-name="Oslash" unicode="&#xd8;" horiz-adv-x="607" 
d="M604 454q0 -87 -23 -171.5t-65.5 -151.5t-104 -108t-138.5 -41q-42 0 -76.5 11.5t-61.5 32.5l-47 -72l-66 34l64 94q-40 69 -40 170q0 87 22.5 172t65 152t104 108.5t139.5 41.5q44 0 78.5 -12t61.5 -34l53 81l65 -33l-70 -103q39 -68 39 -171zM200 264v-16.5t1 -16.5
l220 323q-21 30 -58 30q-39 0 -69.5 -32t-51.5 -80t-31.5 -104t-10.5 -104zM449 434q0 9 -0.5 18.5t-1.5 18.5l-219 -318q22 -27 60 -27t68 30t50.5 75.5t31.5 99.5t11 103z" />
    <glyph glyph-name="Ugrave" unicode="&#xd9;" horiz-adv-x="576" 
d="M531 262q-11 -59 -29 -110t-49 -89t-77 -59.5t-113 -21.5q-54 0 -94 15t-66.5 42t-39.5 63.5t-13 80.5q0 18 1.5 38t5.5 41l78 446h155l-76 -434q-3 -17 -5 -33.5t-2 -30.5q0 -35 14.5 -58t51.5 -23q26 0 44 11.5t30 31t20 46t13 56.5l75 434h154zM346 764l-128 144h126
l103 -144h-101z" />
    <glyph glyph-name="Uacute" unicode="&#xda;" horiz-adv-x="576" 
d="M531 262q-11 -59 -29 -110t-49 -89t-77 -59.5t-113 -21.5q-54 0 -94 15t-66.5 42t-39.5 63.5t-13 80.5q0 18 1.5 38t5.5 41l78 446h155l-76 -434q-3 -17 -5 -33.5t-2 -30.5q0 -35 14.5 -58t51.5 -23q26 0 44 11.5t30 31t20 46t13 56.5l75 434h154zM413 765h-101l112 144
h127z" />
    <glyph glyph-name="Ucircumflex" unicode="&#xdb;" horiz-adv-x="576" 
d="M531 262q-11 -59 -29 -110t-49 -89t-77 -59.5t-113 -21.5q-54 0 -94 15t-66.5 42t-39.5 63.5t-13 80.5q0 18 1.5 38t5.5 41l78 446h155l-76 -434q-3 -17 -5 -33.5t-2 -30.5q0 -35 14.5 -58t51.5 -23q26 0 44 11.5t30 31t20 46t13 56.5l75 434h154zM454 764l-52 83
l-78 -83h-110l140 144h116l88 -144h-104z" />
    <glyph glyph-name="Udieresis" unicode="&#xdc;" horiz-adv-x="576" 
d="M531 262q-11 -59 -29 -110t-49 -89t-77 -59.5t-113 -21.5q-54 0 -94 15t-66.5 42t-39.5 63.5t-13 80.5q0 18 1.5 38t5.5 41l78 446h155l-76 -434q-3 -17 -5 -33.5t-2 -30.5q0 -35 14.5 -58t51.5 -23q26 0 44 11.5t30 31t20 46t13 56.5l75 434h154zM553 851
q0 -35 -21.5 -58t-53.5 -23q-31 0 -47 19.5t-16 43.5q0 16 5.5 30.5t15.5 25.5t24 18t30 7q31 0 47 -18t16 -45zM367 851q0 -35 -21.5 -58t-53.5 -23q-30 0 -46 19.5t-16 43.5q0 32 21 56.5t54 24.5q30 0 46 -18t16 -45z" />
    <glyph glyph-name="Yacute" unicode="&#xdd;" horiz-adv-x="493" 
d="M321 256l-45 -256h-155l45 256l-96 452h162l37 -294h3l140 294h167zM362 765h-101l112 144h127z" />
    <glyph glyph-name="Thorn" unicode="&#xde;" horiz-adv-x="515" 
d="M523 413q0 -63 -18.5 -112t-51.5 -82t-78.5 -50t-99.5 -17h-72l-29 -152h-150l123 708h151l-18 -111h52q36 0 70.5 -10t61.5 -32.5t43 -57.5t16 -84zM377 391q0 36 -18.5 56t-50.5 20h-51l-32 -191h53q45 0 72 31t27 84z" />
    <glyph glyph-name="germandbls" unicode="&#xdf;" horiz-adv-x="512" 
d="M522 597q0 -32 -8 -61t-24 -53.5t-40 -42.5t-56 -27q42 -14 69 -54.5t27 -104.5q0 -48 -13 -95t-41.5 -84.5t-73 -61t-106.5 -23.5q-17 0 -33 3t-26 6l22 124q16 -6 32 -6q26 0 45 11.5t31.5 31t18.5 43.5t6 50q0 43 -20 68t-54 25h-17l22 121h16q16 0 31.5 7.5t28 21.5
t20 33.5t7.5 44.5q0 24 -11 45t-42 21q-20 0 -34.5 -11t-24 -29t-16 -41t-10.5 -48l-89 -511h-143l86 498q10 55 27 104t45.5 86t70 58.5t98.5 21.5q49 0 83.5 -14t55.5 -37.5t30.5 -54.5t9.5 -65z" />
    <glyph glyph-name="agrave" unicode="&#xe0;" horiz-adv-x="448" 
d="M255 589l-128 144h126l103 -144h-101zM419 381q0 -40 -9 -88l-33 -191q-2 -11 -4 -26t-4 -29.5t-3.5 -27.5t-1.5 -19h-122q1 12 3.5 32t5.5 33h-3q-17 -35 -46 -56.5t-76 -21.5q-21 0 -41.5 8t-37 24t-26.5 40.5t-10 57.5q0 57 20 96.5t53.5 64t78 35.5t93.5 11h25
q5 23 5 34q0 54 -51 54q-28 0 -53.5 -12.5t-44.5 -29.5l-56 93q35 33 82 53t95 20q85 0 123 -41.5t38 -113.5zM242 229q-20 0 -39 -4.5t-33.5 -15t-23 -26.5t-8.5 -38q0 -24 11.5 -36t28.5 -12q18 0 32.5 9.5t25 25t17.5 34.5t11 38l5 25h-27z" />
    <glyph glyph-name="aacute" unicode="&#xe1;" horiz-adv-x="448" 
d="M307 590h-101l112 144h127zM419 381q0 -40 -9 -88l-33 -191q-2 -11 -4 -26t-4 -29.5t-3.5 -27.5t-1.5 -19h-122q1 12 3.5 32t5.5 33h-3q-17 -35 -46 -56.5t-76 -21.5q-21 0 -41.5 8t-37 24t-26.5 40.5t-10 57.5q0 57 20 96.5t53.5 64t78 35.5t93.5 11h25q5 23 5 34
q0 54 -51 54q-28 0 -53.5 -12.5t-44.5 -29.5l-56 93q35 33 82 53t95 20q85 0 123 -41.5t38 -113.5zM242 229q-20 0 -39 -4.5t-33.5 -15t-23 -26.5t-8.5 -38q0 -24 11.5 -36t28.5 -12q18 0 32.5 9.5t25 25t17.5 34.5t11 38l5 25h-27z" />
    <glyph glyph-name="acircumflex" unicode="&#xe2;" horiz-adv-x="448" 
d="M345 589l-52 83l-78 -83h-110l140 144h116l88 -144h-104zM419 381q0 -40 -9 -88l-33 -191q-2 -11 -4 -26t-4 -29.5t-3.5 -27.5t-1.5 -19h-122q1 12 3.5 32t5.5 33h-3q-17 -35 -46 -56.5t-76 -21.5q-21 0 -41.5 8t-37 24t-26.5 40.5t-10 57.5q0 57 20 96.5t53.5 64
t78 35.5t93.5 11h25q5 23 5 34q0 54 -51 54q-28 0 -53.5 -12.5t-44.5 -29.5l-56 93q35 33 82 53t95 20q85 0 123 -41.5t38 -113.5zM242 229q-20 0 -39 -4.5t-33.5 -15t-23 -26.5t-8.5 -38q0 -24 11.5 -36t28.5 -12q18 0 32.5 9.5t25 25t17.5 34.5t11 38l5 25h-27z" />
    <glyph glyph-name="atilde" unicode="&#xe3;" horiz-adv-x="448" 
d="M447 717q-11 -56 -40 -90t-69 -34q-36 0 -69 23q-20 14 -29.5 18t-22.5 4q-14 0 -24.5 -11t-15.5 -29h-60q10 54 40 88q14 16 31.5 25t37.5 9t36 -6t33 -18q20 -13 30 -17.5t24 -4.5q29 0 39 43h59zM419 381q0 -40 -9 -88l-33 -191q-2 -11 -4 -26t-4 -29.5t-3.5 -27.5
t-1.5 -19h-122q1 12 3.5 32t5.5 33h-3q-17 -35 -46 -56.5t-76 -21.5q-21 0 -41.5 8t-37 24t-26.5 40.5t-10 57.5q0 57 20 96.5t53.5 64t78 35.5t93.5 11h25q5 23 5 34q0 54 -51 54q-28 0 -53.5 -12.5t-44.5 -29.5l-56 93q35 33 82 53t95 20q85 0 123 -41.5t38 -113.5z
M242 229q-20 0 -39 -4.5t-33.5 -15t-23 -26.5t-8.5 -38q0 -24 11.5 -36t28.5 -12q18 0 32.5 9.5t25 25t17.5 34.5t11 38l5 25h-27z" />
    <glyph glyph-name="adieresis" unicode="&#xe4;" horiz-adv-x="448" 
d="M419 381q0 -40 -9 -88l-33 -191q-2 -11 -4 -26t-4 -29.5t-3.5 -27.5t-1.5 -19h-122q1 12 3.5 32t5.5 33h-3q-17 -35 -46 -56.5t-76 -21.5q-21 0 -41.5 8t-37 24t-26.5 40.5t-10 57.5q0 57 20 96.5t53.5 64t78 35.5t93.5 11h25q5 23 5 34q0 54 -51 54q-28 0 -53.5 -12.5
t-44.5 -29.5l-56 93q35 33 82 53t95 20q85 0 123 -41.5t38 -113.5zM242 229q-20 0 -39 -4.5t-33.5 -15t-23 -26.5t-8.5 -38q0 -24 11.5 -36t28.5 -12q18 0 32.5 9.5t25 25t17.5 34.5t11 38l5 25h-27zM449 676q0 -35 -21.5 -58t-53.5 -23q-31 0 -47 19.5t-16 43.5
q0 16 5.5 30.5t15.5 26t24 18.5t30 7q31 0 47 -18.5t16 -45.5zM263 676q0 -35 -21.5 -58t-53.5 -23q-30 0 -46 19.5t-16 43.5q0 16 5.5 30.5t15.5 26t23.5 18.5t30.5 7q30 0 46 -18.5t16 -45.5z" />
    <glyph glyph-name="aring" unicode="&#xe5;" horiz-adv-x="448" 
d="M390 696q0 -25 -8.5 -47.5t-24 -39.5t-36 -27t-44.5 -10q-42 0 -64.5 25t-22.5 63q0 26 8.5 49.5t23 41t34 27.5t42.5 10q46 0 69 -27t23 -65zM345 692q0 21 -11.5 37.5t-36.5 16.5q-30 0 -46.5 -25.5t-16.5 -56.5q0 -21 11.5 -36t35.5 -15q14 0 26 7t20.5 18t13 25
t4.5 29zM419 381q0 -40 -9 -88l-33 -191q-2 -11 -4 -26t-4 -29.5t-3.5 -27.5t-1.5 -19h-122q1 12 3.5 32t5.5 33h-3q-17 -35 -46 -56.5t-76 -21.5q-21 0 -41.5 8t-37 24t-26.5 40.5t-10 57.5q0 57 20 96.5t53.5 64t78 35.5t93.5 11h25q5 23 5 34q0 54 -51 54
q-28 0 -53.5 -12.5t-44.5 -29.5l-56 93q35 33 82 53t95 20q85 0 123 -41.5t38 -113.5zM242 229q-20 0 -39 -4.5t-33.5 -15t-23 -26.5t-8.5 -38q0 -24 11.5 -36t28.5 -12q18 0 32.5 9.5t25 25t17.5 34.5t11 38l5 25h-27z" />
    <glyph glyph-name="ae" unicode="&#xe6;" horiz-adv-x="695" 
d="M678 353q0 -20 -3.5 -52t-12.5 -74h-260q-2 -11 -2.5 -19t-0.5 -16q0 -35 15 -57.5t45 -22.5q27 0 45.5 17.5t31.5 39.5l100 -65q-27 -50 -76 -85t-117 -35q-51 0 -87.5 28.5t-47.5 72.5q-21 -45 -61.5 -73t-106.5 -28q-25 0 -48 8t-41 24t-29 41t-11 58q0 57 19.5 95.5
t53 62t78 34t93.5 10.5h25q4 15 5 26.5t1 16.5q0 54 -51 54q-28 0 -53.5 -12.5t-44.5 -29.5l-56 93q35 33 82 52t95 19q58 0 85.5 -23.5t33.5 -59.5q20 38 56.5 60.5t76.5 22.5q45 0 77 -14t52.5 -38.5t29.5 -58t9 -72.5zM550 355q0 32 -11.5 50.5t-35.5 18.5q-17 0 -31 -10
t-24.5 -25.5t-18 -34.5t-10.5 -37h127q2 6 3 18t1 20zM241 222q-20 0 -38.5 -4t-33 -13.5t-23 -24t-8.5 -35.5q0 -24 11.5 -36t28.5 -12q18 0 32.5 9.5t25 24t17.5 32t10 34.5l5 25h-27z" />
    <glyph glyph-name="ccedilla" unicode="&#xe7;" horiz-adv-x="352" 
d="M282 -135q0 -28 -14 -47.5t-35 -31.5t-46 -17t-48 -5q-25 0 -56 6t-53 17l34 60q14 -8 34 -11.5t37 -3.5q19 0 34.5 6.5t15.5 23.5q0 14 -9.5 20t-25.5 6q-22 0 -41 -6l-25 26l70 82q-65 17 -94.5 71.5t-29.5 128.5q0 63 17 124.5t49.5 111t78.5 80t105 30.5q48 0 76 -12
t45 -28l-75 -114q-8 9 -19 15t-30 6q-24 0 -43.5 -19t-33 -47.5t-20.5 -63.5t-7 -66q0 -42 14.5 -65.5t46.5 -23.5q16 0 28.5 5.5t24.5 13.5l38 -115q-17 -14 -41.5 -24t-53.5 -13l-42 -47q5 1 10 1.5t12 0.5q12 0 25 -4t23.5 -13t17 -23t6.5 -35z" />
    <glyph glyph-name="egrave" unicode="&#xe8;" horiz-adv-x="465" 
d="M265 589l-128 144h126l103 -144h-101zM448 353q0 -20 -3 -52t-12 -76h-260q-3 -20 -3 -33q0 -35 15 -57.5t45 -22.5q27 0 45.5 17.5t31.5 39.5l100 -65q-27 -50 -76 -85t-117 -35q-88 0 -136 54.5t-48 151.5q0 70 19 133t52.5 110.5t79.5 75t99 27.5q45 0 77 -14
t52 -38.5t29.5 -58t9.5 -72.5zM321 355q0 32 -11.5 50.5t-35.5 18.5q-17 0 -31 -10t-24.5 -25.5t-18 -34.5t-10.5 -37h127q2 6 3 18t1 20z" />
    <glyph glyph-name="eacute" unicode="&#xe9;" horiz-adv-x="465" 
d="M334 590h-101l112 144h127zM448 353q0 -20 -3 -52t-12 -76h-260q-3 -20 -3 -33q0 -35 15 -57.5t45 -22.5q27 0 45.5 17.5t31.5 39.5l100 -65q-27 -50 -76 -85t-117 -35q-88 0 -136 54.5t-48 151.5q0 70 19 133t52.5 110.5t79.5 75t99 27.5q45 0 77 -14t52 -38.5t29.5 -58
t9.5 -72.5zM321 355q0 32 -11.5 50.5t-35.5 18.5q-17 0 -31 -10t-24.5 -25.5t-18 -34.5t-10.5 -37h127q2 6 3 18t1 20z" />
    <glyph glyph-name="ecircumflex" unicode="&#xea;" horiz-adv-x="465" 
d="M366 589l-52 83l-78 -83h-110l140 144h116l88 -144h-104zM448 353q0 -20 -3 -52t-12 -76h-260q-3 -20 -3 -33q0 -35 15 -57.5t45 -22.5q27 0 45.5 17.5t31.5 39.5l100 -65q-27 -50 -76 -85t-117 -35q-88 0 -136 54.5t-48 151.5q0 70 19 133t52.5 110.5t79.5 75t99 27.5
q45 0 77 -14t52 -38.5t29.5 -58t9.5 -72.5zM321 355q0 32 -11.5 50.5t-35.5 18.5q-17 0 -31 -10t-24.5 -25.5t-18 -34.5t-10.5 -37h127q2 6 3 18t1 20z" />
    <glyph glyph-name="edieresis" unicode="&#xeb;" horiz-adv-x="465" 
d="M448 353q0 -20 -3 -52t-12 -76h-260q-3 -20 -3 -33q0 -35 15 -57.5t45 -22.5q27 0 45.5 17.5t31.5 39.5l100 -65q-27 -50 -76 -85t-117 -35q-88 0 -136 54.5t-48 151.5q0 70 19 133t52.5 110.5t79.5 75t99 27.5q45 0 77 -14t52 -38.5t29.5 -58t9.5 -72.5zM321 355
q0 32 -11.5 50.5t-35.5 18.5q-17 0 -31 -10t-24.5 -25.5t-18 -34.5t-10.5 -37h127q2 6 3 18t1 20zM470 676q0 -35 -21.5 -58t-53.5 -23q-31 0 -47 19.5t-16 43.5q0 16 5.5 30.5t15.5 26t24 18.5t30 7q31 0 47 -18.5t16 -45.5zM284 676q0 -35 -21.5 -58t-53.5 -23
q-30 0 -46 19.5t-16 43.5q0 16 5.5 30.5t15.5 26t23.5 18.5t30.5 7q30 0 46 -18.5t16 -45.5z" />
    <glyph glyph-name="igrave" unicode="&#xec;" horiz-adv-x="266" 
d="M154 589l-128 144h126l103 -144h-101zM165 0h-146l90 520h146z" />
    <glyph glyph-name="iacute" unicode="&#xed;" horiz-adv-x="266" 
d="M219 590h-101l112 144h127zM165 0h-146l90 520h146z" />
    <glyph glyph-name="icircumflex" unicode="&#xee;" horiz-adv-x="266" 
d="M255 589l-52 83l-78 -83h-110l140 144h116l88 -144h-104zM165 0h-146l90 520h146z" />
    <glyph glyph-name="idieresis" unicode="&#xef;" horiz-adv-x="266" 
d="M357 676q0 -35 -21.5 -58t-53.5 -23q-31 0 -47 19.5t-16 43.5q0 16 5.5 30.5t15.5 26t24 18.5t30 7q31 0 47 -18.5t16 -45.5zM171 676q0 -35 -21.5 -58t-53.5 -23q-30 0 -46 19.5t-16 43.5q0 16 5.5 30.5t15.5 26t23.5 18.5t30.5 7q30 0 46 -18.5t16 -45.5zM165 0h-146
l90 520h146z" />
    <glyph glyph-name="eth" unicode="&#xf0;" horiz-adv-x="486" 
d="M392 661q16 -26 30.5 -59.5t25 -72.5t16.5 -82.5t6 -87.5q0 -67 -15 -134t-46.5 -120.5t-80.5 -87t-117 -33.5q-45 0 -78.5 15t-56.5 42t-34.5 64.5t-11.5 82.5q0 62 16 121.5t46.5 105.5t74.5 74t100 28q18 0 33.5 -5t24.5 -12l2 1q-9 29 -25 61.5t-34 55.5l-111 -49
l-45 52l115 52q-12 17 -31 34t-39 32l130 51q20 -18 37.5 -36t31.5 -37l103 47l50 -53zM327 322q0 40 -12.5 64.5t-40.5 24.5q-25 0 -44 -22t-31.5 -54.5t-19 -70t-6.5 -67.5q0 -39 11.5 -63t39.5 -24q25 0 44.5 21.5t32.5 53.5t19.5 69t6.5 68z" />
    <glyph glyph-name="ntilde" unicode="&#xf1;" horiz-adv-x="525" 
d="M489 717q-11 -56 -40 -90t-69 -34q-36 0 -69 23q-20 14 -29.5 18t-22.5 4q-14 0 -24.5 -11t-15.5 -29h-60q10 54 40 88q14 16 31.5 25t37.5 9t36 -6t33 -18q20 -13 30 -17.5t24 -4.5q29 0 39 43h59zM491 410q0 -19 -2.5 -43t-7.5 -48l-55 -319h-146l56 319q2 9 3 18.5
t1 18.5q0 21 -8.5 36t-32.5 15q-30 0 -51.5 -28.5t-29.5 -73.5l-53 -305h-146l69 393q2 12 5 30.5t5.5 37t5 34.5t3.5 25h138q-2 -14 -4.5 -35.5t-5.5 -40.5h2q20 39 55 65.5t83 26.5q31 0 53.5 -11.5t36 -29.5t20 -40.5t6.5 -44.5z" />
    <glyph glyph-name="ograve" unicode="&#xf2;" horiz-adv-x="488" 
d="M264 589l-128 144h126l103 -144h-101zM468 334q0 -68 -17 -131t-49 -111.5t-80 -78t-109 -29.5q-87 0 -135 55.5t-48 147.5q0 67 17.5 130t50.5 112t81 78t108 29q86 0 133.5 -55.5t47.5 -146.5zM327 322q0 40 -12.5 64.5t-40.5 24.5q-25 0 -44 -22t-31.5 -54.5t-19 -70
t-6.5 -67.5q0 -39 11.5 -63t39.5 -24q25 0 44.5 21.5t32.5 53.5t19.5 69t6.5 68z" />
    <glyph glyph-name="oacute" unicode="&#xf3;" horiz-adv-x="488" 
d="M336 590h-101l112 144h127zM468 334q0 -68 -17 -131t-49 -111.5t-80 -78t-109 -29.5q-87 0 -135 55.5t-48 147.5q0 67 17.5 130t50.5 112t81 78t108 29q86 0 133.5 -55.5t47.5 -146.5zM327 322q0 40 -12.5 64.5t-40.5 24.5q-25 0 -44 -22t-31.5 -54.5t-19 -70t-6.5 -67.5
q0 -39 11.5 -63t39.5 -24q25 0 44.5 21.5t32.5 53.5t19.5 69t6.5 68z" />
    <glyph glyph-name="ocircumflex" unicode="&#xf4;" horiz-adv-x="488" 
d="M373 589l-52 83l-78 -83h-110l140 144h116l88 -144h-104zM468 334q0 -68 -17 -131t-49 -111.5t-80 -78t-109 -29.5q-87 0 -135 55.5t-48 147.5q0 67 17.5 130t50.5 112t81 78t108 29q86 0 133.5 -55.5t47.5 -146.5zM327 322q0 40 -12.5 64.5t-40.5 24.5q-25 0 -44 -22
t-31.5 -54.5t-19 -70t-6.5 -67.5q0 -39 11.5 -63t39.5 -24q25 0 44.5 21.5t32.5 53.5t19.5 69t6.5 68z" />
    <glyph glyph-name="otilde" unicode="&#xf5;" horiz-adv-x="488" 
d="M480 717q-11 -56 -40 -90t-69 -34q-36 0 -69 23q-20 14 -29.5 18t-22.5 4q-14 0 -24.5 -11t-15.5 -29h-60q10 54 40 88q14 16 31.5 25t37.5 9t36 -6t33 -18q20 -13 30 -17.5t24 -4.5q29 0 39 43h59zM468 334q0 -68 -17 -131t-49 -111.5t-80 -78t-109 -29.5
q-87 0 -135 55.5t-48 147.5q0 67 17.5 130t50.5 112t81 78t108 29q86 0 133.5 -55.5t47.5 -146.5zM327 322q0 40 -12.5 64.5t-40.5 24.5q-25 0 -44 -22t-31.5 -54.5t-19 -70t-6.5 -67.5q0 -39 11.5 -63t39.5 -24q25 0 44.5 21.5t32.5 53.5t19.5 69t6.5 68z" />
    <glyph glyph-name="odieresis" unicode="&#xf6;" horiz-adv-x="488" 
d="M468 334q0 -68 -17 -131t-49 -111.5t-80 -78t-109 -29.5q-87 0 -135 55.5t-48 147.5q0 67 17.5 130t50.5 112t81 78t108 29q86 0 133.5 -55.5t47.5 -146.5zM327 322q0 40 -12.5 64.5t-40.5 24.5q-25 0 -44 -22t-31.5 -54.5t-19 -70t-6.5 -67.5q0 -39 11.5 -63t39.5 -24
q25 0 44.5 21.5t32.5 53.5t19.5 69t6.5 68zM481 676q0 -35 -21.5 -58t-53.5 -23q-31 0 -47 19.5t-16 43.5q0 16 5.5 30.5t15.5 26t24 18.5t30 7q31 0 47 -18.5t16 -45.5zM295 676q0 -35 -21.5 -58t-53.5 -23q-30 0 -46 19.5t-16 43.5q0 16 5.5 30.5t15.5 26t23.5 18.5
t30.5 7q30 0 46 -18.5t16 -45.5z" />
    <glyph glyph-name="divide" unicode="&#xf7;" 
d="M246 489q0 17 7 32.5t19 27t27.5 18t33.5 6.5t33.5 -6.5t27 -18t18.5 -27t7 -32.5q0 -18 -7 -33.5t-18.5 -27t-27 -18t-33.5 -6.5t-33.5 6.5t-27.5 18t-19 27t-7 33.5zM246 117q0 17 7 32.5t19 27t27.5 18t33.5 6.5t33.5 -6.5t27 -18t18.5 -27t7 -32.5t-7 -32.5
t-18.5 -27t-27 -18.5t-33.5 -7t-33.5 7t-27.5 18.5t-19 27t-7 32.5zM79 240v127h507v-127h-507z" />
    <glyph glyph-name="oslash" unicode="&#xf8;" horiz-adv-x="488" 
d="M468 334q0 -68 -17 -131t-49 -111.5t-80 -78t-109 -29.5q-62 0 -106 30l-42 -65l-56 33l53 78q-32 52 -32 127q0 67 17.5 130t50.5 112t81 78t108 29q56 0 100 -27l44 67l55 -32l-54 -80q36 -53 36 -130zM333 333l-149 -215q14 -17 38 -17q27 0 47.5 22.5t35 56.5
t21.5 73.5t7 72.5v7zM276 420q-27 0 -47 -23t-34 -56.5t-21.5 -72.5t-7.5 -72l143 211q-13 13 -33 13z" />
    <glyph glyph-name="ugrave" unicode="&#xf9;" horiz-adv-x="525" 
d="M271 589l-128 144h126l103 -144h-101zM443 127q-2 -13 -5 -31t-6 -37t-5.5 -35t-3.5 -24h-137q2 14 4.5 35t5.5 41h-3q-20 -40 -54.5 -66t-82.5 -26q-32 0 -54 11t-35.5 29t-20 40.5t-6.5 45.5q0 19 2.5 42.5t7.5 47.5l55 320h146l-56 -319q-2 -10 -3 -19.5t-1 -17.5
q0 -21 8.5 -36t32.5 -15q30 0 51.5 28.5t29.5 73.5l53 305h146z" />
    <glyph glyph-name="uacute" unicode="&#xfa;" horiz-adv-x="525" 
d="M349 590h-101l112 144h127zM443 127q-2 -13 -5 -31t-6 -37t-5.5 -35t-3.5 -24h-137q2 14 4.5 35t5.5 41h-3q-20 -40 -54.5 -66t-82.5 -26q-32 0 -54 11t-35.5 29t-20 40.5t-6.5 45.5q0 19 2.5 42.5t7.5 47.5l55 320h146l-56 -319q-2 -10 -3 -19.5t-1 -17.5q0 -21 8.5 -36
t32.5 -15q30 0 51.5 28.5t29.5 73.5l53 305h146z" />
    <glyph glyph-name="ucircumflex" unicode="&#xfb;" horiz-adv-x="525" 
d="M388 589l-52 83l-78 -83h-110l140 144h116l88 -144h-104zM443 127q-2 -13 -5 -31t-6 -37t-5.5 -35t-3.5 -24h-137q2 14 4.5 35t5.5 41h-3q-20 -40 -54.5 -66t-82.5 -26q-32 0 -54 11t-35.5 29t-20 40.5t-6.5 45.5q0 19 2.5 42.5t7.5 47.5l55 320h146l-56 -319
q-2 -10 -3 -19.5t-1 -17.5q0 -21 8.5 -36t32.5 -15q30 0 51.5 28.5t29.5 73.5l53 305h146z" />
    <glyph glyph-name="udieresis" unicode="&#xfc;" horiz-adv-x="525" 
d="M495 676q0 -35 -21.5 -58t-53.5 -23q-31 0 -47 19.5t-16 43.5q0 16 5.5 30.5t15.5 26t24 18.5t30 7q31 0 47 -18.5t16 -45.5zM309 676q0 -35 -21.5 -58t-53.5 -23q-30 0 -46 19.5t-16 43.5q0 16 5.5 30.5t15.5 26t23.5 18.5t30.5 7q30 0 46 -18.5t16 -45.5zM443 127
q-2 -13 -5 -31t-6 -37t-5.5 -35t-3.5 -24h-137q2 14 4.5 35t5.5 41h-3q-20 -40 -54.5 -66t-82.5 -26q-32 0 -54 11t-35.5 29t-20 40.5t-6.5 45.5q0 19 2.5 42.5t7.5 47.5l55 320h146l-56 -319q-2 -10 -3 -19.5t-1 -17.5q0 -21 8.5 -36t32.5 -15q30 0 51.5 28.5t29.5 73.5
l53 305h146z" />
    <glyph glyph-name="yacute" unicode="&#xfd;" horiz-adv-x="458" 
d="M321 590h-101l112 144h127zM255 -43q-19 -43 -39.5 -79t-47 -62.5t-60 -41t-78.5 -14.5q-23 0 -40.5 3t-29.5 7l27 130q5 -3 15 -5t22 -2q25 0 39.5 14.5t25.5 39.5l19 44l-57 529h151l13 -363h3l139 363h147z" />
    <glyph glyph-name="thorn" unicode="&#xfe;" horiz-adv-x="518" 
d="M498 351q0 -62 -14.5 -127t-42.5 -118t-69.5 -87.5t-94.5 -34.5q-48 0 -72.5 23.5t-28.5 55.5h-2l-51 -303h-143l171 996h144l-52 -294h4q14 31 44 52.5t69 21.5q35 0 61 -13.5t43 -38.5t25.5 -59t8.5 -74zM352 325q0 38 -12 62t-41 24q-25 0 -44 -22t-32 -54t-19.5 -69
t-6.5 -68q0 -39 12 -63.5t41 -24.5q25 0 44 22t32 54.5t19.5 70t6.5 68.5z" />
    <glyph glyph-name="ydieresis" unicode="&#xff;" horiz-adv-x="458" 
d="M464 676q0 -35 -21.5 -58t-53.5 -23q-31 0 -47 19.5t-16 43.5q0 16 5.5 30.5t15.5 26t24 18.5t30 7q31 0 47 -18.5t16 -45.5zM278 676q0 -35 -21.5 -58t-53.5 -23q-30 0 -46 19.5t-16 43.5q0 16 5.5 30.5t15.5 26t23.5 18.5t30.5 7q30 0 46 -18.5t16 -45.5zM255 -43
q-19 -43 -39.5 -79t-47 -62.5t-60 -41t-78.5 -14.5q-23 0 -40.5 3t-29.5 7l27 130q5 -3 15 -5t22 -2q25 0 39.5 14.5t25.5 39.5l19 44l-57 529h151l13 -363h3l139 363h147z" />
    <glyph glyph-name="Amacron" unicode="&#x100;" horiz-adv-x="541" 
d="M342 0l-3 133h-165l-53 -133h-160l307 708h193l37 -708h-156zM335 555h-4l-117 -304h127zM519 798h-294l13 79h295z" />
    <glyph glyph-name="amacron" unicode="&#x101;" horiz-adv-x="448" 
d="M428 623h-294l13 79h295zM419 381q0 -40 -9 -88l-33 -191q-2 -11 -4 -26t-4 -29.5t-3.5 -27.5t-1.5 -19h-122q1 12 3.5 32t5.5 33h-3q-17 -35 -46 -56.5t-76 -21.5q-21 0 -41.5 8t-37 24t-26.5 40.5t-10 57.5q0 57 20 96.5t53.5 64t78 35.5t93.5 11h25q5 23 5 34
q0 54 -51 54q-28 0 -53.5 -12.5t-44.5 -29.5l-56 93q35 33 82 53t95 20q85 0 123 -41.5t38 -113.5zM242 229q-20 0 -39 -4.5t-33.5 -15t-23 -26.5t-8.5 -38q0 -24 11.5 -36t28.5 -12q18 0 32.5 9.5t25 25t17.5 34.5t11 38l5 25h-27z" />
    <glyph glyph-name="Abreve" unicode="&#x102;" horiz-adv-x="541" 
d="M342 0l-3 133h-165l-53 -133h-160l307 708h193l37 -708h-156zM335 555h-4l-117 -304h127zM529 905q-9 -39 -26 -66t-39 -43t-48 -23t-54 -7q-26 0 -50 7t-42 23t-29 43t-11 66h79q0 -31 18.5 -43t41.5 -12q25 0 48.5 11.5t31.5 43.5h80z" />
    <glyph glyph-name="abreve" unicode="&#x103;" horiz-adv-x="448" 
d="M440 730q-9 -39 -26 -66t-39 -43t-48 -23t-54 -7q-26 0 -50 7t-42 23t-29 43t-11 66h79q0 -30 18.5 -42.5t41.5 -12.5q25 0 48.5 11.5t31.5 43.5h80zM419 381q0 -40 -9 -88l-33 -191q-2 -11 -4 -26t-4 -29.5t-3.5 -27.5t-1.5 -19h-122q1 12 3.5 32t5.5 33h-3
q-17 -35 -46 -56.5t-76 -21.5q-21 0 -41.5 8t-37 24t-26.5 40.5t-10 57.5q0 57 20 96.5t53.5 64t78 35.5t93.5 11h25q5 23 5 34q0 54 -51 54q-28 0 -53.5 -12.5t-44.5 -29.5l-56 93q35 33 82 53t95 20q85 0 123 -41.5t38 -113.5zM242 229q-20 0 -39 -4.5t-33.5 -15
t-23 -26.5t-8.5 -38q0 -24 11.5 -36t28.5 -12q18 0 32.5 9.5t25 25t17.5 34.5t11 38l5 25h-27z" />
    <glyph glyph-name="Aogonek" unicode="&#x104;" horiz-adv-x="541" 
d="M375 -232q-17 0 -33 4.5t-28.5 14t-20.5 25.5t-8 40q0 23 10.5 44t27.5 39.5t38.5 35t43.5 29.5h-63l-3 133h-165l-53 -133h-160l307 708h193l37 -708h-1q-59 -44 -84.5 -70.5t-25.5 -48.5q0 -15 7.5 -21.5t18.5 -6.5q12 0 26.5 5t25.5 14l19 -64q-24 -19 -52 -29.5
t-57 -10.5zM335 555h-4l-117 -304h127z" />
    <glyph glyph-name="aogonek" unicode="&#x105;" horiz-adv-x="448" 
d="M241 -232q-17 0 -33 4.5t-28.5 14t-20.5 25.5t-8 40q0 23 10.5 44t27.5 39.5t38.5 35t43.5 29.5h-29q1 12 3.5 32t5.5 33h-3q-17 -35 -46 -56.5t-76 -21.5q-21 0 -41.5 8t-37 24t-26.5 40.5t-10 57.5q0 57 20 96.5t53.5 64t78 35.5t93.5 11h25q5 23 5 34q0 54 -51 54
q-28 0 -53.5 -12.5t-44.5 -29.5l-56 93q35 33 82 53t95 20q85 0 123 -41.5t38 -113.5q0 -40 -9 -88l-33 -191q-2 -11 -4 -26t-4 -29.5t-3.5 -27.5t-1.5 -19q-60 -44 -85.5 -70.5t-25.5 -48.5q0 -15 7.5 -21.5t18.5 -6.5q12 0 26.5 5t25.5 14l19 -64q-24 -19 -52 -29.5
t-57 -10.5zM242 229q-20 0 -39 -4.5t-33.5 -15t-23 -26.5t-8.5 -38q0 -24 11.5 -36t28.5 -12q18 0 32.5 9.5t25 25t17.5 34.5t11 38l5 25h-27z" />
    <glyph glyph-name="Cacute" unicode="&#x106;" horiz-adv-x="503" 
d="M464 529q-14 23 -34 36t-52 13q-40 0 -72 -29t-54 -73t-33.5 -97.5t-11.5 -102.5q0 -64 23 -104.5t74 -40.5q34 0 57 15.5t39 32.5l71 -114q-35 -36 -82.5 -59.5t-111.5 -23.5q-56 0 -99.5 20t-72.5 56t-44 86.5t-15 111.5q0 90 24.5 175t69.5 150.5t107.5 105
t137.5 39.5q72 0 115.5 -24t68.5 -59zM416 765h-101l112 144h127z" />
    <glyph glyph-name="cacute" unicode="&#x107;" horiz-adv-x="352" 
d="M317 590h-101l112 144h127zM326 382q-8 9 -19 15t-30 6q-24 0 -43.5 -19t-33 -47.5t-20.5 -63.5t-7 -66q0 -42 14.5 -65.5t46.5 -23.5q16 0 28.5 5.5t24.5 13.5l38 -115q-21 -17 -52 -27.5t-68 -10.5q-46 0 -79 16t-54.5 44t-31.5 65.5t-10 80.5q0 63 17 124.5t49.5 111
t78.5 80t105 30.5q48 0 76 -12t45 -28z" />
    <glyph glyph-name="Ccircumflex" unicode="&#x108;" horiz-adv-x="503" 
d="M464 529q-14 23 -34 36t-52 13q-40 0 -72 -29t-54 -73t-33.5 -97.5t-11.5 -102.5q0 -64 23 -104.5t74 -40.5q34 0 57 15.5t39 32.5l71 -114q-35 -36 -82.5 -59.5t-111.5 -23.5q-56 0 -99.5 20t-72.5 56t-44 86.5t-15 111.5q0 90 24.5 175t69.5 150.5t107.5 105
t137.5 39.5q72 0 115.5 -24t68.5 -59zM471 764l-52 83l-78 -83h-110l140 144h116l88 -144h-104z" />
    <glyph glyph-name="ccircumflex" unicode="&#x109;" horiz-adv-x="352" 
d="M360 589l-52 83l-78 -83h-110l140 144h116l88 -144h-104zM326 382q-8 9 -19 15t-30 6q-24 0 -43.5 -19t-33 -47.5t-20.5 -63.5t-7 -66q0 -42 14.5 -65.5t46.5 -23.5q16 0 28.5 5.5t24.5 13.5l38 -115q-21 -17 -52 -27.5t-68 -10.5q-46 0 -79 16t-54.5 44t-31.5 65.5
t-10 80.5q0 63 17 124.5t49.5 111t78.5 80t105 30.5q48 0 76 -12t45 -28z" />
    <glyph glyph-name="Cdotaccent" unicode="&#x10a;" horiz-adv-x="503" 
d="M464 529q-14 23 -34 36t-52 13q-40 0 -72 -29t-54 -73t-33.5 -97.5t-11.5 -102.5q0 -64 23 -104.5t74 -40.5q34 0 57 15.5t39 32.5l71 -114q-35 -36 -82.5 -59.5t-111.5 -23.5q-56 0 -99.5 20t-72.5 56t-44 86.5t-15 111.5q0 90 24.5 175t69.5 150.5t107.5 105
t137.5 39.5q72 0 115.5 -24t68.5 -59zM491 853q0 -42 -25.5 -69t-63.5 -27q-36 0 -55 22.5t-19 51.5q0 19 6.5 36.5t18.5 31t28 21.5t35 8q37 0 56 -21.5t19 -53.5z" />
    <glyph glyph-name="cdotaccent" unicode="&#x10b;" horiz-adv-x="352" 
d="M390 678q0 -41 -25.5 -68.5t-63.5 -27.5q-36 0 -55 22.5t-19 51.5q0 19 6.5 36.5t18.5 31t28 21.5t35 8q37 0 56 -21.5t19 -53.5zM326 382q-8 9 -19 15t-30 6q-24 0 -43.5 -19t-33 -47.5t-20.5 -63.5t-7 -66q0 -42 14.5 -65.5t46.5 -23.5q16 0 28.5 5.5t24.5 13.5
l38 -115q-21 -17 -52 -27.5t-68 -10.5q-46 0 -79 16t-54.5 44t-31.5 65.5t-10 80.5q0 63 17 124.5t49.5 111t78.5 80t105 30.5q48 0 76 -12t45 -28z" />
    <glyph glyph-name="Ccaron" unicode="&#x10c;" horiz-adv-x="503" 
d="M464 529q-14 23 -34 36t-52 13q-40 0 -72 -29t-54 -73t-33.5 -97.5t-11.5 -102.5q0 -64 23 -104.5t74 -40.5q34 0 57 15.5t39 32.5l71 -114q-35 -36 -82.5 -59.5t-111.5 -23.5q-56 0 -99.5 20t-72.5 56t-44 86.5t-15 111.5q0 90 24.5 175t69.5 150.5t107.5 105
t137.5 39.5q72 0 115.5 -24t68.5 -59zM458 764h-116l-89 144h104l51 -83l79 83h110z" />
    <glyph glyph-name="ccaron" unicode="&#x10d;" horiz-adv-x="352" 
d="M349 589h-116l-89 144h104l51 -83l79 83h110zM326 382q-8 9 -19 15t-30 6q-24 0 -43.5 -19t-33 -47.5t-20.5 -63.5t-7 -66q0 -42 14.5 -65.5t46.5 -23.5q16 0 28.5 5.5t24.5 13.5l38 -115q-21 -17 -52 -27.5t-68 -10.5q-46 0 -79 16t-54.5 44t-31.5 65.5t-10 80.5
q0 63 17 124.5t49.5 111t78.5 80t105 30.5q48 0 76 -12t45 -28z" />
    <glyph glyph-name="Dcaron" unicode="&#x10e;" horiz-adv-x="583" 
d="M580 432q0 -75 -18 -152t-59 -139t-108 -101.5t-166 -39.5h-205l123 708h187q66 0 113 -20t76.5 -56.5t43 -87.5t13.5 -112zM423 419q0 33 -5.5 61.5t-18 49t-32 32.5t-47.5 12h-43l-76 -440h45q44 0 77 26t55.5 67t33.5 91.5t11 100.5zM407 764h-116l-89 144h104l51 -83
l79 83h110z" />
    <glyph glyph-name="dcaron" unicode="&#x10f;" horiz-adv-x="515" 
d="M415 0h-139l11 67h-1q-18 -35 -46 -59t-75 -24q-34 0 -59.5 14t-42 38.5t-25 59t-8.5 75.5q0 61 14.5 125.5t43 118t69.5 87.5t95 34q45 0 68 -20.5t29 -53.5h3l52 294h143zM331 321q0 40 -12.5 65t-40.5 25q-26 0 -45 -22t-32 -54.5t-19.5 -70t-6.5 -68.5
q0 -38 12.5 -62t41.5 -24q24 0 43 21.5t32 53.5t20 69t7 67zM647 517h-99l94 191h111z" />
    <glyph glyph-name="Dcroat" unicode="&#x110;" horiz-adv-x="582" 
d="M580 432q0 -75 -18 -152t-59 -139t-108 -101.5t-166 -39.5h-205l54 312h-49l18 98h48l52 298h187q66 0 113 -20t76.5 -56.5t43 -87.5t13.5 -112zM423 419q0 33 -5.5 61.5t-18 49t-32 32.5t-47.5 12h-43l-28 -164h90l-18 -98h-89l-31 -178h45q44 0 77 26t55.5 67
t33.5 91.5t11 100.5z" />
    <glyph glyph-name="dcroat" unicode="&#x111;" horiz-adv-x="515" 
d="M561 591h-43l-103 -591h-139l11 67h-1q-18 -35 -46 -59t-75 -24q-34 0 -59.5 14t-42 38.5t-25 59t-8.5 75.5q0 61 14.5 125.5t43 118t69.5 87.5t95 34q45 0 68 -20.5t29 -53.5h3l23 129h-108l13 76h108l16 89h143l-16 -89h44zM331 321q0 40 -12.5 65t-40.5 25
q-26 0 -45 -22t-32 -54.5t-19.5 -70t-6.5 -68.5q0 -38 12.5 -62t41.5 -24q24 0 43 21.5t32 53.5t20 69t7 67z" />
    <glyph glyph-name="Emacron" unicode="&#x112;" horiz-adv-x="440" 
d="M455 573h-185l-26 -147h173l-22 -126h-172l-28 -162h202l-24 -138h-349l123 708h331zM465 798h-294l13 79h295z" />
    <glyph glyph-name="emacron" unicode="&#x113;" horiz-adv-x="465" 
d="M453 623h-294l13 79h295zM448 353q0 -20 -3 -52t-12 -76h-260q-3 -20 -3 -33q0 -35 15 -57.5t45 -22.5q27 0 45.5 17.5t31.5 39.5l100 -65q-27 -50 -76 -85t-117 -35q-88 0 -136 54.5t-48 151.5q0 70 19 133t52.5 110.5t79.5 75t99 27.5q45 0 77 -14t52 -38.5t29.5 -58
t9.5 -72.5zM321 355q0 32 -11.5 50.5t-35.5 18.5q-17 0 -31 -10t-24.5 -25.5t-18 -34.5t-10.5 -37h127q2 6 3 18t1 20z" />
    <glyph glyph-name="Ebreve" unicode="&#x114;" horiz-adv-x="440" 
d="M455 573h-185l-26 -147h173l-22 -126h-172l-28 -162h202l-24 -138h-349l123 708h331zM482 905q-9 -39 -26 -66t-39 -43t-48 -23t-54 -7q-26 0 -50 7t-42 23t-29 43t-11 66h79q0 -31 18.5 -43t41.5 -12q25 0 48.5 11.5t31.5 43.5h80z" />
    <glyph glyph-name="ebreve" unicode="&#x115;" horiz-adv-x="465" 
d="M470 730q-9 -39 -26 -66t-39 -43t-48 -23t-54 -7q-26 0 -50 7t-42 23t-29 43t-11 66h79q0 -30 18.5 -42.5t41.5 -12.5q25 0 48.5 11.5t31.5 43.5h80zM448 353q0 -20 -3 -52t-12 -76h-260q-3 -20 -3 -33q0 -35 15 -57.5t45 -22.5q27 0 45.5 17.5t31.5 39.5l100 -65
q-27 -50 -76 -85t-117 -35q-88 0 -136 54.5t-48 151.5q0 70 19 133t52.5 110.5t79.5 75t99 27.5q45 0 77 -14t52 -38.5t29.5 -58t9.5 -72.5zM321 355q0 32 -11.5 50.5t-35.5 18.5q-17 0 -31 -10t-24.5 -25.5t-18 -34.5t-10.5 -37h127q2 6 3 18t1 20z" />
    <glyph glyph-name="Edotaccent" unicode="&#x116;" horiz-adv-x="440" 
d="M455 573h-185l-26 -147h173l-22 -126h-172l-28 -162h202l-24 -138h-349l123 708h331zM408 853q0 -42 -25.5 -69t-63.5 -27q-36 0 -55 22.5t-19 51.5q0 19 6.5 36.5t18.5 31t28 21.5t35 8q37 0 56 -21.5t19 -53.5z" />
    <glyph glyph-name="edotaccent" unicode="&#x117;" horiz-adv-x="465" 
d="M395 678q0 -41 -25.5 -68.5t-63.5 -27.5q-36 0 -55 22.5t-19 51.5q0 19 6.5 36.5t18.5 31t28 21.5t35 8q37 0 56 -21.5t19 -53.5zM448 353q0 -20 -3 -52t-12 -76h-260q-3 -20 -3 -33q0 -35 15 -57.5t45 -22.5q27 0 45.5 17.5t31.5 39.5l100 -65q-27 -50 -76 -85t-117 -35
q-88 0 -136 54.5t-48 151.5q0 70 19 133t52.5 110.5t79.5 75t99 27.5q45 0 77 -14t52 -38.5t29.5 -58t9.5 -72.5zM321 355q0 32 -11.5 50.5t-35.5 18.5q-17 0 -31 -10t-24.5 -25.5t-18 -34.5t-10.5 -37h127q2 6 3 18t1 20z" />
    <glyph glyph-name="Eogonek" unicode="&#x118;" horiz-adv-x="440" 
d="M160 -232q-17 0 -33 4.5t-28.5 14t-20.5 25.5t-8 40q0 23 10.5 44t27.5 39.5t38.5 35t43.5 29.5h-166l123 708h331l-23 -135h-185l-26 -147h173l-22 -126h-172l-28 -162h202l-24 -138h-91q-59 -44 -84.5 -70.5t-25.5 -48.5q0 -15 7.5 -21.5t18.5 -6.5q12 0 26.5 5
t25.5 14l19 -64q-24 -19 -52 -29.5t-57 -10.5z" />
    <glyph glyph-name="eogonek" unicode="&#x119;" horiz-adv-x="465" 
d="M159 -232q-17 0 -33 4.5t-28.5 14t-20.5 25.5t-8 40q0 21 8.5 40t22.5 36t32 32t38 28q-68 13 -104 65t-36 137q0 70 19 133t52.5 110.5t79.5 75t99 27.5q45 0 77 -14t52 -38.5t29.5 -58t9.5 -72.5q0 -20 -3 -52t-12 -76h-260q-3 -20 -3 -33q0 -35 15 -57.5t45 -22.5
q27 0 45.5 17.5t31.5 39.5l100 -65q-22 -40 -56.5 -70.5t-82.5 -42.5q-53 -40 -75 -64t-22 -46q0 -15 7.5 -21.5t18.5 -6.5q12 0 26.5 5t25.5 14l19 -64q-24 -19 -52 -29.5t-57 -10.5zM321 355q0 32 -11.5 50.5t-35.5 18.5q-17 0 -31 -10t-24.5 -25.5t-18 -34.5t-10.5 -37
h127q2 6 3 18t1 20z" />
    <glyph glyph-name="Ecaron" unicode="&#x11a;" horiz-adv-x="440" 
d="M455 573h-185l-26 -147h173l-22 -126h-172l-28 -162h202l-24 -138h-349l123 708h331zM380 764h-116l-89 144h104l51 -83l79 83h110z" />
    <glyph glyph-name="ecaron" unicode="&#x11b;" horiz-adv-x="465" 
d="M352 589h-116l-89 144h104l51 -83l79 83h110zM448 353q0 -20 -3 -52t-12 -76h-260q-3 -20 -3 -33q0 -35 15 -57.5t45 -22.5q27 0 45.5 17.5t31.5 39.5l100 -65q-27 -50 -76 -85t-117 -35q-88 0 -136 54.5t-48 151.5q0 70 19 133t52.5 110.5t79.5 75t99 27.5q45 0 77 -14
t52 -38.5t29.5 -58t9.5 -72.5zM321 355q0 32 -11.5 50.5t-35.5 18.5q-17 0 -31 -10t-24.5 -25.5t-18 -34.5t-10.5 -37h127q2 6 3 18t1 20z" />
    <glyph glyph-name="Gcircumflex" unicode="&#x11c;" horiz-adv-x="553" 
d="M466 529q-14 24 -36 37t-55 13q-43 0 -76.5 -30t-56 -75.5t-34 -99.5t-11.5 -102q0 -30 6.5 -56t19.5 -46t33 -31.5t48 -11.5q39 0 68 17l25 139h-94l24 134h229l-65 -375q-38 -26 -87.5 -43t-112.5 -17q-62 0 -108 21t-76.5 57.5t-45.5 87t-15 109.5q0 89 24.5 173.5
t69 150t107 105.5t138.5 40q71 0 116.5 -23.5t67.5 -60.5zM465 764l-52 83l-78 -83h-110l140 144h116l88 -144h-104z" />
    <glyph glyph-name="gcircumflex" unicode="&#x11d;" horiz-adv-x="515" 
d="M395 589l-52 83l-78 -83h-110l140 144h116l88 -144h-104zM417 32q-11 -62 -30.5 -112t-51 -85.5t-76.5 -55t-106 -19.5q-52 0 -100 19.5t-78 48.5l79 109q20 -20 46 -33t58 -13q25 0 44.5 9.5t33.5 26t23.5 39t14.5 49.5l10 52h-2q-17 -30 -45.5 -52.5t-75.5 -22.5
q-34 0 -59.5 13.5t-43 38.5t-26 58.5t-8.5 74.5q0 60 14.5 124t42.5 116t69 85.5t95 33.5q45 0 71 -23t32 -56h4l11 63h139zM325 321q0 40 -12.5 65t-40.5 25q-25 0 -44 -22t-32 -54.5t-19.5 -70t-6.5 -68.5q0 -38 12 -62t41 -24q25 0 44 21.5t32 53.5t19.5 69t6.5 67z" />
    <glyph glyph-name="Gbreve" unicode="&#x11e;" horiz-adv-x="553" 
d="M466 529q-14 24 -36 37t-55 13q-43 0 -76.5 -30t-56 -75.5t-34 -99.5t-11.5 -102q0 -30 6.5 -56t19.5 -46t33 -31.5t48 -11.5q39 0 68 17l25 139h-94l24 134h229l-65 -375q-38 -26 -87.5 -43t-112.5 -17q-62 0 -108 21t-76.5 57.5t-45.5 87t-15 109.5q0 89 24.5 173.5
t69 150t107 105.5t138.5 40q71 0 116.5 -23.5t67.5 -60.5zM569 905q-9 -39 -26 -66t-39 -43t-48 -23t-54 -7q-26 0 -50 7t-42 23t-29 43t-11 66h79q0 -31 18.5 -43t41.5 -12q25 0 48.5 11.5t31.5 43.5h80z" />
    <glyph glyph-name="gbreve" unicode="&#x11f;" horiz-adv-x="515" 
d="M485 730q-9 -39 -26 -66t-39 -43t-48 -23t-54 -7q-26 0 -50 7t-42 23t-29 43t-11 66h79q0 -30 18.5 -42.5t41.5 -12.5q25 0 48.5 11.5t31.5 43.5h80zM417 32q-11 -62 -30.5 -112t-51 -85.5t-76.5 -55t-106 -19.5q-52 0 -100 19.5t-78 48.5l79 109q20 -20 46 -33t58 -13
q25 0 44.5 9.5t33.5 26t23.5 39t14.5 49.5l10 52h-2q-17 -30 -45.5 -52.5t-75.5 -22.5q-34 0 -59.5 13.5t-43 38.5t-26 58.5t-8.5 74.5q0 60 14.5 124t42.5 116t69 85.5t95 33.5q45 0 71 -23t32 -56h4l11 63h139zM325 321q0 40 -12.5 65t-40.5 25q-25 0 -44 -22t-32 -54.5
t-19.5 -70t-6.5 -68.5q0 -38 12 -62t41 -24q25 0 44 21.5t32 53.5t19.5 69t6.5 67z" />
    <glyph glyph-name="Gdotaccent" unicode="&#x120;" horiz-adv-x="553" 
d="M466 529q-14 24 -36 37t-55 13q-43 0 -76.5 -30t-56 -75.5t-34 -99.5t-11.5 -102q0 -30 6.5 -56t19.5 -46t33 -31.5t48 -11.5q39 0 68 17l25 139h-94l24 134h229l-65 -375q-38 -26 -87.5 -43t-112.5 -17q-62 0 -108 21t-76.5 57.5t-45.5 87t-15 109.5q0 89 24.5 173.5
t69 150t107 105.5t138.5 40q71 0 116.5 -23.5t67.5 -60.5zM492 853q0 -42 -25.5 -69t-63.5 -27q-36 0 -55 22.5t-19 51.5q0 19 6.5 36.5t18.5 31t28 21.5t35 8q37 0 56 -21.5t19 -53.5z" />
    <glyph glyph-name="gdotaccent" unicode="&#x121;" horiz-adv-x="515" 
d="M404 678q0 -41 -25.5 -68.5t-63.5 -27.5q-36 0 -55 22.5t-19 51.5q0 19 6.5 36.5t18.5 31t28 21.5t35 8q37 0 56 -21.5t19 -53.5zM417 32q-11 -62 -30.5 -112t-51 -85.5t-76.5 -55t-106 -19.5q-52 0 -100 19.5t-78 48.5l79 109q20 -20 46 -33t58 -13q25 0 44.5 9.5
t33.5 26t23.5 39t14.5 49.5l10 52h-2q-17 -30 -45.5 -52.5t-75.5 -22.5q-34 0 -59.5 13.5t-43 38.5t-26 58.5t-8.5 74.5q0 60 14.5 124t42.5 116t69 85.5t95 33.5q45 0 71 -23t32 -56h4l11 63h139zM325 321q0 40 -12.5 65t-40.5 25q-25 0 -44 -22t-32 -54.5t-19.5 -70
t-6.5 -68.5q0 -38 12 -62t41 -24q25 0 44 21.5t32 53.5t19.5 69t6.5 67z" />
    <glyph glyph-name="Gcommaaccent" unicode="&#x122;" horiz-adv-x="553" 
d="M466 529q-14 24 -36 37t-55 13q-43 0 -76.5 -30t-56 -75.5t-34 -99.5t-11.5 -102q0 -30 6.5 -56t19.5 -46t33 -31.5t48 -11.5q39 0 68 17l25 139h-94l24 134h229l-65 -375q-38 -26 -87.5 -43t-112.5 -17q-62 0 -108 21t-76.5 57.5t-45.5 87t-15 109.5q0 89 24.5 173.5
t69 150t107 105.5t138.5 40q71 0 116.5 -23.5t67.5 -60.5zM207 -242h-99l94 191h111z" />
    <glyph glyph-name="gcommaaccent" unicode="&#x123;" horiz-adv-x="515" 
d="M417 32q-11 -62 -30.5 -112t-51 -85.5t-76.5 -55t-106 -19.5q-52 0 -100 19.5t-78 48.5l79 109q20 -20 46 -33t58 -13q25 0 44.5 9.5t33.5 26t23.5 39t14.5 49.5l10 52h-2q-17 -30 -45.5 -52.5t-75.5 -22.5q-34 0 -59.5 13.5t-43 38.5t-26 58.5t-8.5 74.5q0 60 14.5 124
t42.5 116t69 85.5t95 33.5q45 0 71 -23t32 -56h4l11 63h139zM325 321q0 40 -12.5 65t-40.5 25q-25 0 -44 -22t-32 -54.5t-19.5 -70t-6.5 -68.5q0 -38 12 -62t41 -24q25 0 44 21.5t32 53.5t19.5 69t6.5 67zM357 780h99l-94 -191h-111z" />
    <glyph glyph-name="Hcircumflex" unicode="&#x124;" horiz-adv-x="605" 
d="M501 0h-153l52 299h-171l-52 -299h-153l123 708h152l-47 -272h171l47 272h154zM463 764l-52 83l-78 -83h-110l140 144h116l88 -144h-104z" />
    <glyph glyph-name="hcircumflex" unicode="&#x125;" horiz-adv-x="526" 
d="M434 821l-52 83l-78 -83h-110l140 144h116l88 -144h-104zM492 410q0 -19 -2.5 -43t-7.5 -48l-55 -319h-146l56 319q2 9 3 18.5t1 18.5q0 21 -8.5 36t-32.5 15q-30 0 -51.5 -28.5t-29.5 -73.5l-53 -305h-146l132 756h145l-54 -307h2q20 35 52.5 61t80.5 26q31 0 53 -11.5
t35.5 -29.5t19.5 -40.5t6 -44.5z" />
    <glyph glyph-name="Hbar" unicode="&#x126;" horiz-adv-x="605" 
d="M501 0h-153l52 299h-171l-52 -299h-153l123 708h152l-21 -119h171l21 119h154zM423 436l13 78h-171l-13 -78h171z" />
    <glyph glyph-name="hbar" unicode="&#x127;" horiz-adv-x="526" 
d="M364 591h-96l-25 -142h2q20 35 52.5 62t80.5 27q31 0 53 -11.5t35.5 -30t19.5 -41.5t6 -45q0 -19 -2.5 -43t-7.5 -48l-55 -319h-146l56 319q2 9 3 18.5t1 18.5q0 21 -8.5 36t-32.5 15q-30 0 -51.5 -28.5t-29.5 -73.5l-53 -305h-146l104 591h-54l12 74h54l16 91h145
l-16 -91h96z" />
    <glyph glyph-name="Itilde" unicode="&#x128;" horiz-adv-x="283" 
d="M179 0h-155l123 708h155zM402 892q-11 -56 -40 -90t-69 -34q-36 0 -69 23q-20 14 -29.5 18t-22.5 4q-14 0 -24.5 -11t-15.5 -29h-60q11 54 39.5 88t69.5 34q20 0 36 -6t33 -18q20 -13 30 -17.5t24 -4.5q29 0 39 43h59z" />
    <glyph glyph-name="itilde" unicode="&#x129;" horiz-adv-x="266" 
d="M359 717q-11 -56 -40 -90t-69 -34q-36 0 -69 23q-20 14 -29.5 18t-22.5 4q-14 0 -24.5 -11t-15.5 -29h-60q10 54 40 88q14 16 31.5 25t37.5 9t36 -6t33 -18q20 -13 30 -17.5t24 -4.5q29 0 39 43h59zM165 0h-146l90 520h146z" />
    <glyph glyph-name="Imacron" unicode="&#x12a;" horiz-adv-x="283" 
d="M179 0h-155l123 708h155zM382 798h-294l13 79h295z" />
    <glyph glyph-name="imacron" unicode="&#x12b;" horiz-adv-x="266" 
d="M338 623h-294l13 79h295zM165 0h-146l90 520h146z" />
    <glyph glyph-name="Iogonek" unicode="&#x12e;" horiz-adv-x="283" 
d="M59 -232q-17 0 -33 4.5t-28.5 14t-20.5 25.5t-8 40q0 23 10.5 44t27.5 39.5t38.5 35t43.5 29.5h-65l123 708h155l-123 -708h2q-59 -44 -84.5 -70.5t-25.5 -48.5q0 -15 7.5 -21.5t18.5 -6.5q12 0 26.5 5t25.5 14l19 -64q-24 -19 -52 -29.5t-57 -10.5z" />
    <glyph glyph-name="iogonek" unicode="&#x12f;" horiz-adv-x="266" 
d="M165 0h2q-59 -44 -84.5 -70.5t-25.5 -48.5q0 -15 7.5 -21.5t18.5 -6.5q12 0 26.5 5t25.5 14l19 -64q-24 -19 -52 -29.5t-57 -10.5q-17 0 -33 4.5t-28.5 14t-20.5 25.5t-8 40q0 23 10.5 44t27.5 39.5t38.5 35t43.5 29.5h-56l90 520h146zM288 678q0 -20 -7 -37.5t-19 -30.5
t-28.5 -20.5t-35.5 -7.5q-35 0 -54 22.5t-19 51.5q0 19 6.5 36.5t18.5 31t28 21.5t35 8q36 0 55.5 -21.5t19.5 -53.5z" />
    <glyph glyph-name="Idotaccent" unicode="&#x130;" horiz-adv-x="283" 
d="M179 0h-155l123 708h155zM320 853q0 -42 -25.5 -69t-63.5 -27q-36 0 -55 22.5t-19 51.5q0 19 6.5 36.5t18.5 31t28 21.5t35 8q37 0 56 -21.5t19 -53.5z" />
    <glyph glyph-name="dotlessi" unicode="&#x131;" horiz-adv-x="266" 
d="M165 0h-146l90 520h146z" />
    <glyph glyph-name="IJ" unicode="&#x132;" horiz-adv-x="712" 
d="M179 0h-155l123 708h155zM651 221q-9 -52 -23.5 -95.5t-40 -75t-64 -49t-94.5 -17.5q-39 0 -70 11t-54 30t-38 44t-22 54l130 57q5 -20 18 -35.5t37 -15.5q35 0 49 28t22 78l82 473h153z" />
    <glyph glyph-name="ij" unicode="&#x133;" horiz-adv-x="538" 
d="M165 0h-146l90 520h146zM288 678q0 -20 -7 -37.5t-19 -30.5t-28.5 -20.5t-35.5 -7.5q-35 0 -54 22.5t-19 51.5q0 19 6.5 36.5t18.5 31t28 21.5t35 8q36 0 55.5 -21.5t19.5 -53.5zM434 -35q-8 -41 -21.5 -78.5t-37.5 -65.5t-59.5 -44.5t-86.5 -16.5q-16 0 -31 2t-28 5
l22 133q15 -5 28 -5q31 0 46 22.5t22 60.5l95 542h148zM560 678q0 -41 -25.5 -68.5t-63.5 -27.5q-36 0 -55 22.5t-19 51.5q0 19 6.5 36.5t18.5 31t28.5 21.5t35.5 8q36 0 55 -21.5t19 -53.5z" />
    <glyph glyph-name="Jcircumflex" unicode="&#x134;" horiz-adv-x="439" 
d="M378 219q-9 -52 -23.5 -95.5t-40 -75t-64 -49t-94.5 -17.5q-39 0 -70 11t-54 30t-38 44t-22 54l130 57q5 -20 18 -35.5t37 -15.5q35 0 49 28t22 78l82 475h153zM460 764l-52 83l-78 -83h-110l140 144h116l88 -144h-104z" />
    <glyph glyph-name="jcircumflex" unicode="&#x135;" horiz-adv-x="266" 
d="M162 -35q-8 -41 -21.5 -78.5t-37.5 -65.5t-59.5 -44.5t-86.5 -16.5q-16 0 -31 2t-28 5l22 133q15 -5 28 -5q31 0 46 22.5t22 60.5l95 542h148zM258 589l-52 83l-78 -83h-110l140 144h116l88 -144h-104z" />
    <glyph glyph-name="Kcommaaccent" unicode="&#x136;" horiz-adv-x="561" 
d="M382 370l131 -370h-173l-103 332h-3l-58 -332h-152l123 708h152l-51 -297h3l200 297h177zM199 -236h-99l94 191h111z" />
    <glyph glyph-name="kcommaaccent" unicode="&#x137;" horiz-adv-x="486" 
d="M337 274l104 -274h-153l-82 241h-2l-41 -241h-143l130 756h144l-79 -449h2l148 213h163zM162 -236h-99l94 191h111z" />
    <glyph glyph-name="Lacute" unicode="&#x139;" horiz-adv-x="419" 
d="M369 0h-345l123 708h154l-98 -566h191zM279 765h-101l112 144h127z" />
    <glyph glyph-name="lacute" unicode="&#x13a;" horiz-adv-x="267" 
d="M260 808h-101l112 144h127zM167 0h-147l132 756h147z" />
    <glyph glyph-name="Lcommaaccent" unicode="&#x13b;" horiz-adv-x="419" 
d="M369 0h-345l123 708h154l-98 -566h191zM138 -236h-99l94 191h111z" />
    <glyph glyph-name="lcommaaccent" unicode="&#x13c;" horiz-adv-x="267" 
d="M167 0h-147l132 756h147zM42 -236h-99l94 191h111z" />
    <glyph glyph-name="Lcaron" unicode="&#x13d;" horiz-adv-x="419" 
d="M369 0h-345l123 708h154l-98 -566h191zM413 517h-99l94 191h111z" />
    <glyph glyph-name="lcaron" unicode="&#x13e;" horiz-adv-x="267" 
d="M167 0h-147l132 756h147zM392 517h-99l94 191h111z" />
    <glyph glyph-name="Ldot" unicode="&#x13f;" horiz-adv-x="419" 
d="M369 0h-345l123 708h154l-98 -566h191zM450 368q0 -41 -25.5 -68.5t-63.5 -27.5q-36 0 -55 22.5t-19 51.5q0 19 6.5 36.5t18.5 31t28 21.5t35 8q37 0 56 -21.5t19 -53.5z" />
    <glyph glyph-name="ldot" unicode="&#x140;" horiz-adv-x="406" 
d="M436 358q0 -41 -25.5 -68.5t-63.5 -27.5q-36 0 -55 22.5t-19 51.5q0 19 6.5 36.5t18.5 31t28 21.5t35 8q37 0 56 -21.5t19 -53.5zM167 0h-147l132 756h147z" />
    <glyph glyph-name="Lslash" unicode="&#x141;" horiz-adv-x="416" 
d="M393 443l-161 -135l-29 -166h191l-25 -142h-345l33 189l-50 -43l24 141l50 43l66 378h154l-45 -260l162 135z" />
    <glyph glyph-name="lslash" unicode="&#x142;" horiz-adv-x="269" 
d="M285 438l-49 -44l-69 -394h-147l46 265l-46 -39l25 141l45 39l62 350h147l-39 -221l49 44z" />
    <glyph glyph-name="Nacute" unicode="&#x143;" horiz-adv-x="599" 
d="M495 0h-165l-93 441h-3l-72 -441h-138l123 708h169l89 -447h4l74 447h135zM419 765h-101l112 144h127z" />
    <glyph glyph-name="nacute" unicode="&#x144;" horiz-adv-x="525" 
d="M331 590h-101l112 144h127zM491 410q0 -19 -2.5 -43t-7.5 -48l-55 -319h-146l56 319q2 9 3 18.5t1 18.5q0 21 -8.5 36t-32.5 15q-30 0 -51.5 -28.5t-29.5 -73.5l-53 -305h-146l69 393q2 12 5 30.5t5.5 37t5 34.5t3.5 25h138q-2 -14 -4.5 -35.5t-5.5 -40.5h2
q20 39 55 65.5t83 26.5q31 0 53.5 -11.5t36 -29.5t20 -40.5t6.5 -44.5z" />
    <glyph glyph-name="Ncommaaccent" unicode="&#x145;" horiz-adv-x="599" 
d="M495 0h-165l-93 441h-3l-72 -441h-138l123 708h169l89 -447h4l74 447h135zM205 -236h-99l94 191h111z" />
    <glyph glyph-name="ncommaaccent" unicode="&#x146;" horiz-adv-x="525" 
d="M491 410q0 -19 -2.5 -43t-7.5 -48l-55 -319h-146l56 319q2 9 3 18.5t1 18.5q0 21 -8.5 36t-32.5 15q-30 0 -51.5 -28.5t-29.5 -73.5l-53 -305h-146l69 393q2 12 5 30.5t5.5 37t5 34.5t3.5 25h138q-2 -14 -4.5 -35.5t-5.5 -40.5h2q20 39 55 65.5t83 26.5q31 0 53.5 -11.5
t36 -29.5t20 -40.5t6.5 -44.5zM162 -236h-99l94 191h111z" />
    <glyph glyph-name="Ncaron" unicode="&#x147;" horiz-adv-x="599" 
d="M495 0h-165l-93 441h-3l-72 -441h-138l123 708h169l89 -447h4l74 447h135zM438 764h-116l-89 144h104l51 -83l79 83h110z" />
    <glyph glyph-name="ncaron" unicode="&#x148;" horiz-adv-x="525" 
d="M367 589h-116l-89 144h104l51 -83l79 83h110zM491 410q0 -19 -2.5 -43t-7.5 -48l-55 -319h-146l56 319q2 9 3 18.5t1 18.5q0 21 -8.5 36t-32.5 15q-30 0 -51.5 -28.5t-29.5 -73.5l-53 -305h-146l69 393q2 12 5 30.5t5.5 37t5 34.5t3.5 25h138q-2 -14 -4.5 -35.5
t-5.5 -40.5h2q20 39 55 65.5t83 26.5q31 0 53.5 -11.5t36 -29.5t20 -40.5t6.5 -44.5z" />
    <glyph glyph-name="napostrophe" unicode="&#x149;" horiz-adv-x="605" 
d="M571 410q0 -19 -2.5 -43t-7.5 -48l-55 -319h-146l56 319q2 9 3 18.5t1 18.5q0 21 -8.5 36t-32.5 15q-30 0 -51.5 -28.5t-29.5 -73.5l-53 -305h-146l69 393q2 12 5 30.5t5.5 37t5 34.5t3.5 25h138q-2 -14 -4.5 -35.5t-5.5 -40.5h2q20 39 55 65.5t83 26.5q31 0 53.5 -11.5
t36 -29.5t20 -40.5t6.5 -44.5zM147 517h-99l94 191h111z" />
    <glyph glyph-name="Omacron" unicode="&#x14c;" horiz-adv-x="607" 
d="M604 454q0 -87 -23 -171.5t-65.5 -151.5t-104 -108t-138.5 -41q-54 0 -96.5 19.5t-71.5 55t-44 85t-15 110.5q0 87 22.5 172t65 152t104 108.5t139.5 41.5q57 0 99.5 -19.5t71 -55.5t42.5 -86t14 -111zM445 432q0 28 -4 55t-13.5 47t-25.5 32.5t-40 12.5q-38 0 -67.5 -31
t-49.5 -78t-30 -102t-10 -102q0 -28 4.5 -53t14 -43.5t26 -29t40.5 -10.5q36 0 65 29t49 74t30.5 98t10.5 101zM551 798h-294l13 79h295z" />
    <glyph glyph-name="omacron" unicode="&#x14d;" horiz-adv-x="488" 
d="M461 623h-294l13 79h295zM468 334q0 -68 -17 -131t-49 -111.5t-80 -78t-109 -29.5q-87 0 -135 55.5t-48 147.5q0 67 17.5 130t50.5 112t81 78t108 29q86 0 133.5 -55.5t47.5 -146.5zM327 322q0 40 -12.5 64.5t-40.5 24.5q-25 0 -44 -22t-31.5 -54.5t-19 -70t-6.5 -67.5
q0 -39 11.5 -63t39.5 -24q25 0 44.5 21.5t32.5 53.5t19.5 69t6.5 68z" />
    <glyph glyph-name="Obreve" unicode="&#x14e;" horiz-adv-x="607" 
d="M604 454q0 -87 -23 -171.5t-65.5 -151.5t-104 -108t-138.5 -41q-54 0 -96.5 19.5t-71.5 55t-44 85t-15 110.5q0 87 22.5 172t65 152t104 108.5t139.5 41.5q57 0 99.5 -19.5t71 -55.5t42.5 -86t14 -111zM445 432q0 28 -4 55t-13.5 47t-25.5 32.5t-40 12.5q-38 0 -67.5 -31
t-49.5 -78t-30 -102t-10 -102q0 -28 4.5 -53t14 -43.5t26 -29t40.5 -10.5q36 0 65 29t49 74t30.5 98t10.5 101zM562 905q-9 -39 -26 -66t-39 -43t-48 -23t-54 -7q-26 0 -50 7t-42 23t-29 43t-11 66h79q0 -31 18.5 -43t41.5 -12q25 0 48.5 11.5t31.5 43.5h80z" />
    <glyph glyph-name="obreve" unicode="&#x14f;" horiz-adv-x="488" 
d="M472 730q-9 -39 -26 -66t-39 -43t-48 -23t-54 -7q-26 0 -50 7t-42 23t-29 43t-11 66h79q0 -30 18.5 -42.5t41.5 -12.5q25 0 48.5 11.5t31.5 43.5h80zM468 334q0 -68 -17 -131t-49 -111.5t-80 -78t-109 -29.5q-87 0 -135 55.5t-48 147.5q0 67 17.5 130t50.5 112t81 78
t108 29q86 0 133.5 -55.5t47.5 -146.5zM327 322q0 40 -12.5 64.5t-40.5 24.5q-25 0 -44 -22t-31.5 -54.5t-19 -70t-6.5 -67.5q0 -39 11.5 -63t39.5 -24q25 0 44.5 21.5t32.5 53.5t19.5 69t6.5 68z" />
    <glyph glyph-name="Ohungarumlaut" unicode="&#x150;" horiz-adv-x="607" 
d="M604 454q0 -87 -23 -171.5t-65.5 -151.5t-104 -108t-138.5 -41q-54 0 -96.5 19.5t-71.5 55t-44 85t-15 110.5q0 87 22.5 172t65 152t104 108.5t139.5 41.5q57 0 99.5 -19.5t71 -55.5t42.5 -86t14 -111zM445 432q0 28 -4 55t-13.5 47t-25.5 32.5t-40 12.5q-38 0 -67.5 -31
t-49.5 -78t-30 -102t-10 -102q0 -28 4.5 -53t14 -43.5t26 -29t40.5 -10.5q36 0 65 29t49 74t30.5 98t10.5 101zM517 764h-101l113 144h125zM349 764h-100l112 144h126z" />
    <glyph glyph-name="ohungarumlaut" unicode="&#x151;" horiz-adv-x="488" 
d="M436 589h-101l113 144h125zM268 589h-100l112 144h126zM468 334q0 -68 -17 -131t-49 -111.5t-80 -78t-109 -29.5q-87 0 -135 55.5t-48 147.5q0 67 17.5 130t50.5 112t81 78t108 29q86 0 133.5 -55.5t47.5 -146.5zM327 322q0 40 -12.5 64.5t-40.5 24.5q-25 0 -44 -22
t-31.5 -54.5t-19 -70t-6.5 -67.5q0 -39 11.5 -63t39.5 -24q25 0 44.5 21.5t32.5 53.5t19.5 69t6.5 68z" />
    <glyph glyph-name="OE" unicode="&#x152;" horiz-adv-x="720" 
d="M734 573h-183l-26 -147h170l-22 -126h-170l-27 -162h197l-24 -138h-364q-123 0 -181 68t-58 185q0 88 23 170t68 145.5t113 101.5t158 38h350zM383 574q-38 0 -71 -26t-57 -68t-38 -96t-14 -109q0 -72 28 -106.5t76 -34.5h24l76 440h-24z" />
    <glyph glyph-name="oe" unicode="&#x153;" horiz-adv-x="745" 
d="M728 353q0 -20 -3 -52t-12 -76h-260q-3 -20 -3 -33q0 -35 14.5 -57.5t44.5 -22.5q27 0 46 17.5t31 39.5l100 -65q-27 -50 -76 -85t-116 -35q-47 0 -83 20.5t-52 62.5q-25 -39 -62.5 -61t-85.5 -22q-87 0 -134 55.5t-47 147.5q0 67 17.5 130t50.5 112t80.5 78t107.5 29
q48 0 83 -20.5t47 -63.5q26 39 63 62t81 23q45 0 77 -14t52.5 -38.5t29.5 -58.5t9 -73zM600 355q0 32 -11.5 50.5t-35.5 18.5q-17 0 -30.5 -10t-24.5 -25.5t-18.5 -34.5t-10.5 -37h127q2 8 3 19t1 19zM327 322q0 40 -12.5 64.5t-40.5 24.5q-25 0 -44 -22t-31.5 -54.5
t-19 -70t-6.5 -67.5q0 -39 11.5 -63t39.5 -24q25 0 44.5 21.5t32.5 53.5t19.5 69t6.5 68z" />
    <glyph glyph-name="Racute" unicode="&#x154;" horiz-adv-x="536" 
d="M549 526q0 -81 -36.5 -136t-97.5 -76l79 -314h-162l-59 285h-52l-49 -285h-148l123 708h208q94 0 144 -45.5t50 -136.5zM396 506q0 41 -22 57t-50 16h-52l-32 -185h50q44 0 75 28t31 84zM370 765h-101l112 144h127z" />
    <glyph glyph-name="racute" unicode="&#x155;" horiz-adv-x="330" 
d="M259 590h-101l112 144h127zM349 385q-6 2 -13 3t-18 1q-20 0 -37.5 -11t-31.5 -29t-24 -42t-14 -49l-45 -258h-147l69 393q2 12 5 30.5l6 37t5 34.5t3 25h137q0 -7 -1.5 -19t-3 -25t-3.5 -25.5t-3 -20.5h3q43 106 121 106q17 0 25 -3z" />
    <glyph glyph-name="Rcommaaccent" unicode="&#x156;" horiz-adv-x="536" 
d="M549 526q0 -81 -36.5 -136t-97.5 -76l79 -314h-162l-59 285h-52l-49 -285h-148l123 708h208q94 0 144 -45.5t50 -136.5zM396 506q0 41 -22 57t-50 16h-52l-32 -185h50q44 0 75 28t31 84zM188 -236h-99l94 191h111z" />
    <glyph glyph-name="rcommaaccent" unicode="&#x157;" horiz-adv-x="330" 
d="M349 385q-6 2 -13 3t-18 1q-20 0 -37.5 -11t-31.5 -29t-24 -42t-14 -49l-45 -258h-147l69 393q2 12 5 30.5l6 37t5 34.5t3 25h137q0 -7 -1.5 -19t-3 -25t-3.5 -25.5t-3 -20.5h3q43 106 121 106q17 0 25 -3zM41 -236h-99l94 191h111z" />
    <glyph glyph-name="Rcaron" unicode="&#x158;" horiz-adv-x="536" 
d="M549 526q0 -81 -36.5 -136t-97.5 -76l79 -314h-162l-59 285h-52l-49 -285h-148l123 708h208q94 0 144 -45.5t50 -136.5zM396 506q0 41 -22 57t-50 16h-52l-32 -185h50q44 0 75 28t31 84zM404 764h-116l-89 144h104l51 -83l79 83h110z" />
    <glyph glyph-name="rcaron" unicode="&#x159;" horiz-adv-x="330" 
d="M307 589h-116l-89 144h104l51 -83l79 83h110zM349 385q-6 2 -13 3t-18 1q-20 0 -37.5 -11t-31.5 -29t-24 -42t-14 -49l-45 -258h-147l69 393q2 12 5 30.5l6 37t5 34.5t3 25h137q0 -7 -1.5 -19t-3 -25t-3.5 -25.5t-3 -20.5h3q43 106 121 106q17 0 25 -3z" />
    <glyph glyph-name="Sacute" unicode="&#x15a;" horiz-adv-x="462" 
d="M415 546q-17 20 -42 31.5t-52 11.5q-14 0 -29.5 -5.5t-28 -16.5t-21 -27.5t-8.5 -39.5q0 -29 17.5 -48t52.5 -39q20 -12 42.5 -28.5t41 -39t30.5 -52t12 -68.5q0 -61 -20.5 -106.5t-55 -76t-78.5 -45.5t-91 -15q-65 0 -119 22t-84 54l91 115q20 -23 49.5 -37.5
t61.5 -14.5q16 0 32 6t28.5 17t20 27t7.5 36q0 29 -17.5 51.5t-57.5 45.5q-23 13 -44.5 29t-38 38t-26.5 50t-10 65q0 51 18 95t50 76t77 50.5t99 18.5q61 0 109 -19t75 -50zM351 765h-101l112 144h127z" />
    <glyph glyph-name="sacute" unicode="&#x15b;" horiz-adv-x="393" 
d="M282 590h-101l112 144h127zM327 390q-14 15 -34 24.5t-45 9.5q-23 0 -40.5 -13.5t-17.5 -39.5q0 -21 13 -32.5t45 -27.5q21 -11 40 -24t33.5 -30t23.5 -39t9 -49q0 -51 -18.5 -86.5t-47 -57.5t-63.5 -31.5t-68 -9.5q-51 0 -97 18t-75 48l81 94q18 -20 41.5 -32.5
t49.5 -12.5q24 0 42 14t18 40q0 23 -18 38.5t-50 31.5q-20 9 -37 21t-30 28t-20.5 36.5t-7.5 47.5q0 48 18.5 82.5t47.5 56t64.5 31.5t69.5 10q46 0 85.5 -14t63.5 -37z" />
    <glyph glyph-name="Scircumflex" unicode="&#x15c;" horiz-adv-x="462" 
d="M415 546q-17 20 -42 31.5t-52 11.5q-14 0 -29.5 -5.5t-28 -16.5t-21 -27.5t-8.5 -39.5q0 -29 17.5 -48t52.5 -39q20 -12 42.5 -28.5t41 -39t30.5 -52t12 -68.5q0 -61 -20.5 -106.5t-55 -76t-78.5 -45.5t-91 -15q-65 0 -119 22t-84 54l91 115q20 -23 49.5 -37.5
t61.5 -14.5q16 0 32 6t28.5 17t20 27t7.5 36q0 29 -17.5 51.5t-57.5 45.5q-23 13 -44.5 29t-38 38t-26.5 50t-10 65q0 51 18 95t50 76t77 50.5t99 18.5q61 0 109 -19t75 -50zM402 764l-52 83l-78 -83h-110l140 144h116l88 -144h-104z" />
    <glyph glyph-name="scircumflex" unicode="&#x15d;" horiz-adv-x="393" 
d="M336 589l-52 83l-78 -83h-110l140 144h116l88 -144h-104zM327 390q-14 15 -34 24.5t-45 9.5q-23 0 -40.5 -13.5t-17.5 -39.5q0 -21 13 -32.5t45 -27.5q21 -11 40 -24t33.5 -30t23.5 -39t9 -49q0 -51 -18.5 -86.5t-47 -57.5t-63.5 -31.5t-68 -9.5q-51 0 -97 18t-75 48
l81 94q18 -20 41.5 -32.5t49.5 -12.5q24 0 42 14t18 40q0 23 -18 38.5t-50 31.5q-20 9 -37 21t-30 28t-20.5 36.5t-7.5 47.5q0 48 18.5 82.5t47.5 56t64.5 31.5t69.5 10q46 0 85.5 -14t63.5 -37z" />
    <glyph glyph-name="Scedilla" unicode="&#x15e;" horiz-adv-x="462" 
d="M279 -135q0 -28 -14 -47.5t-35 -31.5t-46 -17t-48 -5q-25 0 -56 6t-53 17l34 60q14 -8 34 -11.5t37 -3.5q19 0 34.5 6.5t15.5 23.5q0 14 -9.5 20t-25.5 6q-22 0 -41 -6l-25 26l65 76q-53 6 -95.5 26t-68.5 48l91 115q20 -23 49.5 -37.5t61.5 -14.5q16 0 32 6t28.5 17
t20 27t7.5 36q0 29 -17.5 51.5t-57.5 45.5q-23 13 -44.5 29t-38 38t-26.5 50t-10 65q0 51 18 95t50 76t77 50.5t99 18.5q61 0 109 -19t75 -50l-91 -111q-17 20 -42 31.5t-52 11.5q-14 0 -29.5 -5.5t-28 -16.5t-21 -27.5t-8.5 -39.5q0 -29 17.5 -48t52.5 -39
q20 -12 42.5 -28.5t41 -39t30.5 -52t12 -68.5q0 -54 -16.5 -96t-44.5 -72t-65 -47.5t-77 -23.5l-42 -48q5 1 10 1.5t12 0.5q12 0 25 -4t23.5 -13t17 -23t6.5 -35z" />
    <glyph glyph-name="scedilla" unicode="&#x15f;" horiz-adv-x="393" 
d="M260 -135q0 -28 -14 -47.5t-35 -31.5t-46 -17t-48 -5q-25 0 -56 6t-53 17l34 60q14 -8 34 -11.5t37 -3.5q19 0 34.5 6.5t15.5 23.5q0 14 -9.5 20t-25.5 6q-22 0 -41 -6l-25 26l66 78q-42 5 -80 21.5t-63 42.5l81 94q18 -20 41.5 -32.5t49.5 -12.5q24 0 42 14t18 40
q0 23 -18 38.5t-50 31.5q-20 9 -37 21t-30 28t-20.5 36.5t-7.5 47.5q0 48 18.5 82.5t47.5 56t64.5 31.5t69.5 10q46 0 85.5 -14t63.5 -37l-76 -95q-14 15 -34 24.5t-45 9.5q-23 0 -40.5 -13.5t-17.5 -39.5q0 -21 13 -32.5t45 -27.5q21 -11 40 -24t33.5 -30t23.5 -39t9 -49
q0 -41 -12 -71.5t-31.5 -52.5t-45.5 -35.5t-53 -19.5l-46 -52q5 1 10 1.5t12 0.5q12 0 25 -4t23.5 -13t17 -23t6.5 -35z" />
    <glyph glyph-name="Scaron" unicode="&#x160;" horiz-adv-x="462" 
d="M415 546q-17 20 -42 31.5t-52 11.5q-14 0 -29.5 -5.5t-28 -16.5t-21 -27.5t-8.5 -39.5q0 -29 17.5 -48t52.5 -39q20 -12 42.5 -28.5t41 -39t30.5 -52t12 -68.5q0 -61 -20.5 -106.5t-55 -76t-78.5 -45.5t-91 -15q-65 0 -119 22t-84 54l91 115q20 -23 49.5 -37.5
t61.5 -14.5q16 0 32 6t28.5 17t20 27t7.5 36q0 29 -17.5 51.5t-57.5 45.5q-23 13 -44.5 29t-38 38t-26.5 50t-10 65q0 51 18 95t50 76t77 50.5t99 18.5q61 0 109 -19t75 -50zM387 764h-116l-89 144h104l51 -83l79 83h110z" />
    <glyph glyph-name="scaron" unicode="&#x161;" horiz-adv-x="393" 
d="M318 589h-116l-89 144h104l51 -83l79 83h110zM327 390q-14 15 -34 24.5t-45 9.5q-23 0 -40.5 -13.5t-17.5 -39.5q0 -21 13 -32.5t45 -27.5q21 -11 40 -24t33.5 -30t23.5 -39t9 -49q0 -51 -18.5 -86.5t-47 -57.5t-63.5 -31.5t-68 -9.5q-51 0 -97 18t-75 48l81 94
q18 -20 41.5 -32.5t49.5 -12.5q24 0 42 14t18 40q0 23 -18 38.5t-50 31.5q-20 9 -37 21t-30 28t-20.5 36.5t-7.5 47.5q0 48 18.5 82.5t47.5 56t64.5 31.5t69.5 10q46 0 85.5 -14t63.5 -37z" />
    <glyph glyph-name="Tcommaaccent" unicode="&#x162;" horiz-adv-x="409" 
d="M469 577h-130l-101 -577h-152l101 577h-130l23 131h412zM110 -236h-99l94 191h111z" />
    <glyph glyph-name="tcommaaccent" unicode="&#x163;" horiz-adv-x="305" 
d="M322 403h-84l-39 -213q-2 -8 -3 -18t-1 -16q0 -44 43 -44q8 0 18 2t17 4l-19 -111q-14 -7 -35.5 -11.5t-40.5 -4.5q-65 0 -97.5 31t-32.5 86q0 9 1 21t3 24l44 250h-69l21 117h68l22 127h141l-23 -127h88zM81 -236h-99l94 191h111z" />
    <glyph glyph-name="Tcaron" unicode="&#x164;" horiz-adv-x="409" 
d="M469 577h-130l-101 -577h-152l101 577h-130l23 131h412zM348 764h-116l-89 144h104l51 -83l79 83h110z" />
    <glyph glyph-name="tcaron" unicode="&#x165;" horiz-adv-x="305" 
d="M322 403h-84l-39 -213q-2 -8 -3 -18t-1 -16q0 -44 43 -44q8 0 18 2t17 4l-19 -111q-14 -7 -35.5 -11.5t-40.5 -4.5q-65 0 -97.5 31t-32.5 86q0 9 1 21t3 24l44 250h-69l21 117h68l22 127h141l-23 -127h88zM400 550h-99l94 191h111z" />
    <glyph glyph-name="Tbar" unicode="&#x166;" horiz-adv-x="409" 
d="M376 394h-69l-69 -394h-152l69 394h-69l13 76h69l19 107h-130l23 131h412l-23 -131h-130l-19 -107h70z" />
    <glyph glyph-name="tbar" unicode="&#x167;" horiz-adv-x="305" 
d="M273 256h-62l-12 -66q-2 -8 -3 -18t-1 -16q0 -44 43 -44q8 0 18 2t17 4l-19 -111q-14 -7 -35.5 -11.5t-40.5 -4.5q-65 0 -97.5 31t-32.5 86q0 9 1 21t3 24l18 103h-57l14 73h56l13 74h-69l21 117h68l22 127h141l-23 -127h88l-22 -117h-84l-14 -74h64z" />
    <glyph glyph-name="Utilde" unicode="&#x168;" horiz-adv-x="576" 
d="M531 262q-11 -59 -29 -110t-49 -89t-77 -59.5t-113 -21.5q-54 0 -94 15t-66.5 42t-39.5 63.5t-13 80.5q0 18 1.5 38t5.5 41l78 446h155l-76 -434q-3 -17 -5 -33.5t-2 -30.5q0 -35 14.5 -58t51.5 -23q26 0 44 11.5t30 31t20 46t13 56.5l75 434h154zM557 892
q-11 -56 -40 -90t-69 -34q-36 0 -69 23q-20 14 -29.5 18t-22.5 4q-14 0 -24.5 -11t-15.5 -29h-60q11 54 39.5 88t69.5 34q20 0 36 -6t33 -18q20 -13 30 -17.5t24 -4.5q29 0 39 43h59z" />
    <glyph glyph-name="utilde" unicode="&#x169;" horiz-adv-x="525" 
d="M495 717q-11 -56 -40 -90t-69 -34q-36 0 -69 23q-20 14 -29.5 18t-22.5 4q-14 0 -24.5 -11t-15.5 -29h-60q10 54 40 88q14 16 31.5 25t37.5 9t36 -6t33 -18q20 -13 30 -17.5t24 -4.5q29 0 39 43h59zM443 127q-2 -13 -5 -31t-6 -37t-5.5 -35t-3.5 -24h-137q2 14 4.5 35
t5.5 41h-3q-20 -40 -54.5 -66t-82.5 -26q-32 0 -54 11t-35.5 29t-20 40.5t-6.5 45.5q0 19 2.5 42.5t7.5 47.5l55 320h146l-56 -319q-2 -10 -3 -19.5t-1 -17.5q0 -21 8.5 -36t32.5 -15q30 0 51.5 28.5t29.5 73.5l53 305h146z" />
    <glyph glyph-name="Umacron" unicode="&#x16a;" horiz-adv-x="576" 
d="M531 262q-11 -59 -29 -110t-49 -89t-77 -59.5t-113 -21.5q-54 0 -94 15t-66.5 42t-39.5 63.5t-13 80.5q0 18 1.5 38t5.5 41l78 446h155l-76 -434q-3 -17 -5 -33.5t-2 -30.5q0 -35 14.5 -58t51.5 -23q26 0 44 11.5t30 31t20 46t13 56.5l75 434h154zM533 798h-294l13 79
h295z" />
    <glyph glyph-name="umacron" unicode="&#x16b;" horiz-adv-x="525" 
d="M473 623h-294l13 79h295zM443 127q-2 -13 -5 -31t-6 -37t-5.5 -35t-3.5 -24h-137q2 14 4.5 35t5.5 41h-3q-20 -40 -54.5 -66t-82.5 -26q-32 0 -54 11t-35.5 29t-20 40.5t-6.5 45.5q0 19 2.5 42.5t7.5 47.5l55 320h146l-56 -319q-2 -10 -3 -19.5t-1 -17.5q0 -21 8.5 -36
t32.5 -15q30 0 51.5 28.5t29.5 73.5l53 305h146z" />
    <glyph glyph-name="Ubreve" unicode="&#x16c;" horiz-adv-x="576" 
d="M531 262q-11 -59 -29 -110t-49 -89t-77 -59.5t-113 -21.5q-54 0 -94 15t-66.5 42t-39.5 63.5t-13 80.5q0 18 1.5 38t5.5 41l78 446h155l-76 -434q-3 -17 -5 -33.5t-2 -30.5q0 -35 14.5 -58t51.5 -23q26 0 44 11.5t30 31t20 46t13 56.5l75 434h154zM548 905
q-9 -39 -26 -66t-39 -43t-48 -23t-54 -7q-26 0 -50 7t-42 23t-29 43t-11 66h79q0 -31 18.5 -43t41.5 -12q25 0 48.5 11.5t31.5 43.5h80z" />
    <glyph glyph-name="ubreve" unicode="&#x16d;" horiz-adv-x="525" 
d="M486 730q-9 -39 -26 -66t-39 -43t-48 -23t-54 -7q-26 0 -50 7t-42 23t-29 43t-11 66h79q0 -30 18.5 -42.5t41.5 -12.5q25 0 48.5 11.5t31.5 43.5h80zM443 127q-2 -13 -5 -31t-6 -37t-5.5 -35t-3.5 -24h-137q2 14 4.5 35t5.5 41h-3q-20 -40 -54.5 -66t-82.5 -26
q-32 0 -54 11t-35.5 29t-20 40.5t-6.5 45.5q0 19 2.5 42.5t7.5 47.5l55 320h146l-56 -319q-2 -10 -3 -19.5t-1 -17.5q0 -21 8.5 -36t32.5 -15q30 0 51.5 28.5t29.5 73.5l53 305h146z" />
    <glyph glyph-name="Uring" unicode="&#x16e;" horiz-adv-x="576" 
d="M531 262q-11 -59 -29 -110t-49 -89t-77 -59.5t-113 -21.5q-54 0 -94 15t-66.5 42t-39.5 63.5t-13 80.5q0 18 1.5 38t5.5 41l78 446h155l-76 -434q-3 -17 -5 -33.5t-2 -30.5q0 -35 14.5 -58t51.5 -23q26 0 44 11.5t30 31t20 46t13 56.5l75 434h154zM491 871
q0 -25 -8.5 -47.5t-24 -39.5t-36 -27t-44.5 -10q-42 0 -64.5 25t-22.5 63q0 26 8.5 49t23 40.5t34 28t42.5 10.5q46 0 69 -27t23 -65zM446 867q0 21 -11.5 37.5t-36.5 16.5q-30 0 -46.5 -25.5t-16.5 -56.5q0 -21 11.5 -36t35.5 -15q14 0 26 7t20.5 18t13 25t4.5 29z" />
    <glyph glyph-name="uring" unicode="&#x16f;" horiz-adv-x="525" 
d="M429 696q0 -25 -8.5 -47.5t-24 -39.5t-36 -27t-44.5 -10q-42 0 -64.5 25t-22.5 63q0 26 8.5 49.5t23 41t34 27.5t42.5 10q46 0 69 -27t23 -65zM384 692q0 21 -11.5 37.5t-36.5 16.5q-30 0 -46.5 -25.5t-16.5 -56.5q0 -21 11.5 -36t35.5 -15q14 0 26 7t20.5 18t13 25
t4.5 29zM443 127q-2 -13 -5 -31t-6 -37t-5.5 -35t-3.5 -24h-137q2 14 4.5 35t5.5 41h-3q-20 -40 -54.5 -66t-82.5 -26q-32 0 -54 11t-35.5 29t-20 40.5t-6.5 45.5q0 19 2.5 42.5t7.5 47.5l55 320h146l-56 -319q-2 -10 -3 -19.5t-1 -17.5q0 -21 8.5 -36t32.5 -15
q30 0 51.5 28.5t29.5 73.5l53 305h146z" />
    <glyph glyph-name="Uhungarumlaut" unicode="&#x170;" horiz-adv-x="576" 
d="M531 262q-11 -59 -29 -110t-49 -89t-77 -59.5t-113 -21.5q-54 0 -94 15t-66.5 42t-39.5 63.5t-13 80.5q0 18 1.5 38t5.5 41l78 446h155l-76 -434q-3 -17 -5 -33.5t-2 -30.5q0 -35 14.5 -58t51.5 -23q26 0 44 11.5t30 31t20 46t13 56.5l75 434h154zM514 764h-101l113 144
h125zM346 764h-100l112 144h126z" />
    <glyph glyph-name="uhungarumlaut" unicode="&#x171;" horiz-adv-x="525" 
d="M453 589h-101l113 144h125zM285 589h-100l112 144h126zM443 127q-2 -13 -5 -31t-6 -37t-5.5 -35t-3.5 -24h-137q2 14 4.5 35t5.5 41h-3q-20 -40 -54.5 -66t-82.5 -26q-32 0 -54 11t-35.5 29t-20 40.5t-6.5 45.5q0 19 2.5 42.5t7.5 47.5l55 320h146l-56 -319
q-2 -10 -3 -19.5t-1 -17.5q0 -21 8.5 -36t32.5 -15q30 0 51.5 28.5t29.5 73.5l53 305h146z" />
    <glyph glyph-name="Uogonek" unicode="&#x172;" horiz-adv-x="576" 
d="M213 -232q-17 0 -33 4.5t-28.5 14t-20.5 25.5t-8 40q0 20 8 38.5t21.5 35t30.5 31.5t36 28q-85 12 -127 66t-42 132q0 18 1.5 38t5.5 41l78 446h155l-76 -434q-3 -17 -5 -33.5t-2 -30.5q0 -35 14.5 -58t51.5 -23q26 0 44 11.5t30 31t20 46t13 56.5l75 434h154l-78 -446
q-9 -53 -24.5 -99.5t-40.5 -83t-61.5 -61t-88.5 -32.5q-49 -38 -70 -61t-21 -44q0 -15 7.5 -21.5t18.5 -6.5q12 0 26.5 5t25.5 14l19 -64q-24 -19 -52 -29.5t-57 -10.5z" />
    <glyph glyph-name="uogonek" unicode="&#x173;" horiz-adv-x="525" 
d="M300 -232q-17 0 -33 4.5t-28.5 14t-20.5 25.5t-8 40q0 23 10.5 44t27.5 39.5t38.5 35t43.5 29.5h-44q2 14 4.5 35t5.5 41h-3q-20 -40 -54.5 -66t-82.5 -26q-32 0 -54 11t-35.5 29t-20 40.5t-6.5 45.5q0 19 2.5 42.5t7.5 47.5l55 320h146l-56 -319q-2 -10 -3 -19.5
t-1 -17.5q0 -21 8.5 -36t32.5 -15q30 0 51.5 28.5t29.5 73.5l53 305h146l-69 -393q-2 -13 -5 -31t-6 -37t-5.5 -35t-3.5 -24h-1q-59 -44 -84.5 -70.5t-25.5 -48.5q0 -15 7.5 -21.5t18.5 -6.5q12 0 26.5 5t25.5 14l19 -64q-24 -19 -52 -29.5t-57 -10.5z" />
    <glyph glyph-name="Wcircumflex" unicode="&#x174;" horiz-adv-x="793" 
d="M609 0h-164l-3 484h-3l-171 -484h-168l-6 708h154l-12 -502h5l167 502h149l-4 -502h3l162 502h150zM556 764l-52 83l-78 -83h-110l140 144h116l88 -144h-104z" />
    <glyph glyph-name="wcircumflex" unicode="&#x175;" horiz-adv-x="678" 
d="M471 589l-52 83l-78 -83h-110l140 144h116l88 -144h-104zM510 0h-151l-6 321h-1l-129 -321h-146l-18 520h145l-5 -340h2l126 340h123l5 -340h2l116 340h147z" />
    <glyph glyph-name="Ycircumflex" unicode="&#x176;" horiz-adv-x="493" 
d="M321 256l-45 -256h-155l45 256l-96 452h162l37 -294h3l140 294h167zM397 764l-52 83l-78 -83h-110l140 144h116l88 -144h-104z" />
    <glyph glyph-name="ycircumflex" unicode="&#x177;" horiz-adv-x="458" 
d="M361 589l-52 83l-78 -83h-110l140 144h116l88 -144h-104zM255 -43q-19 -43 -39.5 -79t-47 -62.5t-60 -41t-78.5 -14.5q-23 0 -40.5 3t-29.5 7l27 130q5 -3 15 -5t22 -2q25 0 39.5 14.5t25.5 39.5l19 44l-57 529h151l13 -363h3l139 363h147z" />
    <glyph glyph-name="Ydieresis" unicode="&#x178;" horiz-adv-x="493" 
d="M321 256l-45 -256h-155l45 256l-96 452h162l37 -294h3l140 294h167zM505 851q0 -35 -21.5 -58t-53.5 -23q-31 0 -47 19.5t-16 43.5q0 16 5.5 30.5t15.5 25.5t24 18t30 7q31 0 47 -18t16 -45zM319 851q0 -35 -21.5 -58t-53.5 -23q-30 0 -46 19.5t-16 43.5q0 32 21 56.5
t54 24.5q30 0 46 -18t16 -45z" />
    <glyph glyph-name="Zacute" unicode="&#x179;" horiz-adv-x="452" 
d="M480 586l-297 -447h222l-24 -139h-401l21 125l297 448h-199l24 135h378zM348 765h-101l112 144h127z" />
    <glyph glyph-name="zacute" unicode="&#x17a;" horiz-adv-x="388" 
d="M280 590h-101l112 144h127zM390 404l-229 -282h182l-21 -122h-341l21 120l225 277h-163l21 123h324z" />
    <glyph glyph-name="Zdotaccent" unicode="&#x17b;" horiz-adv-x="452" 
d="M480 586l-297 -447h222l-24 -139h-401l21 125l297 448h-199l24 135h378zM412 853q0 -42 -25.5 -69t-63.5 -27q-36 0 -55 22.5t-19 51.5q0 19 6.5 36.5t18.5 31t28 21.5t35 8q37 0 56 -21.5t19 -53.5z" />
    <glyph glyph-name="zdotaccent" unicode="&#x17c;" horiz-adv-x="388" 
d="M346 678q0 -41 -25.5 -68.5t-63.5 -27.5q-36 0 -55 22.5t-19 51.5q0 19 6.5 36.5t18.5 31t28 21.5t35 8q37 0 56 -21.5t19 -53.5zM390 404l-229 -282h182l-21 -122h-341l21 120l225 277h-163l21 123h324z" />
    <glyph glyph-name="Zcaron" unicode="&#x17d;" horiz-adv-x="452" 
d="M480 586l-297 -447h222l-24 -139h-401l21 125l297 448h-199l24 135h378zM376 764h-116l-89 144h104l51 -83l79 83h110z" />
    <glyph glyph-name="zcaron" unicode="&#x17e;" horiz-adv-x="388" 
d="M315 589h-116l-89 144h104l51 -83l79 83h110zM390 404l-229 -282h182l-21 -122h-341l21 120l225 277h-163l21 123h324z" />
    <glyph glyph-name="florin" unicode="&#x192;" horiz-adv-x="519" 
d="M521 578q-22 14 -45 14q-28 0 -45.5 -18.5t-31.5 -56.5l-27 -79h101l-19 -109h-120l-103 -300q-26 -75 -74 -122t-125 -47q-23 0 -42 2.5t-35 8.5l40 127q11 -7 29 -7q29 0 44 23t29 62l86 253h-91l20 109h103l23 71q15 46 34 85.5t46 68.5t64.5 46t88.5 17q35 0 62.5 -8
t44.5 -19z" />
    <glyph glyph-name="Scommaaccent" unicode="&#x218;" horiz-adv-x="462" 
d="M415 546q-17 20 -42 31.5t-52 11.5q-14 0 -29.5 -5.5t-28 -16.5t-21 -27.5t-8.5 -39.5q0 -29 17.5 -48t52.5 -39q20 -12 42.5 -28.5t41 -39t30.5 -52t12 -68.5q0 -61 -20.5 -106.5t-55 -76t-78.5 -45.5t-91 -15q-65 0 -119 22t-84 54l91 115q20 -23 49.5 -37.5
t61.5 -14.5q16 0 32 6t28.5 17t20 27t7.5 36q0 29 -17.5 51.5t-57.5 45.5q-23 13 -44.5 29t-38 38t-26.5 50t-10 65q0 51 18 95t50 76t77 50.5t99 18.5q61 0 109 -19t75 -50zM120 -242h-99l94 191h111z" />
    <glyph glyph-name="scommaaccent" unicode="&#x219;" horiz-adv-x="393" 
d="M327 390q-14 15 -34 24.5t-45 9.5q-23 0 -40.5 -13.5t-17.5 -39.5q0 -21 13 -32.5t45 -27.5q21 -11 40 -24t33.5 -30t23.5 -39t9 -49q0 -51 -18.5 -86.5t-47 -57.5t-63.5 -31.5t-68 -9.5q-51 0 -97 18t-75 48l81 94q18 -20 41.5 -32.5t49.5 -12.5q24 0 42 14t18 40
q0 23 -18 38.5t-50 31.5q-20 9 -37 21t-30 28t-20.5 36.5t-7.5 47.5q0 48 18.5 82.5t47.5 56t64.5 31.5t69.5 10q46 0 85.5 -14t63.5 -37zM115 -236h-99l94 191h111z" />
    <glyph glyph-name="uni021A" unicode="&#x21a;" horiz-adv-x="409" 
d="M469 577h-130l-101 -577h-152l101 577h-130l23 131h412zM110 -236h-99l94 191h111z" />
    <glyph glyph-name="uni021B" unicode="&#x21b;" horiz-adv-x="305" 
d="M322 403h-84l-39 -213q-2 -8 -3 -18t-1 -16q0 -44 43 -44q8 0 18 2t17 4l-19 -111q-14 -7 -35.5 -11.5t-40.5 -4.5q-65 0 -97.5 31t-32.5 86q0 9 1 21t3 24l44 250h-69l21 117h68l22 127h141l-23 -127h88zM81 -236h-99l94 191h111z" />
    <glyph glyph-name="circumflex" unicode="&#x2c6;" horiz-adv-x="265" 
d="M263 589l-52 83l-78 -83h-110l140 144h116l88 -144h-104z" />
    <glyph glyph-name="caron" unicode="&#x2c7;" horiz-adv-x="265" 
d="M254 589h-116l-89 144h104l51 -83l79 83h110z" />
    <glyph glyph-name="uni02C9" unicode="&#x2c9;" horiz-adv-x="265" 
d="M349 798h-294l13 79h295z" />
    <glyph glyph-name="breve" unicode="&#x2d8;" horiz-adv-x="265" 
d="M371 730q-9 -39 -26 -66t-39 -43t-48 -23t-54 -7q-26 0 -50 7t-42 23t-29 43t-11 66h79q0 -30 18.5 -42.5t41.5 -12.5q25 0 48.5 11.5t31.5 43.5h80v0z" />
    <glyph glyph-name="dotaccent" unicode="&#x2d9;" horiz-adv-x="265" 
d="M286 678q0 -41 -25.5 -68.5t-63.5 -27.5q-36 0 -55 22.5t-19 51.5q0 19 6.5 36.5t18.5 31t28 21.5t35 8q37 0 56 -21.5t19 -53.5z" />
    <glyph glyph-name="ring" unicode="&#x2da;" horiz-adv-x="265" 
d="M313 696q0 -25 -8.5 -47.5t-24 -39.5t-36 -27t-44.5 -10q-42 0 -64.5 25t-22.5 63q0 26 8.5 49.5t23 41t34 27.5t42.5 10q46 0 69 -27t23 -65zM268 692q0 21 -11.5 37.5t-36.5 16.5q-30 0 -46.5 -25.5t-16.5 -56.5q0 -21 11.5 -36t35.5 -15q14 0 26 7t20.5 18t13 25
t4.5 29z" />
    <glyph glyph-name="ogonek" unicode="&#x2db;" horiz-adv-x="265" 
d="M49 -232q-17 0 -33 4.5t-28.5 14t-20.5 25.5t-8 40q0 23 10.5 44t27.5 39.5t38.5 35t43.5 29.5h92q-59 -44 -84.5 -70.5t-25.5 -48.5q0 -15 7.5 -21.5t18.5 -6.5q12 0 26.5 5t25.5 14l19 -64q-24 -19 -52 -29.5t-57 -10.5z" />
    <glyph glyph-name="tilde" unicode="&#x2dc;" horiz-adv-x="265" 
d="M373 717q-11 -56 -40 -90t-69 -34q-36 0 -69 23q-20 14 -29.5 18t-22.5 4q-14 0 -24.5 -11t-15.5 -29h-60q10 54 40 88q14 16 31.5 25t37.5 9t36 -6t33 -18q20 -13 30 -17.5t24 -4.5q29 0 39 43h59v0z" />
    <glyph glyph-name="hungarumlaut" unicode="&#x2dd;" horiz-adv-x="265" 
d="M307 589h-101l113 144h125zM139 589h-100l112 144h126z" />
    <glyph glyph-name="uni0394" unicode="&#x394;" horiz-adv-x="710" 
d="M-41 0l418 708h140l134 -708h-692zM400 503l-206 -358h268z" />
    <glyph glyph-name="uni03A9" unicode="&#x3a9;" horiz-adv-x="771" 
d="M379 0l46 219q34 8 62 25t50 42q44 50 59 119q8 40 0.5 72.5t-26.5 55t-47.5 35t-62.5 12.5q-35 0 -69 -12t-63 -35t-50.5 -55.5t-30.5 -73.5q-14 -69 11.5 -118.5t79.5 -66.5l-46 -219h-291l30 144h167l2 11q-36 12 -62 36t-40 56q-31 67 -11 158q15 71 54 129t93 99.5
t119.5 64.5t134.5 23t125 -22.5t93 -63.5t51 -99t-1 -129q-10 -45 -29.5 -85.5t-47.5 -73.5t-64.5 -57t-79.5 -36l-2 -11h167l-30 -144h-291z" />
    <glyph glyph-name="uni03BC" unicode="&#x3bc;" 
d="M306 498l-52 -248q-4 -17 -6 -38.5t2 -40.5t16.5 -32t37.5 -13t44.5 9t33.5 24t23 35t14 43l55 261h162l-105 -498h-155l12 57h-1q-21 -26 -50.5 -45t-74.5 -19q-18 0 -34 5t-25 15l-51 -239h-162l154 724h162z" />
    <glyph glyph-name="pi" unicode="&#x3c0;" 
d="M580 18q-29 -14 -59.5 -19.5t-64.5 -5.5q-37 0 -58.5 10.5t-31.5 29.5t-10.5 44t5.5 54l49 230h-115l-76 -361h-166l76 361h-69l29 137h591l-29 -137h-78l-42 -201q-4 -16 0 -29.5t25 -13.5q18 0 48 12l-24 -111v0z" />
    <glyph glyph-name="endash" unicode="&#x2013;" horiz-adv-x="354" 
d="M331 227h-312l18 96h312z" />
    <glyph glyph-name="emdash" unicode="&#x2014;" horiz-adv-x="454" 
d="M434 227h-412l17 96h412z" />
    <glyph glyph-name="quoteleft" unicode="&#x2018;" horiz-adv-x="221" 
d="M182 453h-112l107 255h99z" />
    <glyph glyph-name="quoteright" unicode="&#x2019;" horiz-adv-x="221" 
d="M169 453h-99l94 255h112z" />
    <glyph glyph-name="quotesinglbase" unicode="&#x201a;" horiz-adv-x="221" 
d="M70 -115h-99l94 255h111z" />
    <glyph glyph-name="quotedblleft" unicode="&#x201c;" horiz-adv-x="385" 
d="M182 453h-112l107 255h99zM346 453h-111l106 255h99z" />
    <glyph glyph-name="quotedblright" unicode="&#x201d;" horiz-adv-x="384" 
d="M169 453h-99l94 255h112zM333 453h-99l94 255h111z" />
    <glyph glyph-name="quotedblbase" unicode="&#x201e;" horiz-adv-x="384" 
d="M231 -115h-100l94 255h112zM67 -115h-99l94 255h111z" />
    <glyph glyph-name="dagger" unicode="&#x2020;" horiz-adv-x="432" 
d="M444 382h-136l-90 -513h-128l90 513h-136l22 126h136l35 200h129l-35 -200h135z" />
    <glyph glyph-name="daggerdbl" unicode="&#x2021;" horiz-adv-x="432" 
d="M448 406h-135l-42 -235h136l-22 -122h-135l-31 -180h-129l31 180h-136l22 122h136l41 235h-136l22 122h135l32 180h129l-32 -180h136z" />
    <glyph glyph-name="bullet" unicode="&#x2022;" horiz-adv-x="500" 
d="M427 354q0 -37 -14 -69t-38 -56t-56 -38t-69 -14t-69 14t-56 38t-38 56t-14 69t14 69t38 56t56 38t69 14t69 -14t56 -38t38 -56t14 -69z" />
    <glyph glyph-name="ellipsis" unicode="&#x2026;" horiz-adv-x="900" 
d="M811 90q0 -42 -26 -70.5t-65 -28.5q-37 0 -56 23.5t-19 52.5q0 19 6.5 37t18.5 32t28.5 22.5t36.5 8.5q38 0 57 -22.5t19 -54.5zM211 90q0 -42 -26 -70.5t-65 -28.5q-37 0 -56 23.5t-19 52.5q0 19 6.5 37t18.5 32t28.5 22.5t36.5 8.5q38 0 57 -22.5t19 -54.5zM511 90
q0 -42 -26 -70.5t-65 -28.5q-37 0 -56 23.5t-19 52.5q0 19 6.5 37t18.5 32t28.5 22.5t36.5 8.5q38 0 57 -22.5t19 -54.5z" />
    <glyph glyph-name="perthousand" unicode="&#x2030;" horiz-adv-x="963" 
d="M357 585q0 -43 -12 -83.5t-34 -72t-53.5 -50.5t-70.5 -19q-57 0 -86.5 37t-29.5 97q0 44 12 85t34 72.5t53 50.5t69 19q59 0 88.5 -38t29.5 -98zM262 578q0 25 -8 40t-25 15q-15 0 -27 -13t-20 -32.5t-12 -42.5t-4 -42q0 -24 8 -39t25 -15q15 0 27 13t20 32.5t12 42
t4 41.5zM641 212q0 -43 -12 -83.5t-34 -72t-53.5 -50.5t-70.5 -19q-57 0 -86.5 37t-29.5 97q0 44 12 85t34 72.5t53 50.5t69 19q59 0 88.5 -38t29.5 -98zM546 205q0 25 -8 40t-25 15q-15 0 -27 -13t-20 -32.5t-12 -42.5t-4 -42q0 -24 8 -39t25 -15q15 0 27 13t20 32.5t12 42
t4 41.5zM952 212q0 -43 -12 -83.5t-34 -72t-53.5 -50.5t-70.5 -19q-57 0 -86.5 37t-29.5 97q0 44 12 85t34 72.5t53 50.5t69 19q59 0 88.5 -38t29.5 -98zM857 205q0 25 -8 40t-25 15q-15 0 -27 -13t-20 -32.5t-12 -42.5t-4 -42q0 -24 8 -39t25 -15q15 0 27 13t20 32.5t12 42
t4 41.5zM173 -22l-65 28l431 732l64 -30z" />
    <glyph glyph-name="guilsinglleft" unicode="&#x2039;" horiz-adv-x="249" 
d="M132 259l55 -189l-82 -33l-67 231l146 224l70 -43z" />
    <glyph glyph-name="guilsinglright" unicode="&#x203a;" horiz-adv-x="249" 
d="M75 38l-70 43l122 189l-55 190l82 33l67 -231z" />
    <glyph glyph-name="fraction" unicode="&#x2044;" horiz-adv-x="100" 
d="M-102 -19l-60 20l403 734l60 -22z" />
    <glyph glyph-name="Euro" unicode="&#x20ac;" horiz-adv-x="519" 
d="M523 585q-12 7 -35.5 11t-45.5 4q-48 0 -83.5 -29.5t-58.5 -83.5h194l-40 -97h-190q-4 -14 -7.5 -32.5t-4.5 -37.5h178l-38 -95h-142q2 -53 32.5 -82t77.5 -29q28 0 52 6.5t41 15.5l-5 -128q-17 -9 -47 -18t-73 -9q-53 0 -95 18.5t-71 51t-45 77t-18 97.5h-79l39 95h46
q1 14 4.5 35.5t8.5 34.5h-67l41 97h49q48 119 126 179.5t188 60.5q16 0 33 -2t32.5 -5t29 -7t22.5 -8z" />
    <glyph glyph-name="afii61289" unicode="&#x2113;" horiz-adv-x="500" 
d="M510 588q0 -42 -15.5 -81t-47.5 -78t-81.5 -79.5t-118.5 -85.5q-9 -37 -14.5 -60t-8 -36.5t-3 -20t-0.5 -10.5q0 -22 12 -32t29 -10q19 0 40.5 8.5t56.5 30.5h2l37 -87q-47 -32 -90.5 -46.5t-91.5 -14.5q-71 0 -108 35t-37 89q0 8 1.5 19.5t6.5 36.5l-59 -41h-2l-39 85
l126 82l49 231q19 91 77.5 144.5t141.5 53.5q31 0 56 -10.5t43 -28.5t28 -42.5t10 -51.5zM385 581q0 17 -8 29t-21 12q-32 0 -45 -62l-36 -166q23 19 43 41.5t35 47t23.5 49.5t8.5 49z" />
    <glyph glyph-name="trademark" unicode="&#x2122;" horiz-adv-x="760" 
d="M396 708h135l61 -268l57 268h136v-412h-93v261h-2l-63 -261h-78l-61 261h-2v-261h-90v412zM180 611h-79v97h258v-97h-78v-315h-101v315z" />
    <glyph glyph-name="Omega" unicode="&#x2126;" horiz-adv-x="771" 
d="M379 0l46 219q34 8 62 25t50 42q44 50 59 119q8 40 0.5 72.5t-26.5 55t-47.5 35t-62.5 12.5q-35 0 -69 -12t-63 -35t-50.5 -55.5t-30.5 -73.5q-14 -69 11.5 -118.5t79.5 -66.5l-46 -219h-291l30 144h167l2 11q-36 12 -62 36t-40 56q-31 67 -11 158q15 71 54 129t93 99.5
t119.5 64.5t134.5 23t125 -22.5t93 -63.5t51 -99t-1 -129q-10 -45 -29.5 -85.5t-47.5 -73.5t-64.5 -57t-79.5 -36l-2 -11h167l-30 -144h-291z" />
    <glyph glyph-name="estimated" unicode="&#x212e;" horiz-adv-x="800" 
d="M595 402v193q-82 79 -194 79t-191 -79v-193h385zM210 355v-240q76 -78 192 -78q83 0 144 37.5t112 121.5l46 -28q-30 -48 -61.5 -82t-67.5 -55.5t-78.5 -32t-94.5 -10.5q-78 0 -141 28.5t-108 78.5t-69 116.5t-24 143.5t24 143.5t69 116t108 77.5t141 28q76 0 139.5 -27
t108.5 -75.5t70 -115.5t25 -147h-535z" />
    <glyph glyph-name="partialdiff" unicode="&#x2202;" 
d="M427 428q0 27 -7.5 54t-23.5 49.5t-40 36.5t-58 14q-33 0 -67 -12t-70 -54l-77 112q93 93 215 93q84 0 139.5 -33t89 -85t47.5 -116.5t14 -127.5q0 -39 -4.5 -82t-15.5 -84.5t-30.5 -79t-50 -65.5t-73 -44.5t-99.5 -16.5q-54 0 -99.5 18t-78.5 50t-51 76.5t-18 97.5
q0 49 16.5 91t47 72.5t75 47.5t101.5 17q65 0 118 -29zM420 292q-47 36 -92 36q-46 0 -69.5 -29.5t-23.5 -76.5q0 -45 23 -73.5t61 -28.5q27 0 46.5 14t31.5 36.5t17.5 51t5.5 57.5v13z" />
    <glyph glyph-name="Delta" unicode="&#x2206;" horiz-adv-x="710" 
d="M-41 0l418 708h140l134 -708h-692zM400 503l-206 -358h268z" />
    <glyph glyph-name="product" unicode="&#x220f;" horiz-adv-x="753" 
d="M543 -214v867h-333v-867h-151v1000h636v-1000h-152z" />
    <glyph glyph-name="summation" unicode="&#x2211;" 
d="M26 -214v111l292 395l-280 383v111h594v-133h-402l256 -360l-273 -374h431v-133h-618z" />
    <glyph glyph-name="minus" unicode="&#x2212;" 
d="M68 242v123h530v-123h-530z" />
    <glyph glyph-name="uni2215" unicode="&#x2215;" horiz-adv-x="100" 
d="M-102 -19l-60 20l403 734l60 -22z" />
    <glyph glyph-name="uni2219" unicode="&#x2219;" horiz-adv-x="262" 
d="M220 277q0 -42 -26.5 -70t-65.5 -28q-37 0 -56 23t-19 53q0 19 6.5 36.5t18.5 31.5t28.5 22.5t36.5 8.5q38 0 57.5 -22.5t19.5 -54.5z" />
    <glyph glyph-name="radical" unicode="&#x221a;" horiz-adv-x="569" 
d="M365 -214h-126l-145 300l-51 -24l-54 114l175 79l112 -239l158 770h145z" />
    <glyph glyph-name="infinity" unicode="&#x221e;" horiz-adv-x="837" 
d="M792 266q0 -39 -12.5 -74t-35.5 -61t-57.5 -41t-77.5 -15q-31 0 -57.5 8.5t-50 22.5t-44 33t-38.5 39q-19 -20 -39 -38.5t-42.5 -32.5t-48.5 -22.5t-58 -8.5q-43 0 -77.5 14.5t-58.5 40t-37 60t-13 74.5q0 39 12.5 73t36 59.5t57 40t76.5 14.5q33 0 60 -9t50 -24
t43.5 -35t38.5 -41q18 21 38 41t43 35.5t50.5 24.5t59.5 9q43 0 76.5 -14.5t57 -40t36 -59.5t12.5 -73zM674 263q0 31 -17.5 51t-49.5 20q-16 0 -32 -7t-30.5 -17.5t-27.5 -23t-24 -24.5q23 -26 52.5 -47t64.5 -21q30 0 47 20t17 49zM344 262q-12 12 -26 24.5t-29 23t-31 17
t-31 6.5q-29 0 -46.5 -20.5t-17.5 -49.5q0 -31 18 -49.5t49 -18.5q32 0 61.5 21.5t52.5 45.5z" />
    <glyph glyph-name="integral" unicode="&#x222b;" horiz-adv-x="633" 
d="M519 696q0 -28 -18.5 -47.5t-47.5 -19.5q-20 0 -30.5 8t-17.5 18.5t-12 20.5t-13 13q-9 -8 -10 -25t-1 -28q0 -21 1 -41.5t1 -41.5v-440v-56.5t-2 -56.5q-2 -39 -9 -77.5t-25 -69t-50 -49t-82 -18.5q-19 0 -40.5 5t-40 15.5t-31 28t-12.5 43.5q0 10 5 18q5 20 22 33
t40 13q19 0 29.5 -8t17 -18.5t11 -19.5t12.5 -12q5 3 7.5 8.5t3.5 12.5t1 14v12q1 20 -0.5 40t-1.5 40v34v462q0 44 3.5 93t20 90t50.5 68t96 27q17 0 38.5 -4.5t40 -15t31.5 -27.5t13 -42z" />
    <glyph glyph-name="approxequal" unicode="&#x2248;" 
d="M580 468q-8 -92 -50 -142t-111 -50q-30 0 -63.5 10t-66.5 22t-63 22t-53 10q-21 0 -33.5 -17t-17.5 -38h-96q3 34 13 67t29.5 58.5t49 41.5t70.5 16q31 0 62 -9t61.5 -20.5t61 -20.5t60.5 -9q22 0 34 15.5t16 43.5h97zM579 247q-4 -32 -13.5 -65t-28 -59.5t-47 -43
t-70.5 -16.5q-30 0 -64.5 10t-67.5 22.5t-63.5 22.5t-52.5 10q-21 0 -34 -17.5t-18 -44.5h-96q3 34 13 68.5t29 61.5t47.5 44t68.5 17q31 0 62.5 -9.5t63 -21t63 -21t62.5 -9.5q20 0 32 14.5t17 36.5h97z" />
    <glyph glyph-name="notequal" unicode="&#x2260;" 
d="M296 110l-74 -146l-115 56l47 90h-102v127h167l43 84h-210v127h275l75 145l115 -55l-47 -90h99v-127h-164l-43 -84h207v-127h-273z" />
    <glyph glyph-name="lessequal" unicode="&#x2264;" 
d="M79 18v123h508v-123h-508zM79 368v103l508 214v-136l-306 -131l306 -127v-137z" />
    <glyph glyph-name="greaterequal" unicode="&#x2265;" 
d="M79 141h508v-123h-508v123zM79 291l306 127l-306 131v136l508 -214v-103l-508 -214v137z" />
    <glyph glyph-name="lozenge" unicode="&#x25ca;" horiz-adv-x="606" 
d="M362 -35h-120l-181 391l182 391h119l184 -391zM302 597l-101 -241l101 -241l103 241z" />
    <glyph glyph-name="dotlessj" unicode="&#xf6be;" horiz-adv-x="266" 
d="M162 -35q-8 -41 -21.5 -78.5t-37.5 -65.5t-59.5 -44.5t-86.5 -16.5q-16 0 -31 2t-28 5l22 133q15 -5 28 -5q31 0 46 22.5t22 60.5l95 542h148z" />
    <glyph glyph-name="commaaccent" unicode="&#xf6c3;" horiz-adv-x="265" 
d="M47 -236h-99l94 191h111z" />
    <glyph glyph-name="uniF8FF" unicode="&#xf8ff;" horiz-adv-x="512" 
d="M222 117v67h56v-67h-56zM225 234l-2 17q0 56 13 81q7 13 18 27.5t28 31.5q16 15 26 26.5t15 21t7 18t2 17.5q0 36 -22.5 60.5t-53.5 24.5t-53.5 -22t-28.5 -73l-50 8q7 72 44 104.5t91 32.5t89 -35.5t35 -95.5q0 -32 -12.5 -58.5t-50.5 -61.5q-37 -33 -43 -52
q-6 -20 -6 -72h-46zM462 50v617h-412v-617h412zM512 718v-718h-512v718h512z" />
    <glyph glyph-name="fi" unicode="&#xfb01;" horiz-adv-x="553" 
d="M363 654q-5 2 -12 3t-15 1q-17 0 -29.5 -7.5t-20.5 -20t-13 -28.5t-8 -33l-8 -49h78l-19 -115h-78l-71 -405h-140l70 405h-65l20 115h64l9 51q7 41 21 79t37.5 67t58.5 46t84 17q14 0 30 -2t27 -4zM451 0h-143l90 520h143zM575 678q0 -20 -7 -37.5t-19 -30.5t-28.5 -20.5
t-35.5 -7.5q-36 0 -54.5 22.5t-18.5 51.5q0 19 6.5 36.5t18.5 31t28 21.5t35 8q36 0 55.5 -21.5t19.5 -53.5z" />
    <glyph glyph-name="fl" unicode="&#xfb02;" horiz-adv-x="553" 
d="M363 654q-5 2 -12 3t-15 1q-17 0 -29.5 -7.5t-20.5 -20t-13 -28.5t-8 -33l-8 -49h78l-19 -115h-78l-71 -405h-140l70 405h-65l20 115h64l9 51q7 41 21 79t37.5 67t58.5 46t84 17q14 0 30 -2t27 -4zM454 0h-148l130 756h149z" />
    </font>
</defs>
</svg>
